<svg xmlns="http://www.w3.org/2000/svg" xmlns:xlink="http://www.w3.org/1999/xlink" width="60.96" height="40.84" viewBox="0 0 60.96 40.84">
  <defs>
    <style>
      .cls-1 {
        fill: url(#linear-gradient);
      }

      .cls-2 {
        fill: url(#linear-gradient-3);
      }
    </style>
    <linearGradient id="linear-gradient" x1="-369.52" y1="-89.04" x2="-369.52" y2="-150" gradientUnits="userSpaceOnUse">
      <stop offset="0" stop-color="#e9ebec"/>
      <stop offset="1" stop-color="#fff"/>
    </linearGradient>
    <linearGradient id="linear-gradient-3" x1="-369.52" y1="-109.16" x2="-369.52" y2="-127.46" xlink:href="#linear-gradient"/>
  </defs>
  <title>bobble6</title>
  <g id="Layer_2" data-name="Layer 2">
    <g id="Layer_1-2" data-name="Layer 1">
      <g>
        <path class="cls-1" d="M-369.52-127.46c14.7,0,27,2.95,30.45,6.92A30.47,30.47,0,0,0-369.52-150,30.47,30.47,0,0,0-400-120.54C-396.55-124.51-384.22-127.46-369.52-127.46Z" transform="translate(400 150)"/>
        <path class="cls-1" d="M-369.52-109.16c14.43,0,26.58-2.84,30.25-6.7a29.48,29.48,0,0,0,.23-3.66q0-.51,0-1c-3.42-4-15.75-6.92-30.45-6.92s-27,2.95-30.45,6.92q0,.51,0,1a29.48,29.48,0,0,0,.23,3.66C-396.1-112-383.95-109.16-369.52-109.16Z" transform="translate(400 150)"/>
        <path class="cls-2" d="M-369.52-109.16c14.43,0,26.58-2.84,30.25-6.7a29.48,29.48,0,0,0,.23-3.66q0-.51,0-1c-3.42-4-15.75-6.92-30.45-6.92s-27,2.95-30.45,6.92q0,.51,0,1a29.48,29.48,0,0,0,.23,3.66C-396.1-112-383.95-109.16-369.52-109.16Z" transform="translate(400 150)"/>
      </g>
    </g>
  </g>
</svg>
