<svg xmlns="http://www.w3.org/2000/svg" width="663" height="478.33" viewBox="0 0 663 478.33">
  <defs>
    <style>
      .cls-1 {
        fill: #152230;
      }

      .cls-2 {
        fill: #f2902c;
      }

      .cls-3 {
        fill: #fff;
      }
    </style>
  </defs>
  <title>logo</title>
  <g id="Layer_2" data-name="Layer 2">
    <g id="Layer_1-2" data-name="Layer 1">
      <g>
        <path class="cls-1" d="M96.49,236.1c-3.5,1.18-5.94,3.93-8.77,6.06-10,7.52-19.88,15.18-29.83,22.76-.78.6-1.5,1.76-2.63,1.31-1.41-.57-.85-2-.85-3.11,0-15.38-.15-30.76.07-46.14.05-3.61-1.1-4.31-4.42-4.24-9.77.21-19.55.14-29.33,0-11.88-.11-20.61-9.11-20.6-21C.15,135.62.4,79.43,0,23.25-.1,8.9,10.18,0,23.31,0Q332.48.35,641.65.17C654.34.17,663,8.74,663,21.5q0,85.07,0,170.13c0,10.66-5.58,17.64-16.87,21-2.22,0-4.43.12-6.64.12H272q-70.77,0-141.54,0c-2.94,0-5.42.43-7.87,2.49-5,4.19-10.49,7.72-15.48,11.88C103.51,230,99.09,232,96.49,236.1Z"/>
        <path class="cls-2" d="M96.49,236.1c2.6-4.08,7-6.06,10.58-9,5-4.16,10.51-7.69,15.48-11.88,2.45-2.06,4.93-2.49,7.87-2.49q70.77.06,141.54,0H639.49c2.21,0,4.42-.08,6.64-.12,1.23,2.37,4,2.1,5.89,3.36,6.51,4.27,9.83,10,9.82,17.86,0,56.32-.2,112.64.17,169,.07,11.77-8.47,22.7-22.71,22.67q-151-.3-301.92-.1c-36.37,0-72.74.09-109.11-.07A16.23,16.23,0,0,0,217.65,429q-25.58,19.8-51.24,39.48c-3.91,3-7.93,5.86-11.86,8.83-2.44,1.85-3.32,1.21-3.32-1.74q0-22.1-.1-44.19c0-5.9-.12-6-5.89-6-8.86,0-17.74-.28-26.59.07-12.39.5-22.22-9.41-22.17-22.36.22-54.36.1-108.72.1-163.08C96.58,238.7,96.52,237.4,96.49,236.1Z"/>
        <path class="cls-3" d="M113.27,161.31H84.68v-110h45.51q18.52,0,28.38,9.63t9.85,27.13q0,17.52-9.85,27.14t-28.38,9.63H113.27Zm0-59.52h9.48q15.76,0,15.76-13.72T122.75,74.36h-9.48Z"/>
        <path class="cls-3" d="M269.48,161.31h-35.6L206.6,119v42.31H178v-110h44.5A43.66,43.66,0,0,1,238.55,54a30.23,30.23,0,0,1,18,18.16,37.81,37.81,0,0,1,2.26,13.13q0,12.56-6.06,20.35T234.9,116.23ZM206.6,100.48H212q8.46,0,13-3.51t4.52-10.06q0-6.57-4.52-10.07t-13-3.5h-5.4Z"/>
        <path class="cls-3" d="M306.8,51.31v110H278.2v-110Z"/>
        <path class="cls-3" d="M346.16,51.31l26.55,67,26.7-67h31.08l-46.4,110H361.33l-46.24-110Z"/>
        <path class="cls-3" d="M492.73,143H451.88l-6.57,19.11H414.82l41.87-110h31.22l41.87,110H499.29Zm-7.59-21.74L472.3,84.63l-12.84,36.61Z"/>
        <path class="cls-3" d="M572.09,76.31v85.78H543.5V76.31H520V52.09h75.57V76.31Z"/>
        <g>
          <path class="cls-3" d="M241.45,291.16a35.23,35.23,0,0,0-9.32-5.6,24.55,24.55,0,0,0-9-1.82,14.63,14.63,0,0,0-9,2.62,8.16,8.16,0,0,0-3.49,6.83,6.76,6.76,0,0,0,1.75,4.8,15,15,0,0,0,4.58,3.28,39.26,39.26,0,0,0,6.4,2.4q3.57,1,7.06,2.18,14,4.66,20.44,12.44t6.47,20.3a39.53,39.53,0,0,1-2.83,15.27,31.83,31.83,0,0,1-8.3,11.71,38.32,38.32,0,0,1-13.38,7.57,55.9,55.9,0,0,1-18,2.69,66,66,0,0,1-38.55-12.37l12.22-23a49.41,49.41,0,0,0,12.66,8.43,30.26,30.26,0,0,0,12.36,2.77q7,0,10.4-3.2a9.74,9.74,0,0,0,3.42-7.28,9.9,9.9,0,0,0-.87-4.29,9.19,9.19,0,0,0-2.91-3.34,23.23,23.23,0,0,0-5.31-2.84c-2.18-.87-4.83-1.84-7.93-2.91q-5.53-1.74-10.84-3.86a33.8,33.8,0,0,1-9.45-5.6,26,26,0,0,1-6.7-8.8q-2.53-5.31-2.54-13.46a38.73,38.73,0,0,1,2.69-14.76A32.66,32.66,0,0,1,191,270,33.86,33.86,0,0,1,203,262.64,45.28,45.28,0,0,1,218.75,260a69.29,69.29,0,0,1,17,2.26,74.8,74.8,0,0,1,17,6.62Z"/>
          <path class="cls-3" d="M268.07,372.77V263.08h28.51l52.67,67.07V263.08h28.37V372.77H349.25l-52.67-67.06v67.06Z"/>
          <path class="cls-3" d="M461,353.72H420.25l-6.55,19H383.29l41.76-109.69h31.13l41.76,109.69H467.53ZM453.42,332l-12.81-36.52L427.81,332Z"/>
          <path class="cls-3" d="M531.83,308.32l34.77-45.24h35.21L558.31,315l47.58,57.75h-37l-37.1-47.57v47.57H503.32V263.08h28.51Z"/>
        </g>
      </g>
    </g>
  </g>
</svg>
