<svg xmlns="http://www.w3.org/2000/svg" width="479.62" height="86.35" viewBox="0 0 479.62 86.35">
  <title>payoff2</title>
  <g id="Layer_2" data-name="Layer 2">
    <g id="Layer_1-2" data-name="Layer 1">
      <g>
        <path d="M-311.64-133.6a2.55,2.55,0,0,0-2.32-1.68,1.83,1.83,0,0,0-2,1.88c0,1.2.8,1.56,2.68,2.36,2.4,1,3.52,1.76,4.16,2.56a3.93,3.93,0,0,1,.88,2.68c0,3.48-2.52,5.43-5.72,5.43a5.92,5.92,0,0,1-5.8-4.23l2.48-1a3.76,3.76,0,0,0,3.36,2.72,2.58,2.58,0,0,0,2.72-2.64c0-1.56-1.12-2.08-2.68-2.76-2-.88-3.28-1.52-4-2.44a3.61,3.61,0,0,1-.76-2.44c0-2.92,2-4.64,4.84-4.64a4.79,4.79,0,0,1,4.56,3Z" transform="translate(320 150)"/>
        <path d="M-301.52-111.65h-2.88v-25.79h2.88v2.32a7.14,7.14,0,0,1,5.68-2.72c5.2,0,8.08,4.32,8.08,8.8s-2.92,8.67-8,8.67a7,7,0,0,1-5.8-2.79Zm10.8-17.39c0-4.08-2.76-6.24-5.44-6.24s-5.52,2.2-5.52,6.2c0,3.4,2.16,6.16,5.56,6.16S-290.72-125.72-290.72-129Z" transform="translate(320 150)"/>
        <path d="M-268.56-134.48a8.2,8.2,0,0,1,1.76,5.4,8.48,8.48,0,0,1-8.8,8.71A8.55,8.55,0,0,1-281-122l-2.44,2.4-1.84-1.8,2.44-2.4a8.6,8.6,0,0,1-1.6-5.24,8.52,8.52,0,0,1,8.8-8.76,8.35,8.35,0,0,1,5.2,1.6l2.44-2.4,1.76,1.8Zm-3.84.12a5.68,5.68,0,0,0-3.2-.92c-3,0-5.84,2.12-5.84,6.2a7.09,7.09,0,0,0,.76,3.28Zm-6.52,10.4a5.47,5.47,0,0,0,3.32,1c3,0,5.84-2.08,5.84-6.16a6.76,6.76,0,0,0-.88-3.44Z" transform="translate(320 150)"/>
        <path d="M-262.4-137.44h2.88v1.8a4.61,4.61,0,0,1,3.76-2.2,6.08,6.08,0,0,1,2.56.68l-1.36,2.6a3,3,0,0,0-1.68-.56,2.79,2.79,0,0,0-2.32,1c-.48.64-1,1.76-1,4.48v8.76h-2.88Z" transform="translate(320 150)"/>
        <path d="M-238.8-137.44h2.88v16.19c0,1.8,0,4.36-1.6,6.52a8.08,8.08,0,0,1-6.64,3.08,8.22,8.22,0,0,1-5.92-2.24,7.48,7.48,0,0,1-2.16-5.36h2.84a5.23,5.23,0,0,0,1.28,3.44,5.14,5.14,0,0,0,4,1.6,4.65,4.65,0,0,0,4.4-2.32,7.68,7.68,0,0,0,.92-4.23v-2.4a7,7,0,0,1-5.68,2.79,8,8,0,0,1-5.68-2.23,9,9,0,0,1-2.4-6.56,8.71,8.71,0,0,1,2.4-6.44,8.18,8.18,0,0,1,5.68-2.24,6.9,6.9,0,0,1,5.68,2.76Zm-9.12,3.72a6.32,6.32,0,0,0-1.68,4.56,6.4,6.4,0,0,0,1.88,4.88,5,5,0,0,0,3.56,1.36,4.91,4.91,0,0,0,3.64-1.4,6.73,6.73,0,0,0,1.88-4.8,6.56,6.56,0,0,0-1.76-4.68,5.32,5.32,0,0,0-3.76-1.48A5.15,5.15,0,0,0-247.92-133.72Z" transform="translate(320 150)"/>
        <path d="M-222.2-129.08a8.52,8.52,0,0,1,8.8-8.76,8.52,8.52,0,0,1,8.79,8.76,8.5,8.5,0,0,1-8.79,8.71A8.51,8.51,0,0,1-222.2-129.08Zm3,0a5.75,5.75,0,0,0,5.84,6.16,5.76,5.76,0,0,0,5.84-6.16c0-4.08-2.8-6.2-5.84-6.2S-219.24-133.12-219.24-129.08Z" transform="translate(320 150)"/>
        <path d="M-193.36-133.6a2.55,2.55,0,0,0-2.32-1.68,1.83,1.83,0,0,0-2,1.88c0,1.2.8,1.56,2.68,2.36,2.4,1,3.52,1.76,4.16,2.56a3.93,3.93,0,0,1,.88,2.68c0,3.48-2.52,5.43-5.72,5.43a5.92,5.92,0,0,1-5.8-4.23l2.48-1a3.76,3.76,0,0,0,3.36,2.72,2.58,2.58,0,0,0,2.72-2.64c0-1.56-1.12-2.08-2.68-2.76-2-.88-3.28-1.52-4-2.44a3.61,3.61,0,0,1-.76-2.44c0-2.92,2-4.64,4.84-4.64a4.79,4.79,0,0,1,4.56,3Z" transform="translate(320 150)"/>
        <path d="M-164.09-137.44h2.88v16.6h-2.88v-2.32a7,7,0,0,1-5.67,2.79c-4.2,0-8.08-2.95-8.08-8.79s3.84-8.68,8.08-8.68a6.85,6.85,0,0,1,5.67,2.76Zm-10.79,8.28c0,3.56,2,6.24,5.44,6.24s5.51-2.92,5.51-6.2c0-4.28-3-6.16-5.51-6.16C-172.28-135.28-174.88-133.2-174.88-129.16Z" transform="translate(320 150)"/>
        <path d="M-155.76-137.44h2.87v1.92a5.87,5.87,0,0,1,4.76-2.32,5.63,5.63,0,0,1,4.76,2.28,7.4,7.4,0,0,1,1,4.44v10.28h-2.88V-131a4.88,4.88,0,0,0-.76-3,3.26,3.26,0,0,0-2.72-1.2,3.63,3.63,0,0,0-2.92,1.28,7,7,0,0,0-1.2,4.48v8.68h-2.87Z" transform="translate(320 150)"/>
        <path d="M-138-129.08a8.52,8.52,0,0,1,8.8-8.76,8.52,8.52,0,0,1,8.79,8.76,8.5,8.5,0,0,1-8.79,8.71A8.51,8.51,0,0,1-138-129.08Zm3,0a5.75,5.75,0,0,0,5.84,6.16,5.75,5.75,0,0,0,5.83-6.16c0-4.08-2.8-6.2-5.83-6.2S-135-133.12-135-129.08Z" transform="translate(320 150)"/>
        <path d="M-116-137.44h2.87v1.92a5.87,5.87,0,0,1,4.76-2.32,5.63,5.63,0,0,1,4.76,2.28,7.4,7.4,0,0,1,1,4.44v10.28h-2.88V-131a4.88,4.88,0,0,0-.76-3,3.26,3.26,0,0,0-2.72-1.2,3.63,3.63,0,0,0-2.92,1.28,7,7,0,0,0-1.2,4.48v8.68H-116Z" transform="translate(320 150)"/>
        <path d="M-92-122.4l-7.63-15h3.27l5.88,11.88,5.4-11.88h3.2L-94-111.65h-3.2Z" transform="translate(320 150)"/>
        <path d="M-78.81-137.44h2.88v1.76a4.82,4.82,0,0,1,4.12-2.16,5,5,0,0,1,4.52,2.68,5.54,5.54,0,0,1,5-2.68c4.92,0,5.4,4.12,5.4,6.48v10.52h-2.88v-10.08c0-1.88-.24-4.36-3-4.36-3.32,0-3.68,3.2-3.68,5.2v9.24h-2.88v-9.84c0-1.16,0-4.6-3-4.6-3.28,0-3.64,3.4-3.64,5.4v9h-2.88Z" transform="translate(320 150)"/>
        <path d="M-48.45-134.8v14h-2.87v-14h-1.76v-2.64h1.76v-6h2.87v6h2.88v2.64Z" transform="translate(320 150)"/>
        <path d="M-34.57-129.08a8.52,8.52,0,0,1,8.8-8.76,8.52,8.52,0,0,1,8.8,8.76,8.51,8.51,0,0,1-8.8,8.71A8.51,8.51,0,0,1-34.57-129.08Zm3,0a5.75,5.75,0,0,0,5.84,6.16,5.76,5.76,0,0,0,5.84-6.16c0-4.08-2.8-6.2-5.84-6.2S-31.61-133.12-31.61-129.08Z" transform="translate(320 150)"/>
        <path d="M-12.57-137.44h2.88v1.76a4.82,4.82,0,0,1,4.12-2.16A5,5,0,0,1-1-135.16a5.54,5.54,0,0,1,5-2.68c4.92,0,5.4,4.12,5.4,6.48v10.52H6.47v-10.08c0-1.88-.24-4.36-3-4.36-3.32,0-3.68,3.2-3.68,5.2v9.24H-3v-9.84c0-1.16,0-4.6-3-4.6-3.28,0-3.64,3.4-3.64,5.4v9h-2.88Z" transform="translate(320 150)"/>
        <path d="M36.87-137.44h2.88v16.6H36.87v-2.32a7,7,0,0,1-5.68,2.79c-4.2,0-8.08-2.95-8.08-8.79s3.84-8.68,8.08-8.68a6.87,6.87,0,0,1,5.68,2.76Zm-10.8,8.28c0,3.56,2,6.24,5.44,6.24s5.52-2.92,5.52-6.2c0-4.28-3-6.16-5.52-6.16C28.67-135.28,26.07-133.2,26.07-129.16Z" transform="translate(320 150)"/>
        <path d="M48.07-150v29.16H45.19V-150Z" transform="translate(320 150)"/>
        <path d="M56.47-134.8v14H53.59v-14H51.83v-2.64h1.76v-6h2.88v6h2.88v2.64Z" transform="translate(320 150)"/>
        <path d="M-315.52-86.8v14h-2.88v-14H-320v-2.64h1.6v-7.24c0-1.52.12-3.44,1.6-4.68a5.17,5.17,0,0,1,3.32-1.08,5.57,5.57,0,0,1,2,.36v2.8a5.22,5.22,0,0,0-1.88-.36,2,2,0,0,0-1.84.88,5,5,0,0,0-.36,2.4v6.92h4.08v2.64Z" transform="translate(320 150)"/>
        <path d="M-308.88-89.44H-306v1.8a4.61,4.61,0,0,1,3.76-2.2,6.08,6.08,0,0,1,2.56.68l-1.36,2.6a3,3,0,0,0-1.68-.56,2.79,2.79,0,0,0-2.32,1c-.48.64-1,1.76-1,4.48v8.76h-2.88Z" transform="translate(320 150)"/>
        <path d="M-285.16-89.44h2.88v16.6h-2.88v-2.32a7,7,0,0,1-5.68,2.79c-4.2,0-8.08-2.95-8.08-8.79s3.84-8.68,8.08-8.68a6.87,6.87,0,0,1,5.68,2.76ZM-296-81.16c0,3.56,2,6.24,5.44,6.24s5.52-2.92,5.52-6.2c0-4.28-3-6.16-5.52-6.16C-293.36-87.28-296-85.2-296-81.16Z" transform="translate(320 150)"/>
        <path d="M-264.64-72.84h-2.88V-102h2.88v14.88A7.14,7.14,0,0,1-259-89.84c5.2,0,8.08,4.32,8.08,8.8s-2.92,8.67-8,8.67a7,7,0,0,1-5.8-2.79Zm10.8-8.2c0-4.08-2.76-6.24-5.44-6.24s-5.52,2.2-5.52,6.2c0,3.4,2.16,6.16,5.56,6.16S-253.84-77.72-253.84-81Z" transform="translate(320 150)"/>
        <path d="M-245-97.76a2,2,0,0,1,2,2,2,2,0,0,1-2,2,2,2,0,0,1-2-2A2,2,0,0,1-245-97.76Zm1.44,8.32v16.6h-2.88v-16.6Z" transform="translate(320 150)"/>
        <path d="M-235.28-102v29.16h-2.88V-102Z" transform="translate(320 150)"/>
        <path d="M-227-102v29.16h-2.88V-102Z" transform="translate(320 150)"/>
        <path d="M-206.81-77.08a9.93,9.93,0,0,1-2,2.68,8,8,0,0,1-5.52,2c-4,0-8.19-2.51-8.19-8.67,0-5,3-8.8,8-8.8a7.42,7.42,0,0,1,6.27,3,11.15,11.15,0,0,1,1.56,6.24H-219.6c0,3.44,2.4,5.64,5.27,5.64a5,5,0,0,0,3.4-1.2,6.61,6.61,0,0,0,1.72-2.28ZM-209.65-83a5,5,0,0,0-4.87-4.32A5,5,0,0,0-219.4-83Z" transform="translate(320 150)"/>
        <path d="M-189.57-102h2.88v29.16h-2.88v-2.32a7,7,0,0,1-5.68,2.79c-4.2,0-8.07-2.95-8.07-8.79s3.84-8.68,8.07-8.68a6.87,6.87,0,0,1,5.68,2.76Zm-10.79,20.84c0,3.56,2,6.24,5.43,6.24s5.52-2.92,5.52-6.2c0-4.28-3-6.16-5.52-6.16C-197.77-87.28-200.36-85.2-200.36-81.16Z" transform="translate(320 150)"/>
        <path d="M-168.53-102h2.88v29.16h-2.88v-2.32a7,7,0,0,1-5.68,2.79c-4.2,0-8.08-2.95-8.08-8.79s3.84-8.68,8.08-8.68a6.87,6.87,0,0,1,5.68,2.76Zm-10.8,20.84c0,3.56,2,6.24,5.44,6.24s5.52-2.92,5.52-6.2c0-4.28-3-6.16-5.52-6.16C-176.73-87.28-179.33-85.2-179.33-81.16Z" transform="translate(320 150)"/>
        <path d="M-145.49-77.08a9.93,9.93,0,0,1-2,2.68,8,8,0,0,1-5.52,2c-4,0-8.2-2.51-8.2-8.67,0-5,3-8.8,8-8.8a7.43,7.43,0,0,1,6.28,3,11.15,11.15,0,0,1,1.56,6.24h-12.92c0,3.44,2.4,5.64,5.28,5.64a5,5,0,0,0,3.4-1.2,6.61,6.61,0,0,0,1.72-2.28ZM-148.33-83a5,5,0,0,0-4.88-4.32A5,5,0,0,0-158.09-83Z" transform="translate(320 150)"/>
        <path d="M-138.09-102v29.16H-141V-102Z" transform="translate(320 150)"/>
        <path d="M-131.21-97.76a2,2,0,0,1,2,2,2,2,0,0,1-2,2,2,2,0,0,1-2-2A2,2,0,0,1-131.21-97.76Zm1.44,8.32v16.6h-2.88v-16.6Z" transform="translate(320 150)"/>
        <path d="M-124.33-89.44h2.88v1.92a5.86,5.86,0,0,1,4.76-2.32,5.63,5.63,0,0,1,4.76,2.28,7.4,7.4,0,0,1,1,4.44v10.28h-2.88V-83a4.88,4.88,0,0,0-.76-3,3.26,3.26,0,0,0-2.72-1.2A3.63,3.63,0,0,0-120.25-86a7,7,0,0,0-1.2,4.48v8.68h-2.88Z" transform="translate(320 150)"/>
        <path d="M-92.81-89.44h2.88v16.19c0,1.8,0,4.36-1.6,6.52a8.08,8.08,0,0,1-6.64,3.08,8.22,8.22,0,0,1-5.92-2.24,7.48,7.48,0,0,1-2.16-5.36h2.84a5.23,5.23,0,0,0,1.28,3.44,5.14,5.14,0,0,0,4,1.6,4.65,4.65,0,0,0,4.4-2.32,7.68,7.68,0,0,0,.92-4.23v-2.4a7,7,0,0,1-5.68,2.79,8,8,0,0,1-5.68-2.23,9,9,0,0,1-2.4-6.56,8.71,8.71,0,0,1,2.4-6.44,8.18,8.18,0,0,1,5.68-2.24,6.9,6.9,0,0,1,5.68,2.76Zm-9.12,3.72a6.32,6.32,0,0,0-1.68,4.56,6.4,6.4,0,0,0,1.88,4.88,5,5,0,0,0,3.56,1.36,4.91,4.91,0,0,0,3.64-1.4,6.73,6.73,0,0,0,1.88-4.8,6.56,6.56,0,0,0-1.76-4.68,5.32,5.32,0,0,0-3.76-1.48A5.15,5.15,0,0,0-101.93-85.72Z" transform="translate(320 150)"/>
        <path d="M-72.21-86.8v14h-2.88v-14h-1.76v-2.64h1.76v-6h2.88v6h2.88v2.64Z" transform="translate(320 150)"/>
        <path d="M-65.17-97.76a2,2,0,0,1,2,2,2,2,0,0,1-2,2,2,2,0,0,1-2-2A2,2,0,0,1-65.17-97.76Zm1.44,8.32v16.6h-2.88v-16.6Z" transform="translate(320 150)"/>
        <path d="M-55.41-102v29.16h-2.88V-102Z" transform="translate(320 150)"/>
        <path d="M-37.77-102v18.72l6.08-6.16h3.75L-35-82.32l8.39,9.48h-3.75L-37-80.4l-.72.72v6.84h-2.88V-102Z" transform="translate(320 150)"/>
        <path d="M2.58-77A8.12,8.12,0,0,1-4.9-72.37a7.43,7.43,0,0,1-6.52-3.31,6.68,6.68,0,0,1-6.23,3.31c-3.88,0-7.16-1.75-7.16-5.39s3.08-5.48,6.92-5.48a7.68,7.68,0,0,1,4.75,1.4,6.78,6.78,0,0,0-.76-3.52,4.13,4.13,0,0,0-4-1.92,16.84,16.84,0,0,0-5.12,1V-89a15.88,15.88,0,0,1,5.16-.88c1.84,0,4.83.32,6.27,3.36a7.28,7.28,0,0,1,6.4-3.36c4.84,0,7.92,3.56,7.92,9v.28h-13c.12,3.28,2.4,5.64,5.24,5.64A5.91,5.91,0,0,0,.18-78.44Zm-24.51-.76c0,1.2.88,2.84,4.2,2.84s4.44-1.68,4.44-3-1.08-2.8-4.36-2.8C-20.49-80.68-21.93-79.36-21.93-77.76ZM-.18-83A4.79,4.79,0,0,0-5.1-87.28,4.83,4.83,0,0,0-10-83Z" transform="translate(320 150)"/>
        <path d="M7.19-89.44h2.88v1.8a4.61,4.61,0,0,1,3.76-2.2,6.08,6.08,0,0,1,2.56.68L15-86.56a3,3,0,0,0-1.68-.56,2.79,2.79,0,0,0-2.32,1c-.48.64-1,1.76-1,4.48v8.76H7.19Z" transform="translate(320 150)"/>
        <path d="M32.79-77.08a9.93,9.93,0,0,1-2,2.68,8,8,0,0,1-5.52,2c-4,0-8.2-2.51-8.2-8.67,0-5,3-8.8,8-8.8a7.43,7.43,0,0,1,6.28,3,11.14,11.14,0,0,1,1.55,6.24H20c0,3.44,2.4,5.64,5.28,5.64a5,5,0,0,0,3.4-1.2,6.61,6.61,0,0,0,1.72-2.28ZM30-83a5,5,0,0,0-4.88-4.32A5,5,0,0,0,20.19-83Z" transform="translate(320 150)"/>
        <path d="M44.15-85.6a2.57,2.57,0,0,0-2.32-1.68,1.83,1.83,0,0,0-2,1.88c0,1.2.8,1.56,2.68,2.36,2.39,1,3.51,1.76,4.15,2.56a3.93,3.93,0,0,1,.88,2.68c0,3.48-2.52,5.43-5.71,5.43A5.92,5.92,0,0,1,36-76.6l2.48-1a3.75,3.75,0,0,0,3.35,2.72,2.58,2.58,0,0,0,2.72-2.64c0-1.56-1.11-2.08-2.68-2.76-2-.88-3.27-1.52-4-2.44a3.61,3.61,0,0,1-.76-2.44c0-2.92,2-4.64,4.83-4.64a4.78,4.78,0,0,1,4.56,3Z" transform="translate(320 150)"/>
        <path d="M54.35-86.8v14H51.47v-14H49.71v-2.64h1.76v-6h2.88v6h2.88v2.64Z" transform="translate(320 150)"/>
        <path d="M74.66-77.08a9.93,9.93,0,0,1-2,2.68,8,8,0,0,1-5.52,2c-4,0-8.2-2.51-8.2-8.67,0-5,3-8.8,8-8.8a7.43,7.43,0,0,1,6.28,3,11.15,11.15,0,0,1,1.56,6.24H61.86c0,3.44,2.4,5.64,5.28,5.64a5,5,0,0,0,3.4-1.2,6.61,6.61,0,0,0,1.72-2.28ZM71.82-83a5,5,0,0,0-4.88-4.32A5,5,0,0,0,62.06-83Z" transform="translate(320 150)"/>
        <path d="M86-85.6a2.55,2.55,0,0,0-2.32-1.68,1.83,1.83,0,0,0-2,1.88c0,1.2.8,1.56,2.68,2.36,2.4,1,3.52,1.76,4.16,2.56a3.93,3.93,0,0,1,.88,2.68c0,3.48-2.52,5.43-5.72,5.43a5.93,5.93,0,0,1-5.8-4.23l2.48-1a3.76,3.76,0,0,0,3.36,2.72,2.58,2.58,0,0,0,2.72-2.64c0-1.56-1.12-2.08-2.68-2.76-2-.88-3.28-1.52-4-2.44A3.61,3.61,0,0,1,79-85.2c0-2.92,2-4.64,4.84-4.64a4.79,4.79,0,0,1,4.56,3Z" transform="translate(320 150)"/>
        <path d="M92.23-81.08A8.52,8.52,0,0,1,101-89.84a8.52,8.52,0,0,1,8.8,8.76,8.51,8.51,0,0,1-8.8,8.71A8.5,8.5,0,0,1,92.23-81.08Zm3,0A5.75,5.75,0,0,0,101-74.92a5.76,5.76,0,0,0,5.84-6.16c0-4.08-2.8-6.2-5.84-6.2S95.19-85.12,95.19-81.08Z" transform="translate(320 150)"/>
        <path d="M115-89.44l5,11.2,5-11.2h3.2L120-71.76l-8.16-17.68Z" transform="translate(320 150)"/>
        <path d="M145.9-77.08a9.93,9.93,0,0,1-2,2.68,8,8,0,0,1-5.52,2c-4,0-8.2-2.51-8.2-8.67,0-5,3-8.8,8-8.8a7.43,7.43,0,0,1,6.28,3A11.15,11.15,0,0,1,146-80.56H133.1c0,3.44,2.4,5.64,5.28,5.64a5,5,0,0,0,3.4-1.2,6.61,6.61,0,0,0,1.72-2.28ZM143.06-83a5,5,0,0,0-4.88-4.32A5,5,0,0,0,133.3-83Z" transform="translate(320 150)"/>
        <path d="M150.42-89.44h2.88v1.8a4.61,4.61,0,0,1,3.76-2.2,6.08,6.08,0,0,1,2.56.68l-1.36,2.6a3,3,0,0,0-1.68-.56,2.79,2.79,0,0,0-2.32,1c-.48.64-1,1.76-1,4.48v8.76h-2.88Z" transform="translate(320 150)"/>
      </g>
    </g>
  </g>
</svg>
