<svg xmlns="http://www.w3.org/2000/svg" width="484.52" height="82.04" viewBox="0 0 484.52 82.04">
  <title>payoff2</title>
  <g id="Layer_2" data-name="Layer 2">
    <g id="Layer_1-2" data-name="Layer 1">
      <g>
        <path d="M8.21,15.92a2.69,2.69,0,0,0-2.28-1.37A1.58,1.58,0,0,0,4.79,15a1.2,1.2,0,0,0-.34.84,1,1,0,0,0,.53.91c.23.15.45.23,1.25.64l1.9.95a7.8,7.8,0,0,1,2.24,1.48,4,4,0,0,1,1.18,3,5.3,5.3,0,0,1-1.41,3.65,5.72,5.72,0,0,1-4.48,1.78,5.54,5.54,0,0,1-3.46-1A6.29,6.29,0,0,1,.15,24.24l3-1.44a4.17,4.17,0,0,0,.88,1.52,2.3,2.3,0,0,0,1.63.6,2.25,2.25,0,0,0,1.52-.53,1.9,1.9,0,0,0,.53-1.25,1.73,1.73,0,0,0-.49-1.22,4.93,4.93,0,0,0-1.6-1l-1.37-.65a7.84,7.84,0,0,1-2.2-1.37A3.48,3.48,0,0,1,1,16.22,5,5,0,0,1,2.28,12.8a5.15,5.15,0,0,1,3.91-1.51,5,5,0,0,1,3,.83,5.47,5.47,0,0,1,1.82,2Z"/>
        <path d="M18.62,36.4H14.9V11.7h3.72v1.75a6,6,0,0,1,4.75-2.16c4.22,0,7.79,3.22,7.79,8.32,0,5.39-3.95,8.58-7.75,8.58a6.34,6.34,0,0,1-4.79-2.35Zm-.23-16.61c0,3.35,2.17,5.06,4.52,5.06,2.7,0,4.45-2.32,4.45-5.09s-1.75-5.13-4.45-5.13C20.56,14.63,18.39,16.3,18.39,19.79Z"/>
        <path d="M35.76,24.66a7.8,7.8,0,0,1-1.56-4.94,8.23,8.23,0,0,1,8.55-8.43,7.55,7.55,0,0,1,5,1.55l2.7-2.66,1.67,1.75-2.58,2.51a8.34,8.34,0,0,1,1.75,5.28,8.31,8.31,0,0,1-8.55,8.47,7.76,7.76,0,0,1-5.25-1.75L35,29.18l-1.9-1.75Zm9.42-9.46a5.15,5.15,0,0,0-2.43-.57c-2.36,0-4.75,1.48-4.75,5.13a6.88,6.88,0,0,0,.45,2.43ZM40,24.09a5.33,5.33,0,0,0,2.74.76c2.35,0,4.75-1.44,4.75-5.09A5.72,5.72,0,0,0,46.89,17Z"/>
        <path d="M55.18,11.7H58.9v1.45a6.13,6.13,0,0,1,1.56-1.33,4.27,4.27,0,0,1,2.28-.53,5.55,5.55,0,0,1,2.92.75l-1.52,3.39a3.3,3.3,0,0,0-1.9-.57,2.91,2.91,0,0,0-2.32.87,5.18,5.18,0,0,0-1,3.69V27.7H55.18Z"/>
        <path d="M78.31,11.7H82V26.41c0,3.76-.42,6.46-2.62,8.32a8.17,8.17,0,0,1-5.32,1.71,7.09,7.09,0,0,1-5.25-2,9.08,9.08,0,0,1-2.35-5h3.61A5.27,5.27,0,0,0,71.29,32a3.76,3.76,0,0,0,2.88,1.1A4,4,0,0,0,77.1,32a5.29,5.29,0,0,0,1.21-4V25.91a5.76,5.76,0,0,1-4.86,2.28A6.8,6.8,0,0,1,68.17,26a9.07,9.07,0,0,1-2.39-6.35,8.5,8.5,0,0,1,2.35-6.19,7.26,7.26,0,0,1,5.44-2.2,6,6,0,0,1,4.74,2.16Zm-7.1,4a5.58,5.58,0,0,0-1.63,4.07,5.5,5.5,0,0,0,1.59,4A4.41,4.41,0,0,0,74,24.85a4.05,4.05,0,0,0,3.12-1.29,5.33,5.33,0,0,0,1.4-3.77,5.34,5.34,0,0,0-1.52-4,4,4,0,0,0-3-1.14A3.85,3.85,0,0,0,71.21,15.69Z"/>
        <path d="M111.87,19.72a8.55,8.55,0,0,1-17.1,0,8.55,8.55,0,0,1,17.1,0Zm-3.8,0c0-3.65-2.4-5.13-4.75-5.13s-4.75,1.48-4.75,5.13c0,3.07,1.82,5.09,4.75,5.09S108.07,22.83,108.07,19.76Z"/>
        <path d="M122.74,15.92a2.67,2.67,0,0,0-2.28-1.37,1.58,1.58,0,0,0-1.14.42,1.2,1.2,0,0,0-.34.84,1,1,0,0,0,.53.91c.22.15.45.23,1.25.64l1.9.95a7.8,7.8,0,0,1,2.24,1.48,4,4,0,0,1,1.18,3,5.3,5.3,0,0,1-1.41,3.65,5.72,5.72,0,0,1-4.48,1.78,5.54,5.54,0,0,1-3.46-1,6.29,6.29,0,0,1-2-2.93l3-1.44a4.17,4.17,0,0,0,.88,1.52,2.28,2.28,0,0,0,1.63.6,2.25,2.25,0,0,0,1.52-.53,1.9,1.9,0,0,0,.53-1.25,1.73,1.73,0,0,0-.49-1.22,4.93,4.93,0,0,0-1.6-1l-1.37-.65a7.84,7.84,0,0,1-2.2-1.37,3.48,3.48,0,0,1-1.14-2.7,5,5,0,0,1,1.33-3.42,5.15,5.15,0,0,1,3.91-1.51,5,5,0,0,1,3,.83,5.47,5.47,0,0,1,1.82,2Z"/>
        <path d="M150,11.7h3.72v16H150V26a6.13,6.13,0,0,1-4.79,2.16c-4.94,0-7.75-4.1-7.75-8.51,0-5.2,3.57-8.39,7.79-8.39A5.83,5.83,0,0,1,150,13.56Zm-8.74,8.06c0,2.77,1.75,5.09,4.45,5.09,2.35,0,4.52-1.71,4.52-5.06s-2.17-5.16-4.52-5.16C143,14.63,141.24,16.91,141.24,19.76Z"/>
        <path d="M158.38,11.7h3.72v1.48a5.52,5.52,0,0,1,4.34-1.89,5.37,5.37,0,0,1,4.71,2.16c.6.87,1,2,1,4.45v9.8h-3.72V18.81c0-4.07-1.52-4.18-2.92-4.18-1.68,0-3.39.23-3.39,5.39V27.7h-3.72Z"/>
        <path d="M193.11,19.72a8.55,8.55,0,0,1-17.1,0,8.55,8.55,0,0,1,17.1,0Zm-3.8,0c0-3.65-2.39-5.13-4.75-5.13s-4.75,1.48-4.75,5.13c0,3.07,1.83,5.09,4.75,5.09S189.31,22.83,189.31,19.76Z"/>
        <path d="M197,11.7h3.72v1.48A5.52,5.52,0,0,1,205,11.29a5.38,5.38,0,0,1,4.72,2.16c.6.87,1,2,1,4.45v9.8H207V18.81c0-4.07-1.52-4.18-2.92-4.18-1.68,0-3.39.23-3.39,5.39V27.7H197Z"/>
        <path d="M220.13,25.19,213.29,11.7h4.48l4.56,9.35L227,11.7h4.18L218.42,36.4h-4.18Z"/>
        <path d="M233.73,11.7h3.73v1.48a4.93,4.93,0,0,1,3.95-1.89,4.69,4.69,0,0,1,4.14,2.35,5.65,5.65,0,0,1,4.75-2.35,5.12,5.12,0,0,1,4.56,2.5,7.94,7.94,0,0,1,.83,4V27.7H252V18.88a7.55,7.55,0,0,0-.34-2.85,2.12,2.12,0,0,0-2.13-1.4,2.73,2.73,0,0,0-2.2,1.18,6.44,6.44,0,0,0-.72,3.64V27.7h-3.73V18.88a7.55,7.55,0,0,0-.34-2.85,2.12,2.12,0,0,0-2.13-1.4,2.73,2.73,0,0,0-2.2,1.18,6.44,6.44,0,0,0-.72,3.64V27.7h-3.73Z"/>
        <path d="M264.25,15.12V27.7h-3.73V15.12H259V11.7h1.55V5.85h3.73V11.7h2.85v3.42Z"/>
        <path d="M294.72,19.72a8.55,8.55,0,0,1-17.1,0,8.55,8.55,0,0,1,17.1,0Zm-3.8,0c0-3.65-2.39-5.13-4.75-5.13s-4.75,1.48-4.75,5.13c0,3.07,1.82,5.09,4.75,5.09S290.92,22.83,290.92,19.76Z"/>
        <path d="M298.6,11.7h3.72v1.48a5,5,0,0,1,3.95-1.89,4.69,4.69,0,0,1,4.14,2.35,5.67,5.67,0,0,1,4.75-2.35,5.12,5.12,0,0,1,4.56,2.5,7.8,7.8,0,0,1,.84,4V27.7h-3.73V18.88a7.32,7.32,0,0,0-.34-2.85,2.11,2.11,0,0,0-2.13-1.4,2.74,2.74,0,0,0-2.2,1.18,6.53,6.53,0,0,0-.72,3.64V27.7h-3.72V18.88a7.23,7.23,0,0,0-.35-2.85,2.09,2.09,0,0,0-2.12-1.4A2.74,2.74,0,0,0,303,15.81a6.53,6.53,0,0,0-.72,3.64V27.7H298.6Z"/>
        <path d="M345.83,11.7h3.72v16h-3.72V26A6.14,6.14,0,0,1,341,28.19c-4.94,0-7.75-4.1-7.75-8.51,0-5.2,3.57-8.39,7.79-8.39a5.83,5.83,0,0,1,4.75,2.27Zm-8.74,8.06c0,2.77,1.75,5.09,4.45,5.09,2.35,0,4.52-1.71,4.52-5.06s-2.17-5.16-4.52-5.16C338.84,14.63,337.09,16.91,337.09,19.76Z"/>
        <path d="M358,0V27.7h-3.72V0Z"/>
        <path d="M366.54,15.12V27.7h-3.72V15.12h-1.56V11.7h1.56V5.85h3.72V11.7h2.85v3.42Z"/>
        <path d="M5.32,60.72V73.3H1.6V60.72H0V57.3H1.6V51.76a7.11,7.11,0,0,1,1.55-5A5,5,0,0,1,7,45.18a6,6,0,0,1,2.4.46v3.68a3.28,3.28,0,0,0-1.79-.57,2.15,2.15,0,0,0-1.63.61,2.64,2.64,0,0,0-.61,1.9v6h4v3.42Z"/>
        <path d="M11.48,57.3H15.2v1.45a6.31,6.31,0,0,1,1.56-1.33A4.28,4.28,0,0,1,19,56.88a5.49,5.49,0,0,1,2.92.77L20.44,61a3.38,3.38,0,0,0-1.9-.57,2.88,2.88,0,0,0-2.31.87,5.14,5.14,0,0,0-1,3.69V73.3H11.48Z"/>
        <path d="M35,57.3h3.72v16H35V71.63a6.14,6.14,0,0,1-4.79,2.16c-4.94,0-7.75-4.1-7.75-8.51,0-5.2,3.57-8.4,7.79-8.4A5.84,5.84,0,0,1,35,59.17Zm-8.74,8.06c0,2.77,1.74,5.09,4.44,5.09,2.36,0,4.52-1.71,4.52-5,0-3.5-2.16-5.17-4.52-5.17C28,60.23,26.26,62.51,26.26,65.36Z"/>
        <path d="M56,59.17a5.83,5.83,0,0,1,4.75-2.29c4.22,0,7.79,3.2,7.79,8.4,0,4.41-2.81,8.51-7.75,8.51A6.13,6.13,0,0,1,56,71.63V73.3H52.29V45.6H56Zm-.23,6.23c0,3.34,2.17,5,4.52,5,2.7,0,4.45-2.32,4.45-5.09S63,60.23,60.3,60.23C58,60.23,55.78,61.9,55.78,65.4Z"/>
        <path d="M74.29,48.3a2.4,2.4,0,1,1-2.4,2.39A2.33,2.33,0,0,1,74.29,48.3Zm1.86,9v16H72.43v-16Z"/>
        <path d="M84.59,45.6V73.3H80.86V45.6Z"/>
        <path d="M93,45.6V73.3H89.3V45.6Z"/>
        <path d="M112.06,69.65a8.43,8.43,0,0,1-2.7,2.93,8.84,8.84,0,0,1-4.71,1.21,7.1,7.1,0,0,1-5.4-2.05,8.58,8.58,0,0,1-2.35-6.12,9.37,9.37,0,0,1,2.54-6.57,7.3,7.3,0,0,1,5.36-2.17A6.91,6.91,0,0,1,109.93,59c2,2.13,2.24,5.1,2.24,6.77v.45H100.7a5.27,5.27,0,0,0,1.36,3.23,3.8,3.8,0,0,0,2.85,1,3.93,3.93,0,0,0,2.55-.8,5.62,5.62,0,0,0,1.48-1.75Zm-3.69-6.5A3.85,3.85,0,0,0,107.23,61a3.54,3.54,0,0,0-2.51-.91,3.61,3.61,0,0,0-2.62,1,4.27,4.27,0,0,0-1.14,2Z"/>
        <path d="M127.75,45.6h3.72V73.3h-3.72V71.63A6.13,6.13,0,0,1,123,73.79c-4.94,0-7.75-4.1-7.75-8.51,0-5.2,3.57-8.4,7.79-8.4a5.83,5.83,0,0,1,4.75,2.29ZM119,65.36c0,2.77,1.75,5.09,4.45,5.09,2.35,0,4.52-1.71,4.52-5,0-3.5-2.17-5.17-4.52-5.17C120.76,60.23,119,62.51,119,65.36Z"/>
        <path d="M147.89,45.6h3.72V73.3h-3.72V71.63a6.13,6.13,0,0,1-4.79,2.16c-4.94,0-7.75-4.1-7.75-8.51,0-5.2,3.57-8.4,7.79-8.4a5.83,5.83,0,0,1,4.75,2.29Zm-8.74,19.76c0,2.77,1.75,5.09,4.45,5.09,2.35,0,4.52-1.71,4.52-5,0-3.5-2.17-5.17-4.52-5.17C140.9,60.23,139.15,62.51,139.15,65.36Z"/>
        <path d="M170.65,69.65a8.33,8.33,0,0,1-2.7,2.93,8.84,8.84,0,0,1-4.71,1.21,7.08,7.08,0,0,1-5.39-2.05,8.58,8.58,0,0,1-2.36-6.12A9.38,9.38,0,0,1,158,59.05a7.28,7.28,0,0,1,5.36-2.17A6.9,6.9,0,0,1,168.52,59c2.06,2.13,2.25,5.1,2.25,6.77v.45H159.29a5.28,5.28,0,0,0,1.37,3.23,3.78,3.78,0,0,0,2.85,1,3.92,3.92,0,0,0,2.54-.8,5.8,5.8,0,0,0,1.49-1.75ZM167,63.15A3.91,3.91,0,0,0,165.83,61a3.9,3.9,0,0,0-5.13.11,4.27,4.27,0,0,0-1.14,2Z"/>
        <path d="M178.37,45.6V73.3h-3.73V45.6Z"/>
        <path d="M184.94,48.3a2.4,2.4,0,1,1-2.39,2.39A2.33,2.33,0,0,1,184.94,48.3Zm1.86,9v16h-3.72v-16Z"/>
        <path d="M191.48,57.3h3.72v1.49a5.52,5.52,0,0,1,4.33-1.91,5.35,5.35,0,0,1,4.71,2.17c.61.87,1,2,1,4.45v9.8h-3.72V64.41c0-4.07-1.52-4.18-2.93-4.18-1.67,0-3.38.23-3.38,5.39V73.3h-3.72Z"/>
        <path d="M221.65,57.3h3.72V72c0,3.76-.42,6.46-2.62,8.32A8.17,8.17,0,0,1,217.43,82a7.07,7.07,0,0,1-5.24-2,9,9,0,0,1-2.36-5h3.61a5.27,5.27,0,0,0,1.18,2.51,3.76,3.76,0,0,0,2.89,1.1,4,4,0,0,0,2.92-1.06,5.26,5.26,0,0,0,1.22-4V71.51a5.79,5.79,0,0,1-4.87,2.28,6.8,6.8,0,0,1-5.28-2.16,9.07,9.07,0,0,1-2.39-6.35,8.5,8.5,0,0,1,2.35-6.19,7.31,7.31,0,0,1,5.44-2.21,6,6,0,0,1,4.75,2.17Zm-7.11,4a5.9,5.9,0,0,0,0,8.1,4.41,4.41,0,0,0,2.85,1.06,4.05,4.05,0,0,0,3.12-1.29,5.93,5.93,0,0,0-.12-7.79,4,4,0,0,0-3-1.14A3.89,3.89,0,0,0,214.54,61.29Z"/>
        <path d="M242.77,60.72V73.3h-3.72V60.72h-1.56V57.3h1.56V51.45h3.72V57.3h2.85v3.42Z"/>
        <path d="M250,48.3a2.4,2.4,0,1,1-2.39,2.39A2.34,2.34,0,0,1,250,48.3Zm1.87,9v16h-3.73v-16Z"/>
        <path d="M260.29,45.6V73.3h-3.72V45.6Z"/>
        <path d="M277.58,45.6V62.66l5.21-5.36h4.94L280.85,64l7.37,9.35h-4.71l-5.25-6.84-.68.68V73.3h-3.72V45.6Z"/>
        <path d="M292.06,57.38a18.68,18.68,0,0,1,4.52-.5,9.23,9.23,0,0,1,3.31.5,5.18,5.18,0,0,1,2.39,1.79,5.51,5.51,0,0,1,2.2-1.64,7.71,7.71,0,0,1,3.31-.65A7.16,7.16,0,0,1,313.26,59c2.05,2.17,2.24,5.1,2.24,6.77v.45H304a5.23,5.23,0,0,0,1.37,3.23,3.76,3.76,0,0,0,2.84,1,3.93,3.93,0,0,0,2.55-.8,5.62,5.62,0,0,0,1.48-1.75l3.12,1.75a8.43,8.43,0,0,1-2.7,2.93,9.11,9.11,0,0,1-4.79,1.21,7.72,7.72,0,0,1-3.34-.68,5.73,5.73,0,0,1-2.28-1.9,7.66,7.66,0,0,1-2.58,2,9.47,9.47,0,0,1-3.39.61,6.5,6.5,0,0,1-4.9-1.71,4.89,4.89,0,0,1-1.59-3.64,5.07,5.07,0,0,1,1.52-3.73A7.09,7.09,0,0,1,296.2,63a8.24,8.24,0,0,1,4.1,1.07,3.8,3.8,0,0,0-1.06-2.89,5,5,0,0,0-3.27-1,13,13,0,0,0-3.91.61ZM294,67a1.86,1.86,0,0,0-.64,1.41,2,2,0,0,0,.76,1.48,3.86,3.86,0,0,0,2.51.72,4.33,4.33,0,0,0,2.39-.61,1.94,1.94,0,0,0,1-1.67,1.91,1.91,0,0,0-1.18-1.63,4.52,4.52,0,0,0-2.24-.5A3.92,3.92,0,0,0,294,67Zm17.67-3.84A3.85,3.85,0,0,0,310.56,61a3.9,3.9,0,0,0-5.13.11,4.58,4.58,0,0,0-1.14,2Z"/>
        <path d="M319.38,57.3h3.72v1.45a6.31,6.31,0,0,1,1.56-1.33,4.3,4.3,0,0,1,2.28-.54,5.55,5.55,0,0,1,2.93.77L328.35,61a3.4,3.4,0,0,0-1.9-.57,2.9,2.9,0,0,0-2.32.87,5.14,5.14,0,0,0-1,3.69V73.3h-3.72Z"/>
        <path d="M345.14,69.65a8.33,8.33,0,0,1-2.7,2.93,8.84,8.84,0,0,1-4.71,1.21,7.08,7.08,0,0,1-5.39-2.05A8.58,8.58,0,0,1,330,65.62a9.38,9.38,0,0,1,2.55-6.57,7.28,7.28,0,0,1,5.36-2.17A6.9,6.9,0,0,1,343,59c2.06,2.13,2.25,5.1,2.25,6.77v.45H333.78a5.28,5.28,0,0,0,1.37,3.23,3.78,3.78,0,0,0,2.85,1,3.92,3.92,0,0,0,2.54-.8A5.8,5.8,0,0,0,342,67.9Zm-3.68-6.5A3.91,3.91,0,0,0,340.32,61a3.9,3.9,0,0,0-5.13.11,4.27,4.27,0,0,0-1.14,2Z"/>
        <path d="M356.12,61.52a2.67,2.67,0,0,0-2.27-1.37,1.59,1.59,0,0,0-1.15.42,1.24,1.24,0,0,0-.34.84,1,1,0,0,0,.54.91c.22.15.45.23,1.25.64l1.9.95a7.76,7.76,0,0,1,2.24,1.49,4,4,0,0,1,1.18,3A5.3,5.3,0,0,1,358.06,72a5.69,5.69,0,0,1-4.48,1.78,5.52,5.52,0,0,1-3.46-1,6.29,6.29,0,0,1-2.05-2.93l3-1.44a4.3,4.3,0,0,0,.87,1.52,2.46,2.46,0,0,0,3.16.07,1.88,1.88,0,0,0,.53-1.25,1.7,1.7,0,0,0-.5-1.22,4.78,4.78,0,0,0-1.59-1l-1.37-.65a7.84,7.84,0,0,1-2.2-1.37,3.48,3.48,0,0,1-1.14-2.7,5,5,0,0,1,1.33-3.41,5.15,5.15,0,0,1,3.91-1.53,5,5,0,0,1,3,.84,5.4,5.4,0,0,1,1.83,2Z"/>
        <path d="M366.65,60.72V73.3h-3.72V60.72h-1.56V57.3h1.56V51.45h3.72V57.3h2.85v3.42Z"/>
        <path d="M386.33,69.65a8.33,8.33,0,0,1-2.7,2.93,8.84,8.84,0,0,1-4.71,1.21,7.09,7.09,0,0,1-5.39-2.05,8.58,8.58,0,0,1-2.36-6.12,9.38,9.38,0,0,1,2.55-6.57,7.3,7.3,0,0,1,5.36-2.17A6.9,6.9,0,0,1,384.2,59c2.06,2.13,2.25,5.1,2.25,6.77v.45H375a5.28,5.28,0,0,0,1.37,3.23,3.78,3.78,0,0,0,2.85,1,3.88,3.88,0,0,0,2.54-.8,5.8,5.8,0,0,0,1.49-1.75Zm-3.68-6.5A3.91,3.91,0,0,0,381.51,61a3.9,3.9,0,0,0-5.13.11,4.27,4.27,0,0,0-1.14,2Z"/>
        <path d="M397.31,61.52A2.66,2.66,0,0,0,395,60.15a1.54,1.54,0,0,0-1.14.42,1.21,1.21,0,0,0-.35.84,1,1,0,0,0,.54.91c.22.15.45.23,1.25.64l1.9.95a7.76,7.76,0,0,1,2.24,1.49,4,4,0,0,1,1.18,3A5.3,5.3,0,0,1,399.25,72a5.69,5.69,0,0,1-4.48,1.78,5.52,5.52,0,0,1-3.46-1,6.29,6.29,0,0,1-2.05-2.93l3-1.44a4.3,4.3,0,0,0,.87,1.52,2.46,2.46,0,0,0,3.16.07,1.88,1.88,0,0,0,.53-1.25,1.7,1.7,0,0,0-.5-1.22,4.78,4.78,0,0,0-1.59-1l-1.37-.65a7.84,7.84,0,0,1-2.2-1.37,3.48,3.48,0,0,1-1.14-2.7,5,5,0,0,1,1.33-3.41,5.15,5.15,0,0,1,3.91-1.53,5,5,0,0,1,3,.84,5.47,5.47,0,0,1,1.82,2Z"/>
        <path d="M420.27,65.32a8.55,8.55,0,1,1-8.55-8.44A8.31,8.31,0,0,1,420.27,65.32Zm-3.8,0c0-3.65-2.4-5.13-4.75-5.13S407,61.71,407,65.36c0,3.08,1.82,5.09,4.75,5.09S416.47,68.44,416.47,65.36Z"/>
        <path d="M424.14,57.3h3.73v1.45a6.09,6.09,0,0,1,1.55-1.33,4.32,4.32,0,0,1,2.28-.54,5.53,5.53,0,0,1,2.93.77L433.11,61a3.4,3.4,0,0,0-1.9-.57,2.9,2.9,0,0,0-2.32.87,5.18,5.18,0,0,0-1,3.69V73.3h-3.73Z"/>
        <path d="M447.28,57.3H451V72c0,3.76-.42,6.46-2.62,8.32A8.17,8.17,0,0,1,443.07,82a7.07,7.07,0,0,1-5.25-2,9,9,0,0,1-2.35-5h3.61a5.26,5.26,0,0,0,1.17,2.51,3.8,3.8,0,0,0,2.89,1.1,4,4,0,0,0,2.93-1.06,5.29,5.29,0,0,0,1.21-4V71.51a5.78,5.78,0,0,1-4.86,2.28,6.8,6.8,0,0,1-5.28-2.16,9,9,0,0,1-2.4-6.35,8.51,8.51,0,0,1,2.36-6.19,7.31,7.31,0,0,1,5.43-2.21,6,6,0,0,1,4.75,2.17Zm-7.1,4a5.59,5.59,0,0,0-1.64,4.07,5.51,5.51,0,0,0,1.6,4A4.39,4.39,0,0,0,443,70.45a4,4,0,0,0,3.11-1.29,5.91,5.91,0,0,0-.11-7.79,4,4,0,0,0-3-1.14A3.86,3.86,0,0,0,440.18,61.29Z"/>
        <path d="M470,69.65a8.4,8.4,0,0,1-2.69,2.93,8.84,8.84,0,0,1-4.71,1.21,7.1,7.1,0,0,1-5.4-2.05,8.58,8.58,0,0,1-2.36-6.12,9.38,9.38,0,0,1,2.55-6.57,7.3,7.3,0,0,1,5.36-2.17A6.93,6.93,0,0,1,467.92,59c2.05,2.13,2.24,5.1,2.24,6.77v.45H458.68a5.28,5.28,0,0,0,1.37,3.23,3.8,3.8,0,0,0,2.85,1,3.93,3.93,0,0,0,2.55-.8,5.76,5.76,0,0,0,1.48-1.75Zm-3.68-6.5A3.85,3.85,0,0,0,465.22,61a3.54,3.54,0,0,0-2.51-.91,3.59,3.59,0,0,0-2.62,1,4.27,4.27,0,0,0-1.14,2Z"/>
        <path d="M474,57.3h3.72v1.45a6.13,6.13,0,0,1,1.56-1.33,4.28,4.28,0,0,1,2.28-.54,5.49,5.49,0,0,1,2.92.77L483,61a3.38,3.38,0,0,0-1.9-.57,2.92,2.92,0,0,0-2.32.87,5.18,5.18,0,0,0-1,3.69V73.3H474Z"/>
      </g>
    </g>
  </g>
</svg>
