<svg xmlns="http://www.w3.org/2000/svg" width="740.93" height="38.79" viewBox="0 0 740.93 38.79">
  <defs>
    <style>
      .cls-1 {
        fill: #152230;
      }
    </style>
  </defs>
  <title>payoff2</title>
  <g id="Layer_2" data-name="Layer 2">
    <g id="Layer_1-2" data-name="Layer 1">
      <g>
        <path class="cls-1" d="M8.12,16.84A2.55,2.55,0,0,0,5.8,15.16,1.83,1.83,0,0,0,3.8,17c0,1.2.8,1.56,2.68,2.36,2.4,1,3.52,1.76,4.16,2.56a3.93,3.93,0,0,1,.88,2.68c0,3.48-2.52,5.43-5.72,5.43A5.92,5.92,0,0,1,0,25.83l2.48-1a3.75,3.75,0,0,0,3.36,2.71,2.57,2.57,0,0,0,2.72-2.63c0-1.56-1.12-2.08-2.68-2.76-2-.88-3.28-1.52-4-2.44a3.61,3.61,0,0,1-.76-2.44c0-2.92,2-4.64,4.84-4.64a4.79,4.79,0,0,1,4.56,3Z"/>
        <path class="cls-1" d="M18.24,38.79H15.36V13h2.88v2.32a7.14,7.14,0,0,1,5.68-2.72c5.2,0,8.08,4.32,8.08,8.8s-2.92,8.67-8,8.67a7,7,0,0,1-5.8-2.79ZM29,21.4c0-4.08-2.76-6.24-5.44-6.24s-5.52,2.2-5.52,6.2c0,3.4,2.16,6.15,5.56,6.15S29,24.72,29,21.4Z"/>
        <path class="cls-1" d="M51.2,16A8.2,8.2,0,0,1,53,21.36a8.48,8.48,0,0,1-8.8,8.71,8.48,8.48,0,0,1-5.36-1.68l-2.44,2.4L34.52,29,37,26.6a8.62,8.62,0,0,1-1.6-5.24,8.52,8.52,0,0,1,8.8-8.76,8.35,8.35,0,0,1,5.2,1.6l2.44-2.4,1.76,1.8Zm-3.84.12a5.68,5.68,0,0,0-3.2-.92c-3,0-5.84,2.12-5.84,6.2a7.09,7.09,0,0,0,.76,3.28Zm-6.52,10.4a5.47,5.47,0,0,0,3.32,1c3,0,5.84-2.07,5.84-6.15a6.76,6.76,0,0,0-.88-3.44Z"/>
        <path class="cls-1" d="M57.36,13h2.88v1.8A4.61,4.61,0,0,1,64,12.6a6.08,6.08,0,0,1,2.56.68l-1.36,2.6a3,3,0,0,0-1.68-.56,2.79,2.79,0,0,0-2.32,1c-.48.64-1,1.76-1,4.48v8.75H57.36Z"/>
        <path class="cls-1" d="M81,13h2.88V29.19c0,1.8,0,4.36-1.6,6.52a8.08,8.08,0,0,1-6.64,3.08,8.22,8.22,0,0,1-5.92-2.24,7.48,7.48,0,0,1-2.16-5.36h2.84a5.23,5.23,0,0,0,1.28,3.44,5.14,5.14,0,0,0,4,1.6A4.65,4.65,0,0,0,80,33.91,7.72,7.72,0,0,0,81,29.67V27.28a7,7,0,0,1-5.68,2.79,7.91,7.91,0,0,1-5.68-2.24,9,9,0,0,1-2.4-6.55,8.71,8.71,0,0,1,2.4-6.44,8.18,8.18,0,0,1,5.68-2.24A6.9,6.9,0,0,1,81,15.36Zm-9.12,3.72a6.32,6.32,0,0,0-1.68,4.56A6.4,6.4,0,0,0,72,26.16a5,5,0,0,0,3.56,1.35,4.91,4.91,0,0,0,3.64-1.39,6.73,6.73,0,0,0,1.88-4.8,6.56,6.56,0,0,0-1.76-4.68,5.32,5.32,0,0,0-3.76-1.48A5.15,5.15,0,0,0,71.84,16.72Z"/>
        <path class="cls-1" d="M97.56,21.36a8.8,8.8,0,0,1,17.59,0,8.8,8.8,0,0,1-17.59,0Zm3,0a5.84,5.84,0,1,0,11.67,0c0-4.08-2.79-6.2-5.84-6.2S100.52,17.32,100.52,21.36Z"/>
        <path class="cls-1" d="M126.4,16.84a2.55,2.55,0,0,0-2.32-1.68,1.83,1.83,0,0,0-2,1.88c0,1.2.8,1.56,2.68,2.36,2.4,1,3.51,1.76,4.16,2.56a4,4,0,0,1,.87,2.68c0,3.48-2.52,5.43-5.71,5.43a5.92,5.92,0,0,1-5.8-4.24l2.48-1a3.75,3.75,0,0,0,3.36,2.71,2.57,2.57,0,0,0,2.72-2.63c0-1.56-1.12-2.08-2.68-2.76-2-.88-3.28-1.52-4-2.44a3.61,3.61,0,0,1-.76-2.44c0-2.92,2-4.64,4.84-4.64a4.79,4.79,0,0,1,4.56,3Z"/>
        <path class="cls-1" d="M141.92,21.36a8.8,8.8,0,0,1,17.59,0,8.8,8.8,0,0,1-17.59,0Zm3,0a5.85,5.85,0,1,0,11.68,0c0-4.08-2.8-6.2-5.84-6.2S144.87,17.32,144.87,21.36Z"/>
        <path class="cls-1" d="M163.92,13h2.87v1.76a4.82,4.82,0,0,1,4.12-2.16,5,5,0,0,1,4.52,2.68,5.54,5.54,0,0,1,5-2.68c4.92,0,5.4,4.12,5.4,6.48V29.59H183V19.52c0-1.88-.24-4.36-3-4.36-3.32,0-3.68,3.2-3.68,5.2v9.23h-2.88V19.76c0-1.16,0-4.6-3-4.6-3.28,0-3.64,3.4-3.64,5.4v9h-2.87Z"/>
        <path class="cls-1" d="M213.35,13h2.88V29.59h-2.88V27.28a7,7,0,0,1-5.68,2.79c-4.2,0-8.07-2.95-8.07-8.79s3.83-8.68,8.07-8.68a6.87,6.87,0,0,1,5.68,2.76Zm-10.8,8.28c0,3.56,2,6.23,5.44,6.23s5.52-2.91,5.52-6.19c0-4.28-3-6.16-5.52-6.16C205.15,15.16,202.55,17.24,202.55,21.28Z"/>
        <path class="cls-1" d="M224.55.44V29.59h-2.88V.44Z"/>
        <path class="cls-1" d="M233,15.64v14h-2.88V15.64h-1.76V13h1.76V7H233v6h2.88v2.64Z"/>
        <path class="cls-1" d="M250.83,15.64v14H248V15.64h-1.6V13H248V5.76c0-1.52.12-3.44,1.6-4.68A5.17,5.17,0,0,1,252.87,0a5.57,5.57,0,0,1,2,.36v2.8A5.22,5.22,0,0,0,253,2.8a2,2,0,0,0-1.84.88,5,5,0,0,0-.36,2.4V13h4.08v2.64Z"/>
        <path class="cls-1" d="M257.47,13h2.88v1.8a4.61,4.61,0,0,1,3.76-2.2,6.08,6.08,0,0,1,2.56.68l-1.36,2.6a3,3,0,0,0-1.68-.56,2.79,2.79,0,0,0-2.32,1c-.48.64-1,1.76-1,4.48v8.75h-2.88Z"/>
        <path class="cls-1" d="M281.19,13h2.88V29.59h-2.88V27.28a7,7,0,0,1-5.68,2.79c-4.2,0-8.08-2.95-8.08-8.79s3.84-8.68,8.08-8.68a6.87,6.87,0,0,1,5.68,2.76Zm-10.8,8.28c0,3.56,2,6.23,5.44,6.23s5.52-2.91,5.52-6.19c0-4.28-3-6.16-5.52-6.16C273,15.16,270.39,17.24,270.39,21.28Z"/>
        <path class="cls-1" d="M301.71,29.59h-2.88V.44h2.88V15.32a7.14,7.14,0,0,1,5.68-2.72c5.2,0,8.08,4.32,8.08,8.8s-2.92,8.67-8,8.67a7,7,0,0,1-5.8-2.79Zm10.8-8.19c0-4.08-2.76-6.24-5.44-6.24s-5.52,2.2-5.52,6.2c0,3.4,2.16,6.15,5.56,6.15S312.51,24.72,312.51,21.4Z"/>
        <path class="cls-1" d="M321.31,4.68a2,2,0,1,1-2,2A2,2,0,0,1,321.31,4.68ZM322.75,13V29.59h-2.88V13Z"/>
        <path class="cls-1" d="M331.07.44V29.59h-2.88V.44Z"/>
        <path class="cls-1" d="M339.39.44V29.59h-2.88V.44Z"/>
        <path class="cls-1" d="M359.54,25.36a9.93,9.93,0,0,1-2,2.68,8.1,8.1,0,0,1-5.52,2c-4,0-8.19-2.52-8.19-8.67,0-5,3-8.8,8-8.8a7.42,7.42,0,0,1,6.27,3,11.15,11.15,0,0,1,1.56,6.24H346.75c0,3.44,2.4,5.63,5.27,5.63a5,5,0,0,0,3.4-1.19A6.49,6.49,0,0,0,357.14,24Zm-2.84-5.88a5,5,0,0,0-4.87-4.32A5,5,0,0,0,347,19.48Z"/>
        <path class="cls-1" d="M376.78.44h2.88V29.59h-2.88V27.28a7,7,0,0,1-5.67,2.79c-4.2,0-8.08-2.95-8.08-8.79s3.84-8.68,8.08-8.68a6.85,6.85,0,0,1,5.67,2.76ZM366,21.28c0,3.56,2,6.23,5.44,6.23s5.51-2.91,5.51-6.19c0-4.28-3-6.16-5.51-6.16C368.59,15.16,366,17.24,366,21.28Z"/>
        <path class="cls-1" d="M397.82.44h2.88V29.59h-2.88V27.28a7,7,0,0,1-5.67,2.79c-4.21,0-8.08-2.95-8.08-8.79s3.84-8.68,8.08-8.68a6.86,6.86,0,0,1,5.67,2.76ZM387,21.28c0,3.56,2,6.23,5.43,6.23S398,24.6,398,21.32c0-4.28-3-6.16-5.52-6.16C389.63,15.16,387,17.24,387,21.28Z"/>
        <path class="cls-1" d="M420.86,25.36a9.93,9.93,0,0,1-2,2.68,8.1,8.1,0,0,1-5.52,2c-4,0-8.2-2.52-8.2-8.67,0-5,3-8.8,8-8.8a7.43,7.43,0,0,1,6.28,3A11.15,11.15,0,0,1,421,21.88H408.06c0,3.44,2.4,5.63,5.28,5.63a5,5,0,0,0,3.4-1.19A6.61,6.61,0,0,0,418.46,24ZM418,19.48a5,5,0,0,0-4.88-4.32,5,5,0,0,0-4.88,4.32Z"/>
        <path class="cls-1" d="M428.26.44V29.59h-2.88V.44Z"/>
        <path class="cls-1" d="M435.14,4.68a2,2,0,1,1-2,2A2,2,0,0,1,435.14,4.68ZM436.58,13V29.59H433.7V13Z"/>
        <path class="cls-1" d="M442,13h2.88v1.92a5.86,5.86,0,0,1,4.76-2.32,5.63,5.63,0,0,1,4.76,2.28,7.4,7.4,0,0,1,1,4.44V29.59H452.5V19.4a4.88,4.88,0,0,0-.76-3,3.26,3.26,0,0,0-2.72-1.2,3.63,3.63,0,0,0-2.92,1.28,7,7,0,0,0-1.2,4.48v8.67H442Z"/>
        <path class="cls-1" d="M473.54,13h2.88V29.19c0,1.8,0,4.36-1.6,6.52a8.08,8.08,0,0,1-6.64,3.08,8.22,8.22,0,0,1-5.92-2.24,7.48,7.48,0,0,1-2.16-5.36h2.84a5.23,5.23,0,0,0,1.28,3.44,5.14,5.14,0,0,0,4,1.6,4.65,4.65,0,0,0,4.4-2.32,7.72,7.72,0,0,0,.92-4.24V27.28a7,7,0,0,1-5.68,2.79,7.91,7.91,0,0,1-5.68-2.24,9,9,0,0,1-2.4-6.55,8.71,8.71,0,0,1,2.4-6.44,8.18,8.18,0,0,1,5.68-2.24,6.9,6.9,0,0,1,5.68,2.76Zm-9.12,3.72a6.32,6.32,0,0,0-1.68,4.56,6.4,6.4,0,0,0,1.88,4.88,5,5,0,0,0,3.56,1.35,4.91,4.91,0,0,0,3.64-1.39,6.73,6.73,0,0,0,1.88-4.8,6.56,6.56,0,0,0-1.76-4.68,5.32,5.32,0,0,0-3.76-1.48A5.15,5.15,0,0,0,464.42,16.72Z"/>
        <path class="cls-1" d="M494.14,15.64v14h-2.88V15.64H489.5V13h1.76V7h2.88v6H497v2.64Z"/>
        <path class="cls-1" d="M501.18,4.68a2,2,0,1,1-2,2A2,2,0,0,1,501.18,4.68ZM502.62,13V29.59h-2.88V13Z"/>
        <path class="cls-1" d="M510.94.44V29.59h-2.88V.44Z"/>
        <path class="cls-1" d="M528.58.44V19.16L534.66,13h3.76l-7.12,7.12,8.39,9.47h-3.75L529.3,22l-.72.72v6.83H525.7V.44Z"/>
        <path class="cls-1" d="M568.93,25.44a8.13,8.13,0,0,1-7.47,4.63,7.42,7.42,0,0,1-6.52-3.32,6.71,6.71,0,0,1-6.24,3.32c-3.88,0-7.16-1.75-7.16-5.39s3.08-5.48,6.92-5.48a7.73,7.73,0,0,1,4.76,1.4,6.78,6.78,0,0,0-.76-3.52,4.16,4.16,0,0,0-4-1.92,16.84,16.84,0,0,0-5.12,1V13.48a15.88,15.88,0,0,1,5.16-.88c1.84,0,4.84.32,6.28,3.36a7.28,7.28,0,0,1,6.4-3.36c4.83,0,7.91,3.56,7.91,9v.28h-13c.12,3.28,2.4,5.63,5.24,5.63A5.9,5.9,0,0,0,566.53,24Zm-24.51-.76c0,1.2.88,2.83,4.2,2.83s4.44-1.68,4.44-3-1.08-2.8-4.36-2.8C545.86,21.76,544.42,23.08,544.42,24.68Zm21.75-5.2a4.93,4.93,0,0,0-9.79,0Z"/>
        <path class="cls-1" d="M573.54,13h2.88v1.8a4.61,4.61,0,0,1,3.76-2.2,6.08,6.08,0,0,1,2.56.68l-1.36,2.6a3,3,0,0,0-1.68-.56,2.79,2.79,0,0,0-2.32,1c-.48.64-1,1.76-1,4.48v8.75h-2.88Z"/>
        <path class="cls-1" d="M599.14,25.36a10.14,10.14,0,0,1-2,2.68,8.1,8.1,0,0,1-5.52,2c-4,0-8.2-2.52-8.2-8.67,0-5,3-8.8,8-8.8a7.41,7.41,0,0,1,6.27,3,11.15,11.15,0,0,1,1.56,6.24H586.34c0,3.44,2.4,5.63,5.28,5.63a5,5,0,0,0,3.4-1.19A6.58,6.58,0,0,0,596.73,24Zm-2.84-5.88a5,5,0,0,0-4.88-4.32,5,5,0,0,0-4.88,4.32Z"/>
        <path class="cls-1" d="M610.5,16.84a2.55,2.55,0,0,0-2.32-1.68,1.83,1.83,0,0,0-2,1.88c0,1.2.8,1.56,2.68,2.36,2.4,1,3.52,1.76,4.16,2.56a4,4,0,0,1,.88,2.68c0,3.48-2.52,5.43-5.72,5.43a5.92,5.92,0,0,1-5.8-4.24l2.48-1a3.75,3.75,0,0,0,3.36,2.71,2.57,2.57,0,0,0,2.72-2.63c0-1.56-1.12-2.08-2.68-2.76-2-.88-3.28-1.52-4-2.44a3.61,3.61,0,0,1-.76-2.44c0-2.92,2-4.64,4.84-4.64a4.77,4.77,0,0,1,4.55,3Z"/>
        <path class="cls-1" d="M620.69,15.64v14h-2.87V15.64h-1.76V13h1.76V7h2.87v6h2.88v2.64Z"/>
        <path class="cls-1" d="M641,25.36A9.93,9.93,0,0,1,639,28a8.1,8.1,0,0,1-5.52,2c-4,0-8.19-2.52-8.19-8.67,0-5,3-8.8,8-8.8a7.43,7.43,0,0,1,6.28,3,11.15,11.15,0,0,1,1.56,6.24H628.22c0,3.44,2.39,5.63,5.27,5.63a5,5,0,0,0,3.4-1.19A6.61,6.61,0,0,0,638.61,24Zm-2.84-5.88a5,5,0,0,0-4.88-4.32,5,5,0,0,0-4.88,4.32Z"/>
        <path class="cls-1" d="M652.37,16.84a2.55,2.55,0,0,0-2.32-1.68,1.83,1.83,0,0,0-2,1.88c0,1.2.8,1.56,2.68,2.36,2.4,1,3.52,1.76,4.16,2.56a3.93,3.93,0,0,1,.88,2.68c0,3.48-2.52,5.43-5.72,5.43a5.92,5.92,0,0,1-5.8-4.24l2.48-1a3.75,3.75,0,0,0,3.36,2.71,2.57,2.57,0,0,0,2.72-2.63c0-1.56-1.12-2.08-2.68-2.76-2-.88-3.28-1.52-4-2.44a3.61,3.61,0,0,1-.76-2.44c0-2.92,2-4.64,4.84-4.64a4.79,4.79,0,0,1,4.56,3Z"/>
        <path class="cls-1" d="M658.57,21.36a8.8,8.8,0,0,1,17.6,0,8.8,8.8,0,0,1-17.6,0Zm3,0a5.85,5.85,0,1,0,11.68,0c0-4.08-2.8-6.2-5.84-6.2S661.53,17.32,661.53,21.36Z"/>
        <path class="cls-1" d="M680.57,13h2.88v1.8a4.61,4.61,0,0,1,3.76-2.2,6.08,6.08,0,0,1,2.56.68l-1.36,2.6a3,3,0,0,0-1.68-.56,2.79,2.79,0,0,0-2.32,1c-.48.64-1,1.76-1,4.48v8.75h-2.88Z"/>
        <path class="cls-1" d="M704.17,13h2.88V29.19c0,1.8,0,4.36-1.6,6.52a8.08,8.08,0,0,1-6.64,3.08,8.22,8.22,0,0,1-5.92-2.24,7.48,7.48,0,0,1-2.16-5.36h2.84a5.23,5.23,0,0,0,1.28,3.44,5.14,5.14,0,0,0,4,1.6,4.65,4.65,0,0,0,4.4-2.32,7.72,7.72,0,0,0,.92-4.24V27.28a7,7,0,0,1-5.68,2.79,7.91,7.91,0,0,1-5.68-2.24,9,9,0,0,1-2.4-6.55,8.71,8.71,0,0,1,2.4-6.44,8.18,8.18,0,0,1,5.68-2.24,6.9,6.9,0,0,1,5.68,2.76Zm-9.12,3.72a6.32,6.32,0,0,0-1.68,4.56,6.4,6.4,0,0,0,1.88,4.88,5,5,0,0,0,3.56,1.35,4.91,4.91,0,0,0,3.64-1.39,6.73,6.73,0,0,0,1.88-4.8,6.56,6.56,0,0,0-1.76-4.68,5.32,5.32,0,0,0-3.76-1.48A5.15,5.15,0,0,0,695.05,16.72Z"/>
        <path class="cls-1" d="M727.21,25.36a9.93,9.93,0,0,1-2,2.68,8.1,8.1,0,0,1-5.52,2c-4,0-8.2-2.52-8.2-8.67,0-5,3-8.8,8-8.8a7.43,7.43,0,0,1,6.28,3,11.15,11.15,0,0,1,1.56,6.24H714.41c0,3.44,2.4,5.63,5.28,5.63a5,5,0,0,0,3.4-1.19A6.61,6.61,0,0,0,724.81,24Zm-2.84-5.88a5,5,0,0,0-4.88-4.32,5,5,0,0,0-4.88,4.32Z"/>
        <path class="cls-1" d="M731.73,13h2.88v1.8a4.61,4.61,0,0,1,3.76-2.2,6.08,6.08,0,0,1,2.56.68l-1.36,2.6a3,3,0,0,0-1.68-.56,2.79,2.79,0,0,0-2.32,1c-.48.64-1,1.76-1,4.48v8.75h-2.88Z"/>
      </g>
    </g>
  </g>
</svg>
