<svg xmlns="http://www.w3.org/2000/svg" width="300" height="300" viewBox="0 0 300 300"><defs><style>.cls-1{fill:#f7c394;}.cls-2{fill:#fc9;}.cls-3{fill:#efbb60;}.cls-4{fill:#d8a356;}.cls-5{fill:#ed7b14;}.cls-6{fill:#363c87;}</style></defs><title>Artboard 4</title><g id="_4" data-name="4"><path class="cls-1" d="M116,223.24s8.9,28.38-1.39,47l82.71.83s-19.28-22.81-6.21-49Z"/><path class="cls-2" d="M144.1,33.6s49.38-3.92,80,25.47,20.77,75.64,20.77,75.64-9,38.8-20,54.48S200.54,235,160.56,235s-60.35-18-60.35-18-49.77-27.43-51.34-51.34-7.45-79.16,20-107.77S144.1,33.6,144.1,33.6Z"/><path class="cls-3" d="M145.9,117.92S132.28,138,132.28,148s2,13,16.07,12.18,25.14-3.54,19.41-14.6-17-27.67-17-27.67S148.19,114.38,145.9,117.92Z"/><path class="cls-4" d="M190.29,188s-7.88,2.47-13.54,1-12.29-2.67-16.19-2.67c0,0-2.54,2.4-10.93,1.56,0,0-5.85.22-9.75,2.72s-12.69,3.56-18.15,3.56c0,0,6.83,9.09,31.22,10.88S190.29,188,190.29,188Z"/><ellipse cx="91.59" cy="111.74" rx="9.81" ry="3.86" transform="translate(-18.49 18.16) rotate(-10.29)"/><ellipse cx="197.44" cy="100.89" rx="10.24" ry="4.35" transform="translate(-12.25 28.84) rotate(-8.1)"/><path class="cls-5" d="M101.88,35.46s16-19.66,37.49-17.3,62.92-2.62,77.86,11.8S237.42,21,237.42,21s17.28,27.64-7,45.15S106.86,50.4,106.86,50.4s-14.61,41.76-58,55.49C48.83,105.89,40.8,43.59,101.88,35.46Z"/><path class="cls-6" d="M117.11,250.44s46.5,7.78,75.18,1.23c0,0,4.84-3.49,5,6.35s10.18,21.51,10.18,21.51,27.65-.23,31.34,20.47H62.93s-3.47-23.53,24.76-28.91l16.72-2.72s7-6.65,7.58-15.14C112,253.23,111.73,249.64,117.11,250.44Z"/></g></svg>
