<svg xmlns="http://www.w3.org/2000/svg" width="300" height="300" viewBox="0 0 300 300"><defs><style>.cls-1{fill:#f7c394;}.cls-2{fill:#fc9;}.cls-3{fill:#efbb60;}.cls-4{fill:#a0640e;}.cls-5{fill:#ad751a;}.cls-6{fill:#d8a356;}.cls-7{fill:#567c5c;}</style></defs><title>Artboard 3</title><g id="_3" data-name="3"><path class="cls-1" d="M151.42,215.71s-5.11,25.74,0,36,11.85,13.08,11.85,13.08H107.69s8.18-6.95,10.83-12.67,4.5-25.34-1.63-35.35Z"/><path class="cls-2" d="M71.58,167.75s14.06,33.07,32.61,47.6,45.48,3,45.48,3,19.75-8.26,25.43-24.55,14.34-55.11,4.33-75.91-17.19-40.08-17.19-40.08L84.74,93.09Z"/><path class="cls-3" d="M169,113.15,184.54,137s8.29,7.49-7.27,8Z"/><path class="cls-4" d="M109,40.62s54.72-4,70.48,34.88c0,0-9.33,20-69.23,27.08,0,0-10.57-18.57-35.24-34.71C75,67.87,83.66,43.57,109,40.62Z"/><path class="cls-5" d="M110.4,161.76S89.29,122.92,104.1,94c0,0-10.69-23-29.14-26.14,0,0-27.36,70.64-18.45,108.65C56.51,176.52,76.62,184,110.4,161.76Z"/><ellipse cx="138.17" cy="126.5" rx="7.91" ry="2.6"/><path class="cls-6" d="M160.63,173.37s7.83-1.11,13.93-1.65,4.87,1.81,4.87,1.81S177.59,178.16,160.63,173.37Z"/><path class="cls-7" d="M113.58,254.82s16.19,5,21.9,8.65a56.23,56.23,0,0,1,19.06-6.62s6.18,9.41,20.68,9.41S201.44,300,201.44,300H75.09s3.34-32,15.34-35.25,15.06-2.68,15.06-2.68S110.79,261.79,113.58,254.82Z"/></g></svg>
