<svg id="_5" data-name="5" xmlns="http://www.w3.org/2000/svg" width="300" height="300" viewBox="0 0 300 300"><defs><style>.cls-1{fill:#f7c394;}.cls-2{fill:#fc9;}.cls-3{fill:#efbb60;}.cls-4{fill:#d8a356;}.cls-5{fill:#595959;}</style></defs><title>Artboard 5</title><path class="cls-1" d="M169.41,260.25s-10.77,17.83,1.47,39.75H127.21s15.21-17.49,4.76-36.81Z"/><path class="cls-2" d="M82.52,122.35s-1.16,74.56,26.84,126.88,67.59,13.07,74.18,4.93c5.14-6.34,33.92-22,39.31-118C224.57,105.43,81.31,101.45,82.52,122.35Z"/><ellipse cx="104.51" cy="160.16" rx="9.67" ry="3.16"/><ellipse cx="181.47" cy="158.44" rx="9.67" ry="3.16"/><path class="cls-3" d="M143.54,173.23a47.34,47.34,0,0,0-15.91,25.49c-4,16.7,21.63,4.07,21.63,4.07Z"/><path class="cls-4" d="M116,243.26s9.69-4.49,13.67-6c0,0,5.47,3.64,10.94,0,0,0,11.88,2.14,14.88,3.85C155.44,241.12,135.34,246.05,116,243.26Z"/><path class="cls-5" d="M158.86,27.79S80.38,27.18,77,127.09c0,0-2.12,17.06,13.15,7.31s71.28-8.53,129,20.1c0,0,14.85,6.1,10.61-15.84S225,33.88,158.86,27.79Z"/></svg>
