<svg id="Layer_1" data-name="Layer 1" xmlns="http://www.w3.org/2000/svg" xmlns:xlink="http://www.w3.org/1999/xlink" width="1600" height="900" viewBox="0 0 1600 900">
  <defs>
    <style>
      .cls-1 {
        fill: none;
      }

      .cls-2 {
        clip-path: url(#clip-path);
      }

      .cls-3 {
        fill: url(#linear-gradient);
      }

      .cls-4 {
        fill: url(#radial-gradient);
      }

      .cls-5 {
        fill: #dc913a;
      }

      .cls-6 {
        fill: #b4ecf9;
      }

      .cls-7 {
        fill: url(#linear-gradient-2);
      }

      .cls-8 {
        fill: url(#linear-gradient-3);
      }

      .cls-9 {
        fill: url(#linear-gradient-4);
      }

      .cls-10 {
        fill: url(#linear-gradient-6);
      }

      .cls-11 {
        fill: url(#linear-gradient-7);
      }

      .cls-12 {
        fill: url(#linear-gradient-9);
      }

      .cls-13 {
        fill: url(#linear-gradient-10);
      }

      .cls-14 {
        fill: url(#linear-gradient-12);
      }

      .cls-15 {
        fill: url(#linear-gradient-13);
      }

      .cls-16 {
        fill: url(#linear-gradient-15);
      }

      .cls-17 {
        fill: url(#linear-gradient-16);
      }

      .cls-18 {
        fill: url(#linear-gradient-18);
      }

      .cls-19 {
        fill: url(#linear-gradient-19);
      }

      .cls-20 {
        fill: url(#linear-gradient-21);
      }

      .cls-21 {
        fill: url(#linear-gradient-22);
      }

      .cls-22 {
        fill: url(#linear-gradient-24);
      }

      .cls-23 {
        fill: url(#linear-gradient-25);
      }

      .cls-24 {
        fill: url(#linear-gradient-27);
      }

      .cls-25 {
        fill: url(#linear-gradient-28);
      }

      .cls-26 {
        fill: url(#linear-gradient-30);
      }

      .cls-27 {
        fill: url(#linear-gradient-31);
      }

      .cls-28 {
        fill: url(#linear-gradient-33);
      }

      .cls-29 {
        fill: url(#linear-gradient-34);
      }

      .cls-30 {
        fill: url(#linear-gradient-36);
      }

      .cls-31 {
        fill: url(#linear-gradient-37);
      }

      .cls-32 {
        fill: url(#linear-gradient-38);
      }

      .cls-33 {
        fill: url(#linear-gradient-39);
      }

      .cls-34 {
        fill: url(#linear-gradient-40);
      }

      .cls-35 {
        fill: #724f2b;
      }
    </style>
    <clipPath id="clip-path">
      <rect class="cls-1" width="1600" height="900"/>
    </clipPath>
    <linearGradient id="linear-gradient" x1="800" x2="800" y2="900" gradientUnits="userSpaceOnUse">
      <stop offset="0" stop-color="#009de0"/>
      <stop offset="0.01" stop-color="#049ee0"/>
      <stop offset="0.06" stop-color="#28a9e1"/>
      <stop offset="0.12" stop-color="#48b2e2"/>
      <stop offset="0.18" stop-color="#63bae3"/>
      <stop offset="0.25" stop-color="#7ac1e3"/>
      <stop offset="0.34" stop-color="#8ac6e3"/>
      <stop offset="0.45" stop-color="#96c9e4"/>
      <stop offset="0.59" stop-color="#9dcbe4"/>
      <stop offset="1" stop-color="#9fcce4"/>
    </linearGradient>
    <radialGradient id="radial-gradient" cx="387.23" cy="409.88" r="295.5" gradientUnits="userSpaceOnUse">
      <stop offset="0" stop-color="#ff7655"/>
      <stop offset="0.4" stop-color="#fe7854"/>
      <stop offset="0.54" stop-color="#fb7f52"/>
      <stop offset="0.64" stop-color="#f78a4e"/>
      <stop offset="0.72" stop-color="#f09b49"/>
      <stop offset="0.79" stop-color="#e7b142"/>
      <stop offset="0.84" stop-color="#ebbc36"/>
      <stop offset="0.94" stop-color="#f7d817"/>
      <stop offset="1" stop-color="#ffed00"/>
    </radialGradient>
    <linearGradient id="linear-gradient-2" x1="670.76" y1="245.68" x2="670.76" y2="131.44" gradientUnits="userSpaceOnUse">
      <stop offset="0" stop-color="#ffda6a"/>
      <stop offset="0.14" stop-color="#ffc6ed"/>
      <stop offset="0.21" stop-color="#ffdaf3"/>
      <stop offset="0.3" stop-color="#ffebf9"/>
      <stop offset="0.41" stop-color="#fff6fc"/>
      <stop offset="0.56" stop-color="#fffdfe"/>
      <stop offset="1" stop-color="#fff"/>
    </linearGradient>
    <linearGradient id="linear-gradient-3" x1="969.08" y1="291.49" x2="969.08" y2="124.72" xlink:href="#linear-gradient-2"/>
    <linearGradient id="linear-gradient-4" x1="488.64" y1="720.19" x2="488.64" y2="669.87" gradientUnits="userSpaceOnUse">
      <stop offset="0" stop-color="#e9ebec"/>
      <stop offset="1" stop-color="#fff"/>
    </linearGradient>
    <linearGradient id="linear-gradient-6" x1="488.64" y1="703.58" x2="488.64" y2="688.48" xlink:href="#linear-gradient-4"/>
    <linearGradient id="linear-gradient-7" x1="437.55" y1="662.62" x2="437.55" y2="612.3" xlink:href="#linear-gradient-4"/>
    <linearGradient id="linear-gradient-9" x1="437.55" y1="646.01" x2="437.55" y2="630.91" xlink:href="#linear-gradient-4"/>
    <linearGradient id="linear-gradient-10" x1="1012.15" y1="777.46" x2="1012.15" y2="727.14" xlink:href="#linear-gradient-4"/>
    <linearGradient id="linear-gradient-12" x1="1012.15" y1="760.85" x2="1012.15" y2="745.75" xlink:href="#linear-gradient-4"/>
    <linearGradient id="linear-gradient-13" x1="493.99" y1="834.97" x2="493.99" y2="774.01" xlink:href="#linear-gradient-4"/>
    <linearGradient id="linear-gradient-15" x1="493.99" y1="814.85" x2="493.99" y2="796.55" xlink:href="#linear-gradient-4"/>
    <linearGradient id="linear-gradient-16" x1="744.63" y1="639.7" x2="744.63" y2="578.74" xlink:href="#linear-gradient-4"/>
    <linearGradient id="linear-gradient-18" x1="744.63" y1="619.58" x2="744.63" y2="601.29" xlink:href="#linear-gradient-4"/>
    <linearGradient id="linear-gradient-19" x1="986.16" y1="651.08" x2="986.16" y2="590.12" xlink:href="#linear-gradient-4"/>
    <linearGradient id="linear-gradient-21" x1="986.16" y1="630.96" x2="986.16" y2="612.67" xlink:href="#linear-gradient-4"/>
    <linearGradient id="linear-gradient-22" x1="562.78" y1="894.45" x2="562.78" y2="833.49" xlink:href="#linear-gradient-4"/>
    <linearGradient id="linear-gradient-24" x1="562.78" y1="874.33" x2="562.78" y2="856.04" xlink:href="#linear-gradient-4"/>
    <linearGradient id="linear-gradient-25" x1="603.1" y1="645.39" x2="603.1" y2="584.43" xlink:href="#linear-gradient-4"/>
    <linearGradient id="linear-gradient-27" x1="603.1" y1="625.27" x2="603.1" y2="606.98" xlink:href="#linear-gradient-4"/>
    <linearGradient id="linear-gradient-28" x1="1150.54" y1="798" x2="1150.54" y2="737.04" xlink:href="#linear-gradient-4"/>
    <linearGradient id="linear-gradient-30" x1="1150.54" y1="777.88" x2="1150.54" y2="759.58" xlink:href="#linear-gradient-4"/>
    <linearGradient id="linear-gradient-31" x1="1120.09" y1="710.41" x2="1120.09" y2="649.45" xlink:href="#linear-gradient-4"/>
    <linearGradient id="linear-gradient-33" x1="1120.09" y1="690.29" x2="1120.09" y2="671.99" xlink:href="#linear-gradient-4"/>
    <linearGradient id="linear-gradient-34" x1="1044.72" y1="866.95" x2="1044.72" y2="793.3" xlink:href="#linear-gradient-4"/>
    <linearGradient id="linear-gradient-36" x1="1044.72" y1="842.64" x2="1044.72" y2="820.54" xlink:href="#linear-gradient-4"/>
    <linearGradient id="linear-gradient-37" x1="146.15" y1="850.33" x2="146.15" y2="664.59" xlink:href="#linear-gradient-4"/>
    <linearGradient id="linear-gradient-38" x1="324.54" y1="863.94" x2="324.54" y2="596.65" xlink:href="#linear-gradient-4"/>
    <linearGradient id="linear-gradient-39" x1="-975.58" y1="864.22" x2="-975.58" y2="678.49" gradientTransform="matrix(-1, 0, 0, 1, 501.51, 0)" xlink:href="#linear-gradient-4"/>
    <linearGradient id="linear-gradient-40" x1="-797.18" y1="877.84" x2="-797.18" y2="610.54" gradientTransform="matrix(-1, 0, 0, 1, 501.51, 0)" xlink:href="#linear-gradient-4"/>
  </defs>
  <title>baggrund_1</title>
  <g class="cls-2">
    <rect class="cls-3" width="1600" height="900"/>
    <circle class="cls-4" cx="387.23" cy="409.88" r="295.5"/>
    <ellipse class="cls-5" cx="805.63" cy="610.54" rx="868.04" ry="141.09"/>
    <path class="cls-6" d="M1622.91,783.23c32.85-18.38,50.76-38.18,50.76-58.82,0-96.21-388.64-174.19-868-174.19s-868,78-868,174.19c0,20.64,17.91,40.44,50.76,58.82-32.85,18.37-50.76,38.18-50.76,58.82,0,96.2,388.63,174.19,868,174.19s868-78,868-174.19C1673.67,821.41,1655.76,801.6,1622.91,783.23Z"/>
    <path class="cls-7" d="M851.79,198.93c-3.36-23.78-28.37-41.25-53.23-41.25a46.06,46.06,0,0,0-22.46,5.79c-8.59-18.86-28.12-32-50.83-32-23,0-42.78,13.54-51.18,32.83a33.68,33.68,0,0,0-16.79-4.44A33.12,33.12,0,0,0,628,177.05a46,46,0,0,0-79,6,27.26,27.26,0,0,0-14.75-4.28c-11.71,0-28.38,6.45-35.52,12.41-12.24,10.23-19.72,53.4,15.91,53.63,14.87.1,240,1.93,324.42,0C855.74,244.42,853.32,209.8,851.79,198.93Z"/>
    <path class="cls-8" d="M1222.44,222.59c-4.7-34.48-39.7-59.82-74.5-59.82a62.7,62.7,0,0,0-31.44,8.4,77.71,77.71,0,0,0-142.78,1.15,46.16,46.16,0,0,0-64.51,18.54,63.34,63.34,0,0,0-110.51,8.68,37.25,37.25,0,0,0-20.64-6.21c-16.4,0-39.72,9.36-49.72,18-17.13,14.82-27.6,77.43,22.27,77.76,20.81.14,337.83,5.3,454.09,0C1228.12,288,1224.59,238.35,1222.44,222.59Z"/>
    <g>
      <path class="cls-9" d="M488.64,688.48c12.13,0,22.32,2.43,25.14,5.7a25.15,25.15,0,0,0-50.27,0C466.33,690.91,476.51,688.48,488.64,688.48Z"/>
      <path class="cls-9" d="M488.64,703.58c11.91,0,21.94-2.34,25-5.53a27.36,27.36,0,0,0,.18-3c0-.28,0-.57,0-.85-2.82-3.27-13-5.7-25.14-5.7s-22.31,2.43-25.13,5.7c0,.28,0,.57,0,.85a25.11,25.11,0,0,0,.19,3C466.71,701.24,476.73,703.58,488.64,703.58Z"/>
      <path class="cls-10" d="M488.64,703.58c11.91,0,21.94-2.34,25-5.53a27.36,27.36,0,0,0,.18-3c0-.28,0-.57,0-.85-2.82-3.27-13-5.7-25.14-5.7s-22.31,2.43-25.13,5.7c0,.28,0,.57,0,.85a25.11,25.11,0,0,0,.19,3C466.71,701.24,476.73,703.58,488.64,703.58Z"/>
    </g>
    <g>
      <path class="cls-11" d="M437.55,630.91c12.13,0,22.31,2.43,25.13,5.71a25.15,25.15,0,0,0-50.27,0C415.23,633.34,425.42,630.91,437.55,630.91Z"/>
      <path class="cls-11" d="M437.55,646c11.91,0,21.93-2.34,25-5.53a25.11,25.11,0,0,0,.19-3c0-.28,0-.56,0-.84-2.82-3.28-13-5.71-25.13-5.71s-22.32,2.43-25.14,5.71c0,.28,0,.56,0,.84a27.36,27.36,0,0,0,.18,3C415.61,643.67,425.64,646,437.55,646Z"/>
      <path class="cls-12" d="M437.55,646c11.91,0,21.93-2.34,25-5.53a25.11,25.11,0,0,0,.19-3c0-.28,0-.56,0-.84-2.82-3.28-13-5.71-25.13-5.71s-22.32,2.43-25.14,5.71c0,.28,0,.56,0,.84a27.36,27.36,0,0,0,.18,3C415.61,643.67,425.64,646,437.55,646Z"/>
    </g>
    <g>
      <path class="cls-13" d="M1012.15,745.75c12.13,0,22.31,2.43,25.13,5.71a25.15,25.15,0,0,0-50.27,0C989.83,748.18,1000,745.75,1012.15,745.75Z"/>
      <path class="cls-13" d="M1012.15,760.85c11.91,0,21.93-2.34,25-5.53a25,25,0,0,0,.19-3c0-.28,0-.56,0-.84-2.82-3.28-13-5.71-25.13-5.71s-22.32,2.43-25.14,5.71c0,.28,0,.56,0,.84a27.21,27.21,0,0,0,.18,3C990.21,758.51,1000.24,760.85,1012.15,760.85Z"/>
      <path class="cls-14" d="M1012.15,760.85c11.91,0,21.93-2.34,25-5.53a25,25,0,0,0,.19-3c0-.28,0-.56,0-.84-2.82-3.28-13-5.71-25.13-5.71s-22.32,2.43-25.14,5.71c0,.28,0,.56,0,.84a27.21,27.21,0,0,0,.18,3C990.21,758.51,1000.24,760.85,1012.15,760.85Z"/>
    </g>
    <g>
      <path class="cls-15" d="M494,796.55c14.69,0,27,3,30.45,6.92a30.47,30.47,0,0,0-60.91,0C467,799.5,479.29,796.55,494,796.55Z"/>
      <path class="cls-15" d="M494,814.85c14.43,0,26.57-2.84,30.25-6.7a31.54,31.54,0,0,0,.23-3.66c0-.34,0-.68,0-1-3.42-4-15.76-6.92-30.45-6.92s-27,3-30.46,6.92c0,.34,0,.68,0,1a31.55,31.55,0,0,0,.22,3.66C467.41,812,479.56,814.85,494,814.85Z"/>
      <path class="cls-16" d="M494,814.85c14.43,0,26.57-2.84,30.25-6.7a31.54,31.54,0,0,0,.23-3.66c0-.34,0-.68,0-1-3.42-4-15.76-6.92-30.45-6.92s-27,3-30.46,6.92c0,.34,0,.68,0,1a31.55,31.55,0,0,0,.22,3.66C467.41,812,479.56,814.85,494,814.85Z"/>
    </g>
    <g>
      <path class="cls-17" d="M744.63,601.29c14.7,0,27,2.94,30.46,6.91a30.47,30.47,0,0,0-60.91,0C717.6,604.23,729.93,601.29,744.63,601.29Z"/>
      <path class="cls-17" d="M744.63,619.58c14.43,0,26.58-2.84,30.26-6.7a31.55,31.55,0,0,0,.22-3.66c0-.34,0-.68,0-1-3.43-4-15.76-6.91-30.46-6.91s-27,2.94-30.45,6.91c0,.34,0,.68,0,1a29.48,29.48,0,0,0,.23,3.66C718.05,616.74,730.2,619.58,744.63,619.58Z"/>
      <path class="cls-18" d="M744.63,619.58c14.43,0,26.58-2.84,30.26-6.7a31.55,31.55,0,0,0,.22-3.66c0-.34,0-.68,0-1-3.43-4-15.76-6.91-30.46-6.91s-27,2.94-30.45,6.91c0,.34,0,.68,0,1a29.48,29.48,0,0,0,.23,3.66C718.05,616.74,730.2,619.58,744.63,619.58Z"/>
    </g>
    <g>
      <path class="cls-19" d="M986.16,612.67c14.7,0,27,2.94,30.45,6.91a30.47,30.47,0,0,0-60.9,0C959.13,615.61,971.46,612.67,986.16,612.67Z"/>
      <path class="cls-19" d="M986.16,631c14.43,0,26.58-2.84,30.25-6.7a29.48,29.48,0,0,0,.23-3.66q0-.51,0-1c-3.42-4-15.75-6.91-30.45-6.91s-27,2.94-30.45,6.91q0,.51,0,1a29.48,29.48,0,0,0,.23,3.66C959.58,628.12,971.73,631,986.16,631Z"/>
      <path class="cls-20" d="M986.16,631c14.43,0,26.58-2.84,30.25-6.7a29.48,29.48,0,0,0,.23-3.66q0-.51,0-1c-3.42-4-15.75-6.91-30.45-6.91s-27,2.94-30.45,6.91q0,.51,0,1a29.48,29.48,0,0,0,.23,3.66C959.58,628.12,971.73,631,986.16,631Z"/>
    </g>
    <g>
      <path class="cls-21" d="M562.78,856c14.69,0,27,2.94,30.45,6.91a30.47,30.47,0,0,0-60.91,0C535.74,859,548.08,856,562.78,856Z"/>
      <path class="cls-21" d="M562.78,874.33c14.43,0,26.57-2.83,30.25-6.7a31.54,31.54,0,0,0,.23-3.66c0-.34,0-.68,0-1-3.42-4-15.76-6.91-30.45-6.91s-27,2.94-30.46,6.91c0,.34,0,.68,0,1a31.55,31.55,0,0,0,.22,3.66C536.2,871.5,548.35,874.33,562.78,874.33Z"/>
      <path class="cls-22" d="M562.78,874.33c14.43,0,26.57-2.83,30.25-6.7a31.54,31.54,0,0,0,.23-3.66c0-.34,0-.68,0-1-3.42-4-15.76-6.91-30.45-6.91s-27,2.94-30.46,6.91c0,.34,0,.68,0,1a31.55,31.55,0,0,0,.22,3.66C536.2,871.5,548.35,874.33,562.78,874.33Z"/>
    </g>
    <g>
      <path class="cls-23" d="M603.1,607c14.7,0,27,2.94,30.45,6.91a30.47,30.47,0,0,0-60.91,0C576.07,609.92,588.4,607,603.1,607Z"/>
      <path class="cls-23" d="M603.1,625.27c14.43,0,26.57-2.84,30.25-6.7a29.48,29.48,0,0,0,.23-3.66c0-.34,0-.68,0-1-3.42-4-15.75-6.91-30.45-6.91s-27,2.94-30.46,6.91c0,.34,0,.68,0,1a31.55,31.55,0,0,0,.22,3.66C576.52,622.43,588.67,625.27,603.1,625.27Z"/>
      <path class="cls-24" d="M603.1,625.27c14.43,0,26.57-2.84,30.25-6.7a29.48,29.48,0,0,0,.23-3.66c0-.34,0-.68,0-1-3.42-4-15.75-6.91-30.45-6.91s-27,2.94-30.46,6.91c0,.34,0,.68,0,1a31.55,31.55,0,0,0,.22,3.66C576.52,622.43,588.67,625.27,603.1,625.27Z"/>
    </g>
    <g>
      <path class="cls-25" d="M1150.54,759.58c14.7,0,27,2.95,30.46,6.92a30.47,30.47,0,0,0-60.91,0C1123.51,762.53,1135.85,759.58,1150.54,759.58Z"/>
      <path class="cls-25" d="M1150.54,777.88c14.43,0,26.58-2.84,30.26-6.7a31.55,31.55,0,0,0,.22-3.66c0-.34,0-.68,0-1-3.43-4-15.76-6.92-30.46-6.92s-27,2.95-30.45,6.92c0,.34,0,.68,0,1a29.48,29.48,0,0,0,.23,3.66C1124,775,1136.11,777.88,1150.54,777.88Z"/>
      <path class="cls-26" d="M1150.54,777.88c14.43,0,26.58-2.84,30.26-6.7a31.55,31.55,0,0,0,.22-3.66c0-.34,0-.68,0-1-3.43-4-15.76-6.92-30.46-6.92s-27,2.95-30.45,6.92c0,.34,0,.68,0,1a29.48,29.48,0,0,0,.23,3.66C1124,775,1136.11,777.88,1150.54,777.88Z"/>
    </g>
    <g>
      <path class="cls-27" d="M1120.09,672c14.7,0,27,3,30.45,6.92a30.47,30.47,0,0,0-60.91,0C1093.06,674.94,1105.39,672,1120.09,672Z"/>
      <path class="cls-27" d="M1120.09,690.29c14.43,0,26.57-2.84,30.25-6.7a29.48,29.48,0,0,0,.23-3.66c0-.34,0-.68,0-1-3.42-4-15.75-6.92-30.45-6.92s-27,3-30.46,6.92c0,.34,0,.68,0,1a31.55,31.55,0,0,0,.22,3.66C1093.51,687.45,1105.66,690.29,1120.09,690.29Z"/>
      <path class="cls-28" d="M1120.09,690.29c14.43,0,26.57-2.84,30.25-6.7a29.48,29.48,0,0,0,.23-3.66c0-.34,0-.68,0-1-3.42-4-15.75-6.92-30.45-6.92s-27,3-30.46,6.92c0,.34,0,.68,0,1a31.55,31.55,0,0,0,.22,3.66C1093.51,687.45,1105.66,690.29,1120.09,690.29Z"/>
    </g>
    <g>
      <path class="cls-29" d="M1044.72,820.54c17.76,0,32.66,3.55,36.79,8.35a36.81,36.81,0,0,0-73.58,0C1012.07,824.09,1027,820.54,1044.72,820.54Z"/>
      <path class="cls-29" d="M1044.72,842.64c17.43,0,32.11-3.43,36.55-8.09a35.92,35.92,0,0,0,.28-4.42c0-.42,0-.83,0-1.24-4.13-4.8-19-8.35-36.79-8.35s-32.65,3.55-36.79,8.35c0,.41,0,.82,0,1.24a38,38,0,0,0,.27,4.42C1012.62,839.21,1027.29,842.64,1044.72,842.64Z"/>
      <path class="cls-30" d="M1044.72,842.64c17.43,0,32.11-3.43,36.55-8.09a35.92,35.92,0,0,0,.28-4.42c0-.42,0-.83,0-1.24-4.13-4.8-19-8.35-36.79-8.35s-32.65,3.55-36.79,8.35c0,.41,0,.82,0,1.24a38,38,0,0,0,.27,4.42C1012.62,839.21,1027.29,842.64,1044.72,842.64Z"/>
    </g>
    <path class="cls-31" d="M210.14,664.59H130.79a6.19,6.19,0,0,0,0,12.38h15.15a6.2,6.2,0,0,1,0,12.39H103a6.19,6.19,0,0,0,0,12.38h21.1a6.19,6.19,0,1,1,0,12.38H89.31a6.19,6.19,0,1,0,0,12.38h23.14a6.2,6.2,0,0,1,0,12.39H100.07a6.19,6.19,0,1,0,0,12.38h25.35a6.19,6.19,0,1,1,0,12.38H92.92a6.19,6.19,0,1,0,0,12.38H105.3a6.19,6.19,0,0,1,0,12.38H82.15a6.2,6.2,0,0,0,0,12.39h34.78a6.19,6.19,0,0,1,0,12.38H95.83a6.19,6.19,0,1,0,0,12.38h43a6.19,6.19,0,0,1,0,12.38H123.64a6.2,6.2,0,1,0,0,12.39H203a6.2,6.2,0,1,0,0-12.39h-27.8a6.19,6.19,0,1,1,0-12.38,6.19,6.19,0,1,0,0-12.38H160.27a6.19,6.19,0,0,1,0-12.38h1.23a6.2,6.2,0,0,0,0-12.39H147.89a6.19,6.19,0,0,1,0-12.38h24.38a6.19,6.19,0,1,0,0-12.38H157.64a6.19,6.19,0,1,1,0-12.38h21.78a6.19,6.19,0,1,0,0-12.38H155a6.2,6.2,0,0,1,0-12.39h13.61a6.19,6.19,0,1,0,0-12.38h-1.23a6.19,6.19,0,1,1,0-12.38h14.91a6.19,6.19,0,0,0,0-12.38,6.2,6.2,0,0,1,0-12.39h27.81a6.19,6.19,0,1,0,0-12.38Z"/>
    <path class="cls-32" d="M416.63,596.65H302.44a8.91,8.91,0,0,0,0,17.82h21.8a8.91,8.91,0,0,1,0,17.82H262.43a8.91,8.91,0,1,0,0,17.82h30.36a8.91,8.91,0,1,1,0,17.82H242.74a8.91,8.91,0,1,0,0,17.82h33.32a8.91,8.91,0,1,1,0,17.81H258.24a8.91,8.91,0,1,0,0,17.82h36.47a8.91,8.91,0,0,1,0,17.82H247.94a8.91,8.91,0,0,0,0,17.82h17.82a8.91,8.91,0,0,1,0,17.82H232.45a8.91,8.91,0,0,0,0,17.82H282.5a8.91,8.91,0,1,1,0,17.82H252.13a8.91,8.91,0,0,0,0,17.82H314a8.91,8.91,0,1,1,0,17.82h-21.8a8.91,8.91,0,1,0,0,17.82H406.34a8.91,8.91,0,0,0,0-17.82h-40a8.91,8.91,0,1,1,0-17.82,8.91,8.91,0,1,0,0-17.82H344.87a8.91,8.91,0,0,1,0-17.82h1.77a8.91,8.91,0,1,0,0-17.82H327.05a8.91,8.91,0,0,1,0-17.82h35.09a8.91,8.91,0,1,0,0-17.82H341.08a8.91,8.91,0,1,1,0-17.82h31.35a8.91,8.91,0,0,0,0-17.82H337.34a8.91,8.91,0,1,1,0-17.81h19.6a8.91,8.91,0,0,0,0-17.82h-1.78a8.91,8.91,0,0,1,0-17.82h21.46a8.91,8.91,0,0,0,0-17.82,8.91,8.91,0,0,1,0-17.82h40a8.91,8.91,0,1,0,0-17.82Z"/>
    <path class="cls-33" d="M1413.1,678.49h79.34a6.19,6.19,0,1,1,0,12.38H1477.3a6.19,6.19,0,1,0,0,12.38h43a6.19,6.19,0,1,1,0,12.38h-21.1a6.2,6.2,0,0,0,0,12.39h34.78a6.19,6.19,0,0,1,0,12.38h-23.15a6.19,6.19,0,0,0,0,12.38h12.38a6.19,6.19,0,0,1,0,12.38h-25.35a6.19,6.19,0,0,0,0,12.38h32.5a6.2,6.2,0,0,1,0,12.39h-12.38a6.19,6.19,0,0,0,0,12.38h23.15a6.19,6.19,0,0,1,0,12.38H1506.3a6.19,6.19,0,0,0,0,12.38h21.1a6.2,6.2,0,0,1,0,12.39h-43a6.19,6.19,0,0,0,0,12.38h15.15a6.19,6.19,0,1,1,0,12.38h-79.35a6.19,6.19,0,0,1,0-12.38h27.8a6.19,6.19,0,1,0,0-12.38,6.2,6.2,0,0,1,0-12.39H1463a6.19,6.19,0,1,0,0-12.38h-1.23a6.19,6.19,0,0,1,0-12.38h13.61a6.19,6.19,0,1,0,0-12.38H1451a6.2,6.2,0,0,1,0-12.39h14.64a6.19,6.19,0,1,0,0-12.38h-21.79a6.19,6.19,0,0,1,0-12.38h24.38a6.19,6.19,0,1,0,0-12.38h-13.61a6.19,6.19,0,1,1,0-12.38h1.23a6.2,6.2,0,0,0,0-12.39H1440.9a6.19,6.19,0,0,1,0-12.38,6.19,6.19,0,0,0,0-12.38h-27.8a6.19,6.19,0,1,1,0-12.38Z"/>
    <path class="cls-34" d="M1206.6,610.54h114.19a8.91,8.91,0,1,1,0,17.82H1299a8.91,8.91,0,0,0,0,17.82h61.82a8.91,8.91,0,1,1,0,17.82h-30.37a8.91,8.91,0,0,0,0,17.82h50a8.91,8.91,0,1,1,0,17.82h-33.31a8.91,8.91,0,0,0,0,17.82H1365a8.91,8.91,0,1,1,0,17.82h-36.48a8.91,8.91,0,0,0,0,17.82h46.77a8.91,8.91,0,1,1,0,17.82h-17.82a8.91,8.91,0,0,0,0,17.82h33.31a8.91,8.91,0,1,1,0,17.82h-50a8.91,8.91,0,0,0,0,17.82h30.37a8.91,8.91,0,1,1,0,17.82h-61.82a8.91,8.91,0,0,0,0,17.82h21.8a8.91,8.91,0,1,1,0,17.82H1216.89a8.91,8.91,0,0,1,0-17.82h40a8.91,8.91,0,0,0,0-17.82,8.91,8.91,0,0,1,0-17.82h21.45a8.91,8.91,0,1,0,0-17.82h-1.77a8.91,8.91,0,1,1,0-17.82h19.59a8.91,8.91,0,0,0,0-17.82h-35.09a8.91,8.91,0,1,1,0-17.82h21.06a8.91,8.91,0,0,0,0-17.82H1250.8a8.91,8.91,0,1,1,0-17.82h35.09a8.91,8.91,0,0,0,0-17.82H1266.3a8.91,8.91,0,1,1,0-17.82h1.77a8.91,8.91,0,1,0,0-17.82h-21.46a8.91,8.91,0,1,1,0-17.82,8.91,8.91,0,1,0,0-17.82h-40a8.91,8.91,0,1,1,0-17.82Z"/>
    <path class="cls-35" d="M1659.82,580.46c-2.41-2-5.09-4-8-6q-16.68-11.32-44.07-22l-1-.36c-2.29-.89-4.65-1.76-7-2.64q-17.79-6.46-39.3-12.58-3.95-1.12-8-2.23-17.25-4.69-36.68-9.16-3.94-.92-8-1.81-15.69-3.5-32.73-6.83l-8-1.54q-14.28-2.71-29.44-5.33l-8-1.35c-3.18-.54-6.38-1.07-9.62-1.59q-11.38-1.86-23.11-3.63l-8-1.19q-18.6-2.74-38-5.3l-8-1q-18.63-2.38-37.93-4.6l-8-.91q-24.67-2.76-50.35-5.23l-8-.75q-27.76-2.61-56.6-4.86l-8-.62q-25-1.9-50.7-3.55l-8-.5q-21.1-1.31-42.64-2.43l-8-.41q-27.36-1.39-55.31-2.47l-8-.31q-27.41-1-55.3-1.75l-8-.21q-21.21-.53-42.65-.88l-8-.12q-21.21-.33-42.64-.48l-8-.05q-15.56-.09-31.2-.09-12.66,0-25.26.06l-8,0q-31.18.2-61.95.73l-8,.15q-31.14.6-61.75,1.55l-8,.25q-33.62,1.11-66.46,2.62l-8,.38q-32.5,1.56-64.11,3.53l-8,.51q-25.09,1.6-49.54,3.47l-8,.62q-26.12,2.06-51.41,4.39c-2.68.25-5.34.49-8,.75q-24.87,2.35-48.83,5l-8,.89q-21.6,2.43-42.38,5.08l-8,1q-24.39,3.18-47.54,6.68l-8,1.23q-7.68,1.19-15.23,2.42-11.21,1.81-22,3.7l-8,1.41q-20.77,3.74-39.79,7.66c-2.7.56-5.36,1.12-8,1.69q-19.6,4.18-37.21,8.59c-2.7.68-5.37,1.35-8,2q-21.51,5.58-39.79,11.51c-2.72.88-5.39,1.76-8,2.66q-8.4,2.86-16,5.8-13,5-23.6,10.14-4.18,2-8,4.1c-26,14-39.18,28.9-39.18,44.41s13.16,30.38,39.18,44.41q3.83,2.06,8,4.09v11q5-3.07,10.63-6.1c1.48-.8,3-1.61,4.55-2.41s3.1-1.59,4.7-2.38q-10.92-4.46-19.88-9V571.25A283.5,283.5,0,0,1,7.15,559.64q6.33-2.43,13.18-4.81v95.52c2.61-1.11,5.28-2.22,8-3.31V552.13q18.21-6,39.79-11.66v92.29q3.94-1.28,8-2.53V538.41q17.58-4.42,37.21-8.65v89.82q4-1.05,8-2.09V528.07q19-4,39.79-7.71V608c2.65-.59,5.31-1.17,8-1.75v-87.3q11.38-2,23.27-3.93,6.9-1.12,13.94-2.21v85.86l8-1.51V511.57q23.13-3.51,47.54-6.71v84l8-1.27v-83.8q20.78-2.67,42.38-5.1v82.63l8-1.1V497.83q23.94-2.64,48.83-5V574.1c2.66-.32,5.32-.62,8-.93v-81.1q25.28-2.34,51.41-4.39v80.07l8-.76V487.06q24.66-1.89,50-3.52l4.6,78.75,8-.62L494.48,483q31.59-2,64.12-3.53l4.55,77.88,8-.46-4.55-77.8q32.6-1.51,66-2.6V554l8-.31V476.27q30.58-.94,61.75-1.55v77l8-.19v-77q30.75-.54,61.95-.73v76.79l8,0V473.8q12.6-.06,25.26-.06,15.65,0,31.2.09v76.79l8,.06v-76.8q21.42.15,42.64.48v76.91l8,.16V474.48q21.45.36,42.65.89v77.15l8,.26V475.57q27.88.74,55.3,1.76V555l8,.38v-77.7q27.95,1.1,55.31,2.48V558.4q4,.24,8,.51V480.52q21.52,1.13,42.64,2.43v79l8,.62V483.46Q1149,485.1,1174,487v79.92l8,.76V487.63q28.82,2.26,56.6,4.87v81.19l8,.94V493.26q25.67,2.48,50.35,5.24v82.58l8,1.12V499.41q19.3,2.22,37.93,4.62v83.85l8,1.28V505.07q19.4,2.56,38,5.31V595.7c2.68.48,5.35,1,8,1.47V511.58q11.06,1.68,21.83,3.43,5.5.9,10.9,1.81v86.8l8,1.68V518.18q15.17,2.63,29.44,5.35V611.9l8,1.91V525.08q17.06,3.36,32.73,6.87v90.33c2.7.74,5.36,1.49,8,2.24V533.78q19.45,4.5,36.68,9.24v92.87c2.71.91,5.37,1.83,8,2.76V545.28q21.57,6.19,39.3,12.78v96.23q4.1,1.86,8,3.75V561.13c19,7.54,33.73,15.31,44.07,23.14v53.12c-9.83,7.44-23.66,14.82-41.29,22,1.59.79,3.16,1.59,4.7,2.38s3.06,1.61,4.55,2.41a194.73,194.73,0,0,0,32-17c2.91-2,5.59-4,8-6q17.73-14.7,17.76-30.37T1659.82,580.46ZM-27.32,646.12c-20.52-11.69-31.18-23.66-31.18-35.29s10.66-23.61,31.18-35.3Zm1687.14-54.91c6.46,6.57,9.76,13.15,9.76,19.62s-3.3,13-9.76,19.62Z"/>
  </g>
</svg>
