<?xml version="1.0" encoding="utf-8"?>
<!-- Generator: Adobe Illustrator 22.0.0, SVG Export Plug-In . SVG Version: 6.00 Build 0)  -->
<svg version="1.1" id="Layer_1" xmlns="http://www.w3.org/2000/svg" xmlns:xlink="http://www.w3.org/1999/xlink" x="0px" y="0px"
	 viewBox="0 0 1600 900" style="enable-background:new 0 0 1600 900;" xml:space="preserve">
<style type="text/css">
	.st0{clip-path:url(#SVGID_2_);}
	.st1{clip-path:url(#SVGID_4_);}
	.st2{fill:url(#SVGID_5_);}
	.st3{fill:url(#SVGID_6_);}
	.st4{fill:#DC913A;}
	.st5{fill:#B4ECF9;}
	.st6{fill:url(#SVGID_7_);}
	.st7{fill:url(#SVGID_8_);}
	.st8{fill:url(#SVGID_9_);}
	.st9{fill:url(#SVGID_10_);}
	.st10{fill:#724F2B;}
	.st11{fill:#E9ECED;}
	.st12{fill:#202532;}
	.st13{display:none;fill:#E9ECED;}
</style>
<g>
	<defs>
		<rect id="SVGID_1_" width="1600" height="900"/>
	</defs>
	<clipPath id="SVGID_2_">
		<use xlink:href="#SVGID_1_"  style="overflow:visible;"/>
	</clipPath>
	<g class="st0">
		<g>
			<title>baggrund_1_uden_skyer_og_bobler</title>
			<g>
				<defs>
					<rect id="SVGID_3_" x="-82" y="32" width="1339" height="840"/>
				</defs>
				<clipPath id="SVGID_4_">
					<use xlink:href="#SVGID_3_"  style="overflow:visible;"/>
				</clipPath>
				<g class="st1">

						<linearGradient id="SVGID_5_" gradientUnits="userSpaceOnUse" x1="208.5" y1="1920.5" x2="208.5" y2="1080.5" gradientTransform="matrix(1 0 0 -1 379 1952.5)">
						<stop  offset="0" style="stop-color:#009DE0"/>
						<stop  offset="1.000000e-02" style="stop-color:#049EE0"/>
						<stop  offset="6.000000e-02" style="stop-color:#28A9E1"/>
						<stop  offset="0.12" style="stop-color:#48B2E2"/>
						<stop  offset="0.18" style="stop-color:#63BAE3"/>
						<stop  offset="0.25" style="stop-color:#7AC1E3"/>
						<stop  offset="0.34" style="stop-color:#8AC6E3"/>
						<stop  offset="0.45" style="stop-color:#96C9E4"/>
						<stop  offset="0.59" style="stop-color:#9DCBE4"/>
						<stop  offset="1" style="stop-color:#9FCCE4"/>
					</linearGradient>
					<rect x="-82" y="32" class="st2" width="1339" height="840"/>

						<radialGradient id="SVGID_6_" cx="-160.9852" cy="1532.1084" r="220.1699" gradientTransform="matrix(1.1233 0 0 -1.2519 422.4094 2332.2981)" gradientUnits="userSpaceOnUse">
						<stop  offset="0" style="stop-color:#FF7655"/>
						<stop  offset="0.4" style="stop-color:#FE7854"/>
						<stop  offset="0.54" style="stop-color:#FB7F52"/>
						<stop  offset="0.64" style="stop-color:#F78A4E"/>
						<stop  offset="0.72" style="stop-color:#F09B49"/>
						<stop  offset="0.79" style="stop-color:#E7B142"/>
						<stop  offset="0.84" style="stop-color:#EBBC36"/>
						<stop  offset="0.94" style="stop-color:#F7D817"/>
						<stop  offset="1" style="stop-color:#FFED00"/>
					</radialGradient>
					<ellipse class="st3" cx="241.6" cy="414.3" rx="247.3" ry="275.6"/>
					<ellipse class="st4" cx="591.8" cy="601.5" rx="726.5" ry="131.6"/>
					<path class="st5" d="M1275.8,762.5c27.5-17.1,42.5-35.6,42.5-54.9c0-89.7-325.3-162.5-726.5-162.5S-134.7,618-134.7,707.7
						c0,19.3,15,37.7,42.5,54.9c-27.5,17.1-42.5,35.6-42.5,54.9c0,89.7,325.3,162.5,726.5,162.5s726.5-72.8,726.5-162.5
						C1318.3,798.2,1303.3,779.7,1275.8,762.5z"/>

						<linearGradient id="SVGID_7_" gradientUnits="userSpaceOnUse" x1="-338.9723" y1="1128.0662" x2="-338.9723" y2="1300.8279" gradientTransform="matrix(1 0 0 -1 379 1952.5)">
						<stop  offset="0" style="stop-color:#E9EBEC"/>
						<stop  offset="1" style="stop-color:#FFFFFF"/>
					</linearGradient>
					<path class="st6" d="M93.4,651.7H27.2c-2.3,0-4.5,1.6-5.2,4.1c-1.2,4.4,1.5,8.4,4.9,8.4h12.7c2.8,0.1,5,2.7,4.9,5.9
						c-0.1,2.9-2.2,5.3-4.9,5.4H3.9c-2.7,0-5.1,2.2-5.3,5.1c-0.3,3.3,2.1,6.1,5,6.1h17.5c2.7,0,5.1,2.2,5.3,5.1
						c0.3,3.3-2.1,6.1-5,6.1h-0.5H-7.2c-2.7,0-5.1,2.2-5.3,5.1c-0.3,3.3,2.1,6.1,5,6.1h19.1c2.8,0.1,5,2.7,4.9,5.9
						c-0.1,2.9-2.2,5.3-4.9,5.4H1.3c-2.1,0-4.1,1.4-4.9,3.5c-1.8,4.6,1.2,9,5.1,9h20.8c2.7,0,5.1,2.2,5.3,5.1c0.3,3.3-2.1,6.1-5,6.1
						H-4.6c-2.7,0-5.1,2.2-5.3,5.1c-0.3,3.3,2.1,6.1,5,6.1H5.5c2.1,0,4.1,1.4,4.9,3.5c1.8,4.6-1.2,9-5.1,9H5.3h-18.9
						c-2.8,0.1-5,2.7-4.9,5.9c0.1,2.9,2.2,5.3,4.9,5.4h28.7c2.7,0,5.1,2.2,5.3,5.1c0.3,3.3-2.1,6.1-5,6.1H-2.1
						c-2.7,0-5.1,2.2-5.3,5.1c-0.3,3.3,2.1,6.1,5,6.1h35.9c2.7,0,5.1,2.2,5.3,5.1c0.3,3.3-2.1,6.1-5,6.1H21.8
						c-2.8-0.1-5.1,2.3-5.3,5.4c-0.1,3.1,2.1,5.7,4.9,5.9c0.1,0,0.3,0,0.4,0h64.8c2.8,0.1,5.1-2.3,5.3-5.4c0.1-3.1-2.1-5.7-4.9-5.9
						c-0.1,0-0.3,0-0.4,0l-22.2,0c-2.6,0-5-2.1-5.3-5c-0.3-3.3,2-6.2,4.9-6.2c2.3,0,4.4-1.6,5-4.1c0.9-3.8-1.6-7.2-4.9-7.2H51.8
						c-2.7,0-5.1-2.2-5.3-5.1c-0.3-3.3,2.1-6.1,5-6.1h1.2c2.8-0.1,5-2.7,4.9-5.9c-0.1-2.9-2.2-5.3-4.9-5.4H41.3
						c-2.1,0-4.1-1.4-4.9-3.5c-1.8-4.6,1.2-9,5.1-9l20,0c2.7,0,5.1-2.2,5.3-5.1c0.3-3.3-2.1-6.1-5-6.1H49.6c-2.7,0-5.1-2.2-5.3-5.1
						c-0.3-3.3,2.1-6.1,5-6.1h18.2c2.1,0,4.1-1.4,4.9-3.5c1.8-4.6-1.2-9-5.1-9H47.1c-2.8-0.1-5-2.7-4.9-5.9c0.1-2.9,2.2-5.3,4.9-5.4
						h11.3c2.7,0,5.1-2.2,5.3-5.1c0.3-3.3-2.1-6.1-5-6.1h-0.1l-0.7,0c-2.7,0-5.1-2.2-5.3-5.1c-0.3-3.3,2.1-6.1,5-6.1h12.3
						c2.7,0,5.1-2.2,5.3-5.1c0.3-3.3-2.1-6.1-5-6.1c-2.8-0.1-5-2.7-4.9-5.9c0.1-2.9,2.2-5.3,4.9-5.4h23c2.3,0,4.5-1.6,5.2-4.1
						C99.4,655.7,96.8,651.7,93.4,651.7L93.4,651.7z"/>

						<linearGradient id="SVGID_8_" gradientUnits="userSpaceOnUse" x1="-190.4399" y1="1114.3003" x2="-190.4399" y2="1363.421" gradientTransform="matrix(1 0 0 -1 379 1952.5)">
						<stop  offset="0" style="stop-color:#E9EBEC"/>
						<stop  offset="1" style="stop-color:#FFFFFF"/>
					</linearGradient>
					<path class="st7" d="M265.2,589.1h-93.2c-4,0-7.5,3.4-7.6,7.9c-0.1,4.6,3.2,8.4,7.3,8.4h17c4,0,7.5,3.4,7.6,7.9
						c0.1,4.6-3.2,8.4-7.3,8.4h-51.7c-3.1,0-6,2-7.1,5.2c-2.3,6.3,1.9,12.3,7.2,12.3h24.9c4,0,7.5,3.4,7.6,7.9
						c0.1,4.6-3.2,8.4-7.3,8.4H162h-40.7c-4,0-7.5,3.4-7.6,7.9c-0.1,4.6,3.2,8.4,7.3,8.4h27.6c4.7-0.2,8.5,4.6,7.3,10.1
						c-0.4,1.7-1.2,3.3-2.5,4.4c-1.4,1.3-3.2,1.9-4.9,1.8h-14.9c-3.1,0-6,2-7.1,5.2c-2.3,6.3,1.9,12.3,7.2,12.3h30.1
						c4,0,7.5,3.4,7.6,7.9c0.1,4.6-3.2,8.4-7.3,8.4h-39c-4,0-7.5,3.4-7.6,7.9c-0.1,4.6,3.2,8.4,7.3,8.4h14.7c4,0,7.5,3.4,7.6,7.9
						c0.1,4.6-3.2,8.4-7.3,8.4h-27.7c-4,0-7.5,3.4-7.6,7.9c-0.1,4.6,3.2,8.4,7.3,8.4h41.9c3.1,0,6,2,7.1,5.2
						c2.3,6.3-1.9,12.3-7.2,12.3h-25c-4,0-7.5,3.4-7.6,7.9c-0.1,4.6,3.2,8.4,7.3,8.4h51.8c3.1,0,6,2,7.1,5.2
						c2.3,6.3-1.9,12.3-7.2,12.3h0.8h-17.5c-4,0-7.5,3.4-7.6,7.9c-0.1,4.6,3.2,8.4,7.3,8.4h93.2c4,0,7.5-3.4,7.6-7.9
						c0.1-4.6-3.2-8.4-7.3-8.4h-32.9c-2.6,0-5.1-1.6-6.3-4.2c-2.9-6.6,1.5-13,7.1-12.6c2.2,0.2,4.3-1,5.5-3c4-6.8-0.2-13.9-6-13.9
						h-17.9c-3.1,0-6-2-7.1-5.2c-2.3-6.3,1.9-12.3,7.2-12.3h1c4,0,7.5-3.4,7.6-7.9c0.1-4.6-3.2-8.4-7.3-8.4h-0.3h-15.7
						c-4,0-7.5-3.4-7.6-7.9c-0.1-4.6,3.2-8.4,7.3-8.4h29c4,0,7.5-3.4,7.6-7.9c0.1-4.6-3.2-8.4-7.3-8.4h-0.3l-16.9,0
						c-4,0-7.5-3.4-7.6-7.9c-0.1-4.6,3.2-8.4,7.3-8.4h26c3.1,0,6-2,7.1-5.2c2.3-6.3-1.9-12.3-7.2-12.3h-0.2H200
						c-4.7,0.2-8.5-4.6-7.3-10.1c0.4-1.7,1.2-3.3,2.5-4.4c1.4-1.3,3.2-1.9,4.9-1.8H216c4,0,7.5-3.4,7.6-7.9c0.1-4.6-3.2-8.4-7.3-8.4
						h-0.2H215c-4,0-7.5-3.4-7.6-7.9c-0.1-4.6,3.2-8.4,7.3-8.4h18.4c2.6,0,5.1-1.6,6.3-4.2c2.9-6.6-1.5-13-7.1-12.6
						c-2.2,0.2-4.3-1-5.5-3c-4-6.8,0.2-13.9,6-13.9h32.1c4,0,7.5-3.4,7.6-7.9C272.6,592.8,269.3,589.1,265.2,589.1L265.2,589.1
						L265.2,589.1z"/>

						<linearGradient id="SVGID_9_" gradientUnits="userSpaceOnUse" x1="-273.6861" y1="1114.3003" x2="-273.6861" y2="1287.0574" gradientTransform="matrix(-1 0 0 -1 880.51 1952.5)">
						<stop  offset="0" style="stop-color:#E9EBEC"/>
						<stop  offset="1" style="stop-color:#FFFFFF"/>
					</linearGradient>
					<path class="st8" d="M1101,665.4h64.5c2.7,0,5.1,2.2,5.3,5.1c0.3,3.3-2.1,6.1-5,6.1h-11.7c-2.7,0-5.1,2.2-5.3,5.1
						c-0.3,3.3,2.1,6.1,5,6.1h35.9c2.7,0,5.1,2.2,5.3,5.1c0.3,3.3-2.1,6.1-5,6.1h-17.5c-3.1,0.1-5.5,3.1-5.4,6.5
						c0.1,3.3,2.5,5.9,5.4,6h28.7c2.7,0,5.1,2.2,5.3,5.1c0.3,3.3-2.1,6.1-5,6.1h-19.2c-2.7,0-5.1,2.2-5.3,5.1
						c-0.3,3.3,2.1,6.1,5,6.1h0.3h9.8c2.7,0,5.1,2.2,5.3,5.1c0.3,3.3-2.1,6.1-5,6.1h-0.3h-20.4c-2.7,0-5.1,2.2-5.3,5.1
						c-0.3,3.3,2.1,6.1,5,6.1h27.1c2.8,0.1,5,2.7,4.9,5.9c-0.1,2.9-2.2,5.3-4.9,5.4H1188c-2.1,0-4.1,1.4-4.9,3.5
						c-1.8,4.6,1.2,9,5.1,9h19c2.7,0,5.1,2.2,5.3,5.1c0.3,3.3-2.1,6.1-5,6.1h-29c-2.7,0-5.1,2.2-5.3,5.1c-0.3,3.3,2.1,6.1,5,6.1
						h17.5c3.1,0.1,5.5,3.1,5.4,6.5c-0.1,3.3-2.5,5.9-5.4,6l-35.6,0c-2.7,0-5.1,2.2-5.3,5.1c-0.3,3.3,2.1,6.1,5,6.1l12.5-1.3
						c2.3,0,4.5,1.6,5.2,4.1c1.2,4.4-1.5,8.4-4.9,8.4h-66.1c-2.3,0-4.5-1.6-5.2-4.1c-1.2-4.4,1.5-8.4,4.9-8.4h23
						c2.7,0,5.1-2.2,5.3-5.1c0.3-3.3-2.1-6.1-5-6.1c-2.8-0.1-5-2.7-4.9-5.9c0.1-2.9,2.2-5.3,4.9-5.4h12.4c2.7,0,5.1-2.2,5.3-5.1
						c0.3-3.3-2.1-6.1-5-6.1h-0.9c-2.7,0-5.1-2.2-5.3-5.1c-0.3-3.3,2.1-6.1,5-6.1h11.4c2.1,0,4.1-1.4,4.9-3.5c1.8-4.6-1.2-9-5.1-9
						h-20.3c-2.8-0.1-5-2.7-4.9-5.9c0.1-2.9,2.2-5.3,4.9-5.4h12.1c2.7,0,5.1-2.2,5.3-5.1c0.3-3.3-2.1-6.1-5-6.1h-18.1
						c-2.7,0-5.1-2.2-5.3-5.1c-0.3-3.3,2.1-6.1,5-6.1h20.3c2.7,0,5.1-2.2,5.3-5.1c0.3-3.3-2.1-6.1-5-6.1h-11.3
						c-2.7,0-5.1-2.2-5.3-5.1c-0.3-3.3,2.1-6.1,5-6.1h0.9c3.1-0.1,5.5-3.1,5.4-6.5c-0.1-3.3-2.5-5.9-5.4-6h-12.1c-2.6,0-5-2.1-5.3-5
						c-0.3-3.3,2-6.2,4.9-6.2c2.3,0,4.4-1.6,5-4.1c0.9-3.8-1.6-7.2-4.9-7.2h-22.2c-2.7,0-5.1-2.2-5.3-5.1
						C1095.7,668.2,1098,665.4,1101,665.4z"/>

						<linearGradient id="SVGID_10_" gradientUnits="userSpaceOnUse" x1="-124.4589" y1="1101.7816" x2="-124.4589" y2="1350.9023" gradientTransform="matrix(-1 0 0 -1 880.51 1952.5)">
						<stop  offset="0" style="stop-color:#E9EBEC"/>
						<stop  offset="1" style="stop-color:#FFFFFF"/>
					</linearGradient>
					<path class="st9" d="M928.3,601.6h93.2c4,0,7.5,3.4,7.6,7.9c0.1,4.6-3.2,8.4-7.3,8.4h-17.1c-3.1,0-6,2-7.1,5.2
						c-2.3,6.3,1.9,12.3,7.2,12.3h51.3c4,0,7.5,3.4,7.6,7.9c0.1,4.6-3.2,8.4-7.3,8.4h-0.4h-24.5c-4,0-7.5,3.4-7.6,7.9
						c-0.1,4.6,3.2,8.4,7.3,8.4h41.4c4,0,7.5,3.4,7.6,7.9c0.1,4.6-3.2,8.4-7.3,8.4h-0.4h-27c-4,0-7.5,3.4-7.6,7.9
						c-0.1,4.6,3.2,8.4,7.3,8.4l14.6,0c3.1,0,6,2,7.1,5.2c2.3,6.3-1.9,12.3-7.2,12.3h-0.2H1030c-4,0-7.5,3.4-7.6,7.9
						c-0.1,4.6,3.2,8.4,7.3,8.4h38.8c3.1,0,6,2,7.1,5.2c2.3,6.3-1.9,12.3-7.2,12.3h0H1054c-4,0-7.5,3.4-7.6,7.9
						c-0.1,4.6,3.2,8.4,7.3,8.4h27.5c4,0,7.5,3.4,7.6,7.9c0.1,4.6-3.2,8.4-7.3,8.4h-0.6h-40.6c-4,0-7.5,3.4-7.6,7.9
						c-0.1,4.6,3.2,8.4,7.3,8.4h24.8c4,0,7.5,3.4,7.6,7.9c0.1,4.6-3.2,8.4-7.3,8.4h1.5H1012c-3.1,0-6,2-7.1,5.2
						c-2.3,6.3,1.9,12.3,7.2,12.3h18.1c4,0,7.5,3.4,7.6,7.9c0.1,4.6-3.2,8.4-7.3,8.4l0,0h-93.3c-4,0-7.5-3.4-7.6-7.9
						c-0.1-4.6,3.2-8.4,7.3-8.4l32.9,0c2.6,0,5.1-1.6,6.3-4.2c2.9-6.6-1.5-13-7.1-12.6c-2.2,0.2-4.3-1-5.5-3c-4-6.8,0.2-13.9,6-13.9
						h17.7c4,0,7.5-3.4,7.6-7.9c0.1-4.6-3.2-8.4-7.3-8.4l-1.3,0c-4,0-7.5-3.4-7.6-7.9c-0.1-4.6,3.2-8.4,7.3-8.4h16.2
						c4,0,7.5-3.4,7.6-7.9c0.1-4.6-3.2-8.4-7.3-8.4h0.9h-31.1c-3.1,0-6-2-7.1-5.2c-2.3-6.3,1.9-12.3,7.2-12.3h18
						c4,0,7.5-3.4,7.6-7.9c0.1-4.6-3.2-8.4-7.3-8.4h-26.2c-3.1,0-6-2-7.1-5.2c-2.3-6.3,1.9-12.3,7.2-12.3h28.9c4,0,7.5-3.4,7.6-7.9
						c0.1-4.6-3.2-8.4-7.3-8.4h-16.2c-4,0-7.5-3.4-7.6-7.9c-0.1-4.6,3.2-8.4,7.3-8.4h1.3c4,0,7.5-3.4,7.6-7.9
						c0.1-4.6-3.2-8.4-7.3-8.4h-18.4c-2.6,0-5.1-1.6-6.3-4.2c-2.9-6.6,1.5-13,7.1-12.6c2.2,0.2,4.3-1,5.5-3c4-6.8-0.2-13.9-6-13.9
						h0.3h-32.4c-4,0-7.5-3.4-7.6-7.9C921,605.4,924.3,601.6,928.3,601.6L928.3,601.6z"/>
					<path class="st10" d="M1306.7,573.4c-2-1.9-4.3-3.7-6.7-5.6c-9.3-7-21.6-13.9-36.9-20.5l-0.8-0.3c-1.9-0.8-3.9-1.6-5.9-2.5
						c-9.9-4-20.9-7.9-32.9-11.7c-2.2-0.7-4.4-1.4-6.7-2.1c-9.6-2.9-19.9-5.8-30.7-8.5c-2.2-0.6-4.4-1.1-6.7-1.7
						c-8.8-2.2-17.9-4.3-27.4-6.4l-6.7-1.4c-8-1.7-16.2-3.3-24.6-5l-6.7-1.3c-2.7-0.5-5.3-1-8.1-1.5c-6.3-1.2-12.8-2.3-19.3-3.4
						l-6.7-1.1c-10.4-1.7-21-3.4-31.8-4.9l-6.7-0.9c-10.4-1.5-21-2.9-31.7-4.3l-6.7-0.8c-13.8-1.7-27.8-3.3-42.1-4.9l-6.7-0.7
						c-15.5-1.6-31.3-3.1-47.4-4.5l-6.7-0.6c-13.9-1.2-28.1-2.3-42.4-3.3l-6.7-0.5c-11.8-0.8-23.7-1.6-35.7-2.3l-6.7-0.4
						c-15.3-0.9-30.7-1.6-46.3-2.3l-6.7-0.3c-15.3-0.6-30.7-1.2-46.3-1.6l-6.7-0.2c-11.8-0.3-23.7-0.6-35.7-1.5h-6.7
						c-11.8,0.4-35.7,0-35.7,0h-6.7c0,0-17.4,0-26.1,0c-7.1,0-14.1,0-21.1,1.3h-6.7c-17.4-1.1-34.7-0.9-51.8-0.5l-6.7,0.1
						c-17.4,0.4-34.6,0.9-51.7,1.4l-6.7,0.2c-18.8,0.7-37.3,1.5-55.6,2.4l-6.7,0.4c-18.1,1-36,2.1-53.7,3.3l-6.7,0.5
						c-14,1-27.8,2.1-41.5,3.2l-6.7,0.6c-14.6,1.3-28.9,2.6-43,4.1c-2.2,0.2-4.5,0.5-6.7,0.7c-13.9,1.5-27.5,3-40.9,4.7l-6.7,0.8
						c-12.1,1.5-23.9,3.1-35.5,4.7l-6.7,0.9c-13.6,2-26.9,4.1-39.8,6.2l-6.7,1.1c-4.3,0.7-8.5,1.5-12.7,2.3
						c-6.3,1.1-12.4,2.3-18.4,3.5l-6.7,1.3c-11.6,2.3-22.7,4.7-33.3,7.1c-2.3,0.5-4.5,1-6.7,1.6c-10.9,2.6-21.3,5.3-31.1,8
						c-2.3,0.6-4.5,1.3-6.7,1.9c-12,3.5-23.1,7-33.3,10.7c-2.3,0.8-4.5,1.6-6.7,2.5c-4.7,1.8-9.2,3.6-13.4,5.4
						c-7.3,3.1-13.8,6.3-19.8,9.5c-2.3,1.2-4.6,2.5-6.7,3.8c-21.8,13.1-32.8,27-32.8,41.4s11,28.3,32.8,41.4
						c2.1,1.3,4.4,2.6,6.5,3.8v10.3c3-1.9,5.9-3.8,9.1-5.7c1.2-0.7,2.5-1.5,3.8-2.2c1.3-0.7,2.6-1.5,3.9-2.2
						c-6.1-2.8-11.6-5.6-16.8-8.4v-73.7c7.4-4,14.8-7.6,22.3-10.8c3.5-1.5,11.4-4.5,11.4-4.5v89.1l5.6-3.1v-88.5
						c10.3-3.8,21.5-7.4,33.7-11v86.2c2.2-0.8,4.5-1.6,6.7-2.4v-85.6c9.9-2.8,20.4-5.5,31.5-8.1v83.8c2.2-0.7,4.5-1.3,6.7-2v-83.4
						c10.7-2.5,22-4.9,33.7-7.3v81.8l5.6-1.6v-81.4c6.4-1.3,13-2.5,19.7-3.7c3.9-0.7,7.8-1.4,11.8-2.1v80.1l6.7-1.4v-79.9
						c12.8-2.2,25.9-4.2,39.3-6.2v78.3l6.7-1.2v-78.1c11.8-1.7,23.7-3.3,35.9-4.8v77.1l6.7-1v-76.9c13.2-1.6,26.7-3.2,40.4-4.6v75.8
						l7.9-0.9V491c14-1.4,28.2-2.8,42.7-4.1v74.7l6.7-0.7v-74.5c13.7-1.2,27.7-2.3,41.8-3.3l3.8,73.4l6.7-0.6l-3.9-73.3
						c17.6-1.2,35.5-2.3,53.6-3.3l3.8,72.6l6.7-0.4l-3.8-72.5c18.2-0.9,36.6-1.7,55.2-2.4v72.3l6.7-0.3v-72.2
						c17.1-0.6,34.3-1.1,51.7-1.4v71.8l6.7-0.2v-72.1c17.1-0.3,34.3-0.6,51.7-0.7v71.6h6.7v-71.3c6.9,0,14-0.1,21-0.1
						c8.7,0,17.4,0,26.1,0.1v72.6l6.7,0.1v-71.6c12,0.1,24,0.2,35.9,0.4v70.8l6.7,0.2v-71.8c12.1,0.2,24,0.5,35.9,0.8v72l6.7,0.2
						v-72c15.5,0.5,30.8,1,46.1,1.6v72.4l6.7,0.4v-72.5c15.5,0.7,30.9,1.4,46.1,2.3v73c2.2,0.2,4.5,0.3,6.7,0.5v-73.1
						c11.7,0.7,23.3,1.4,34.8,2.2v73.7l6.7,0.6v-73.8c14.4,1,28.7,2.1,42.7,3.3v74.5l6.7,0.7v-74.7c16,1.4,31.7,2.9,47.2,4.5v75.7
						l6.7,0.9V492c14.5,1.6,28.7,3.2,42.7,5v77l6.7,1.1v-77.2c10.7,1.4,21.2,2.8,31.5,4.3v78.2l6.7,1.2v-78.4
						c10.7,1.6,21.2,3.2,31.5,4.9v79.6l7.9,1.4v-79.8c6.1,1,12.1,2.1,18,3.1c3,0.6,6,1.1,9,1.7v81l6.7,1.6v-81.3
						c8.5,1.6,16.7,3.3,24.7,5v82.4l6.7,1.8v-82.7c9.4,2.1,18.4,4.2,27,6.3v84.3c2.3,0.7,4.5,1.4,6.7,2.1v-84.6
						c10.7,2.8,20.8,5.6,30.3,8.5v86.7c2.3,0.9,4.5,1.7,6.7,2.6v-87c11.9,3.8,22.8,7.7,32.6,11.8v89.8c2.3,1.2,4.5,2.3,6.7,3.5
						v-90.4c0,0,28.7,14.3,37.1,21.6v49.5c-7.9,6.9-19.5,13.8-34.3,20.5c1.3,0.7,2.6,1.5,3.9,2.2c1.3,0.7,2.6,1.5,3.8,2.2
						c9.4-4.3,18.3-9.7,26.8-15.9c2.4-1.9,4.7-3.7,6.7-5.6c9.9-9.1,14.8-18.6,14.9-28.3S1316.6,582.5,1306.7,573.4z M-105.6,634.7
						c-17.2-10.9-26.1-22.1-26.1-32.9c0-10.8,8.9-22,26.1-32.9V634.7z M1306.4,583.4c5.4,6.1,8.2,12.3,8.2,18.3
						c0,6-2.8,12.1-8.2,18.3V583.4z"/>
				</g>
			</g>
		</g>
		<rect x="820" y="74" class="st11" width="753" height="753"/>
		<path class="st12" d="M0,0v900h1600V0H0z M403.5,827C195.6,827,27,658.4,27,450.5S195.6,74,403.5,74S780,242.6,780,450.5
			S611.4,827,403.5,827z M1196.5,827C988.6,827,820,658.4,820,450.5S988.6,74,1196.5,74S1573,242.6,1573,450.5
			S1404.4,827,1196.5,827z"/>
		<circle class="st13" cx="1196.5" cy="450.5" r="376.5"/>
		<circle class="st13" cx="403.5" cy="450.5" r="376.5"/>
	</g>
</g>
</svg>
