<svg id="Layer_1" data-name="Layer 1" xmlns="http://www.w3.org/2000/svg" xmlns:xlink="http://www.w3.org/1999/xlink" width="1600" height="900" viewBox="0 0 1600 900">
  <defs>
    <style>
      .cls-1 {
        fill: none;
      }

      .cls-2 {
        clip-path: url(#clip-path);
      }

      .cls-3 {
        fill: url(#linear-gradient);
      }

      .cls-4 {
        fill: url(#radial-gradient);
      }

      .cls-5 {
        fill: #dc913a;
      }

      .cls-6 {
        fill: #b4ecf9;
      }

      .cls-7 {
        fill: url(#linear-gradient-2);
      }

      .cls-8 {
        fill: url(#linear-gradient-3);
      }

      .cls-9 {
        fill: url(#linear-gradient-4);
      }

      .cls-10 {
        fill: url(#linear-gradient-5);
      }

      .cls-11 {
        fill: #724f2b;
      }
    </style>
    <clipPath id="clip-path">
      <rect class="cls-1" width="1600" height="900"/>
    </clipPath>
    <linearGradient id="linear-gradient" x1="800" x2="800" y2="900" gradientUnits="userSpaceOnUse">
      <stop offset="0" stop-color="#009de0"/>
      <stop offset="0.01" stop-color="#049ee0"/>
      <stop offset="0.06" stop-color="#28a9e1"/>
      <stop offset="0.12" stop-color="#48b2e2"/>
      <stop offset="0.18" stop-color="#63bae3"/>
      <stop offset="0.25" stop-color="#7ac1e3"/>
      <stop offset="0.34" stop-color="#8ac6e3"/>
      <stop offset="0.45" stop-color="#96c9e4"/>
      <stop offset="0.59" stop-color="#9dcbe4"/>
      <stop offset="1" stop-color="#9fcce4"/>
    </linearGradient>
    <radialGradient id="radial-gradient" cx="387.23" cy="409.88" r="295.5" gradientUnits="userSpaceOnUse">
      <stop offset="0" stop-color="#ff7655"/>
      <stop offset="0.4" stop-color="#fe7854"/>
      <stop offset="0.54" stop-color="#fb7f52"/>
      <stop offset="0.64" stop-color="#f78a4e"/>
      <stop offset="0.72" stop-color="#f09b49"/>
      <stop offset="0.79" stop-color="#e7b142"/>
      <stop offset="0.84" stop-color="#ebbc36"/>
      <stop offset="0.94" stop-color="#f7d817"/>
      <stop offset="1" stop-color="#ffed00"/>
    </radialGradient>
    <linearGradient id="linear-gradient-2" x1="146.15" y1="850.33" x2="146.15" y2="664.59" gradientUnits="userSpaceOnUse">
      <stop offset="0" stop-color="#e9ebec"/>
      <stop offset="1" stop-color="#fff"/>
    </linearGradient>
    <linearGradient id="linear-gradient-3" x1="324.54" y1="863.94" x2="324.54" y2="596.65" xlink:href="#linear-gradient-2"/>
    <linearGradient id="linear-gradient-4" x1="-975.58" y1="864.22" x2="-975.58" y2="678.49" gradientTransform="matrix(-1, 0, 0, 1, 501.51, 0)" xlink:href="#linear-gradient-2"/>
    <linearGradient id="linear-gradient-5" x1="-797.18" y1="877.84" x2="-797.18" y2="610.54" gradientTransform="matrix(-1, 0, 0, 1, 501.51, 0)" xlink:href="#linear-gradient-2"/>
  </defs>
  <title>baggrund_1_uden_skyer_og_bobler</title>
  <g class="cls-2">
    <rect class="cls-3" width="1600" height="900"/>
    <circle class="cls-4" cx="387.23" cy="409.88" r="295.5"/>
    <ellipse class="cls-5" cx="805.63" cy="610.54" rx="868.04" ry="141.09"/>
    <path class="cls-6" d="M1622.91,783.23c32.85-18.38,50.76-38.18,50.76-58.82,0-96.21-388.64-174.19-868-174.19s-868,78-868,174.19c0,20.64,17.91,40.44,50.76,58.82-32.85,18.37-50.76,38.18-50.76,58.82,0,96.2,388.63,174.19,868,174.19s868-78,868-174.19C1673.67,821.41,1655.76,801.6,1622.91,783.23Z"/>
    <path class="cls-7" d="M210.14,664.59H130.79a6.19,6.19,0,0,0,0,12.38h15.15a6.2,6.2,0,0,1,0,12.39H103a6.19,6.19,0,0,0,0,12.38h21.1a6.19,6.19,0,1,1,0,12.38H89.31a6.19,6.19,0,1,0,0,12.38h23.14a6.2,6.2,0,0,1,0,12.39H100.07a6.19,6.19,0,1,0,0,12.38h25.35a6.19,6.19,0,1,1,0,12.38H92.92a6.19,6.19,0,1,0,0,12.38H105.3a6.19,6.19,0,0,1,0,12.38H82.15a6.2,6.2,0,0,0,0,12.39h34.78a6.19,6.19,0,0,1,0,12.38H95.83a6.19,6.19,0,1,0,0,12.38h43a6.19,6.19,0,0,1,0,12.38H123.64a6.2,6.2,0,1,0,0,12.39H203a6.2,6.2,0,1,0,0-12.39h-27.8a6.19,6.19,0,1,1,0-12.38,6.19,6.19,0,1,0,0-12.38H160.27a6.19,6.19,0,0,1,0-12.38h1.23a6.2,6.2,0,0,0,0-12.39H147.89a6.19,6.19,0,0,1,0-12.38h24.38a6.19,6.19,0,1,0,0-12.38H157.64a6.19,6.19,0,1,1,0-12.38h21.78a6.19,6.19,0,1,0,0-12.38H155a6.2,6.2,0,0,1,0-12.39h13.61a6.19,6.19,0,1,0,0-12.38h-1.23a6.19,6.19,0,1,1,0-12.38h14.91a6.19,6.19,0,0,0,0-12.38,6.2,6.2,0,0,1,0-12.39h27.81a6.19,6.19,0,1,0,0-12.38Z"/>
    <path class="cls-8" d="M416.63,596.65H302.44a8.91,8.91,0,0,0,0,17.82h21.8a8.91,8.91,0,0,1,0,17.82H262.43a8.91,8.91,0,1,0,0,17.82h30.36a8.91,8.91,0,1,1,0,17.82H242.74a8.91,8.91,0,1,0,0,17.82h33.32a8.91,8.91,0,1,1,0,17.81H258.24a8.91,8.91,0,1,0,0,17.82h36.47a8.91,8.91,0,0,1,0,17.82H247.94a8.91,8.91,0,0,0,0,17.82h17.82a8.91,8.91,0,0,1,0,17.82H232.45a8.91,8.91,0,0,0,0,17.82H282.5a8.91,8.91,0,1,1,0,17.82H252.13a8.91,8.91,0,0,0,0,17.82H314a8.91,8.91,0,1,1,0,17.82h-21.8a8.91,8.91,0,1,0,0,17.82H406.34a8.91,8.91,0,0,0,0-17.82h-40a8.91,8.91,0,1,1,0-17.82,8.91,8.91,0,1,0,0-17.82H344.87a8.91,8.91,0,0,1,0-17.82h1.77a8.91,8.91,0,1,0,0-17.82H327.05a8.91,8.91,0,0,1,0-17.82h35.09a8.91,8.91,0,1,0,0-17.82H341.08a8.91,8.91,0,1,1,0-17.82h31.35a8.91,8.91,0,0,0,0-17.82H337.34a8.91,8.91,0,1,1,0-17.81h19.6a8.91,8.91,0,0,0,0-17.82h-1.78a8.91,8.91,0,0,1,0-17.82h21.46a8.91,8.91,0,0,0,0-17.82,8.91,8.91,0,0,1,0-17.82h40a8.91,8.91,0,1,0,0-17.82Z"/>
    <path class="cls-9" d="M1413.1,678.49h79.34a6.19,6.19,0,1,1,0,12.38H1477.3a6.19,6.19,0,1,0,0,12.38h43a6.19,6.19,0,1,1,0,12.38h-21.1a6.2,6.2,0,0,0,0,12.39h34.78a6.19,6.19,0,0,1,0,12.38h-23.15a6.19,6.19,0,0,0,0,12.38h12.38a6.19,6.19,0,0,1,0,12.38h-25.35a6.19,6.19,0,0,0,0,12.38h32.5a6.2,6.2,0,0,1,0,12.39h-12.38a6.19,6.19,0,0,0,0,12.38h23.15a6.19,6.19,0,0,1,0,12.38H1506.3a6.19,6.19,0,0,0,0,12.38h21.1a6.2,6.2,0,0,1,0,12.39h-43a6.19,6.19,0,0,0,0,12.38h15.15a6.19,6.19,0,1,1,0,12.38h-79.35a6.19,6.19,0,0,1,0-12.38h27.8a6.19,6.19,0,1,0,0-12.38,6.2,6.2,0,0,1,0-12.39H1463a6.19,6.19,0,1,0,0-12.38h-1.23a6.19,6.19,0,0,1,0-12.38h13.61a6.19,6.19,0,1,0,0-12.38H1451a6.2,6.2,0,0,1,0-12.39h14.64a6.19,6.19,0,1,0,0-12.38h-21.79a6.19,6.19,0,0,1,0-12.38h24.38a6.19,6.19,0,1,0,0-12.38h-13.61a6.19,6.19,0,1,1,0-12.38h1.23a6.2,6.2,0,0,0,0-12.39H1440.9a6.19,6.19,0,0,1,0-12.38,6.19,6.19,0,0,0,0-12.38h-27.8a6.19,6.19,0,1,1,0-12.38Z"/>
    <path class="cls-10" d="M1206.6,610.54h114.19a8.91,8.91,0,1,1,0,17.82H1299a8.91,8.91,0,0,0,0,17.82h61.82a8.91,8.91,0,1,1,0,17.82h-30.37a8.91,8.91,0,0,0,0,17.82h50a8.91,8.91,0,1,1,0,17.82h-33.31a8.91,8.91,0,0,0,0,17.82H1365a8.91,8.91,0,1,1,0,17.82h-36.48a8.91,8.91,0,0,0,0,17.82h46.77a8.91,8.91,0,1,1,0,17.82h-17.82a8.91,8.91,0,0,0,0,17.82h33.31a8.91,8.91,0,1,1,0,17.82h-50a8.91,8.91,0,0,0,0,17.82h30.37a8.91,8.91,0,1,1,0,17.82h-61.82a8.91,8.91,0,0,0,0,17.82h21.8a8.91,8.91,0,1,1,0,17.82H1216.89a8.91,8.91,0,0,1,0-17.82h40a8.91,8.91,0,0,0,0-17.82,8.91,8.91,0,0,1,0-17.82h21.45a8.91,8.91,0,1,0,0-17.82h-1.77a8.91,8.91,0,1,1,0-17.82h19.59a8.91,8.91,0,0,0,0-17.82h-35.09a8.91,8.91,0,1,1,0-17.82h21.06a8.91,8.91,0,0,0,0-17.82H1250.8a8.91,8.91,0,1,1,0-17.82h35.09a8.91,8.91,0,0,0,0-17.82H1266.3a8.91,8.91,0,1,1,0-17.82h1.77a8.91,8.91,0,1,0,0-17.82h-21.46a8.91,8.91,0,1,1,0-17.82,8.91,8.91,0,1,0,0-17.82h-40a8.91,8.91,0,1,1,0-17.82Z"/>
    <path class="cls-11" d="M1659.82,580.46c-2.41-2-5.09-4-8-6q-16.68-11.32-44.07-22l-1-.36c-2.29-.89-4.65-1.76-7-2.64q-17.79-6.46-39.3-12.58-3.95-1.12-8-2.23-17.25-4.69-36.68-9.16-3.94-.92-8-1.81-15.69-3.5-32.73-6.83l-8-1.54q-14.28-2.71-29.44-5.33l-8-1.35c-3.18-.54-6.38-1.07-9.62-1.59q-11.38-1.86-23.11-3.63l-8-1.19q-18.6-2.74-38-5.3l-8-1q-18.63-2.38-37.93-4.6l-8-.91q-24.67-2.76-50.35-5.23l-8-.75q-27.76-2.61-56.6-4.86l-8-.62q-25-1.9-50.7-3.55l-8-.5q-21.1-1.31-42.64-2.43l-8-.41q-27.36-1.39-55.31-2.47l-8-.31q-27.41-1-55.3-1.75l-8-.21q-21.21-.53-42.65-.88l-8-.12q-21.21-.33-42.64-.48l-8-.05q-15.56-.09-31.2-.09-12.66,0-25.26.06l-8,0q-31.18.2-61.95.73l-8,.15q-31.14.6-61.75,1.55l-8,.25q-33.62,1.11-66.46,2.62l-8,.38q-32.5,1.56-64.11,3.53l-8,.51q-25.09,1.6-49.54,3.47l-8,.62q-26.12,2.06-51.41,4.39c-2.68.25-5.34.49-8,.75q-24.87,2.35-48.83,5l-8,.89q-21.6,2.43-42.38,5.08l-8,1q-24.39,3.18-47.54,6.68l-8,1.23q-7.68,1.19-15.23,2.42-11.21,1.81-22,3.7l-8,1.41q-20.77,3.74-39.79,7.66c-2.7.56-5.36,1.12-8,1.69q-19.6,4.18-37.21,8.59c-2.7.68-5.37,1.35-8,2q-21.51,5.58-39.79,11.51c-2.72.88-5.39,1.76-8,2.66q-8.4,2.86-16,5.8-13,5-23.6,10.14-4.18,2-8,4.1c-26,14-39.18,28.9-39.18,44.41s13.16,30.38,39.18,44.41q3.83,2.06,8,4.09v11q5-3.07,10.63-6.1c1.48-.8,3-1.61,4.55-2.41s3.1-1.59,4.7-2.38q-10.92-4.46-19.88-9V571.25A283.5,283.5,0,0,1,7.15,559.64q6.33-2.43,13.18-4.81v95.52c2.61-1.11,5.28-2.22,8-3.31V552.13q18.21-6,39.79-11.66l8-2.06q17.58-4.42,37.21-8.65v89.82q4-1.05,8-2.09V528.07q19-4,39.79-7.71l8-1.42q11.38-2,23.27-3.93,6.9-1.12,13.94-2.21v85.86l8-1.51V511.57q23.13-3.51,47.54-6.72l8-1q20.78-2.67,42.38-5.1v82.63l8-1.1V497.83q23.94-2.64,48.83-5l8-.75q25.28-2.34,51.41-4.39v80.07l8-.76V487.06q24.66-1.89,50-3.52l8-.5q31.59-2,64.12-3.53l4.55,77.88,8-.46-4.55-77.8q32.6-1.51,66-2.6l8-.26q30.58-.94,61.75-1.55v77l8-.18v-77q30.75-.54,61.95-.73l8,0q12.6-.06,25.26-.06,15.65,0,31.2.09v76.79l8,.06v-76.8q21.42.15,42.64.48l8,.12q21.45.36,42.65.88v77.16l8,.26V475.57q27.88.74,55.3,1.76l8,.3q27.95,1.1,55.31,2.48V558.4q4,.24,8,.51V480.52q21.52,1.13,42.64,2.43l8,.51Q1149,485.1,1174,487v79.92l8,.76V487.63q28.82,2.26,56.6,4.87l8,.76q25.67,2.48,50.35,5.24v82.58l8,1.12V499.41q19.3,2.22,37.93,4.62l8,1q19.4,2.56,38,5.31V595.7c2.68.48,5.35,1,8,1.47V511.58q11.06,1.68,21.83,3.43,5.5.9,10.9,1.81l8,1.36q15.17,2.63,29.44,5.35V611.9l8,1.91V525.08q17.06,3.36,32.73,6.87l8,1.83q19.45,4.5,36.68,9.24v92.87c2.71.91,5.37,1.83,8,2.76V545.28q21.57,6.19,39.3,12.78l8,3.07c19,7.54,33.73,15.31,44.07,23.14v53.12c-9.83,7.44-23.66,14.82-41.29,22,1.59.79,3.16,1.59,4.7,2.38s3.06,1.61,4.55,2.41a194.73,194.73,0,0,0,32-17c2.91-2,5.59-4,8-6q17.73-14.7,17.76-30.37T1659.82,580.46ZM-27.32,646.12c-20.52-11.69-31.18-23.66-31.18-35.29s10.66-23.61,31.18-35.3Zm1687.14-15.67V591.21c6.46,6.57,9.76,13.15,9.76,19.62S1666.28,623.87,1659.82,630.45Z"/>
  </g>
</svg>
