<svg id="Layer_1" data-name="Layer 1" xmlns="http://www.w3.org/2000/svg" width="1600" height="900" viewBox="0 0 1600 900"><defs><style>.cls-1{fill:#e9eced;}.cls-2{fill:#202532;}</style></defs><title>baggrund2_uden_fyld</title><rect class="cls-1" x="820.5" y="74.5" width="752" height="752"/><path d="M1572,75V826H821V75h751m1-1H820V827h753V74Z"/><path class="cls-2" d="M0,0V900H1600V0ZM403.5,827C195.56,827,27,658.44,27,450.5S195.56,74,403.5,74,780,242.56,780,450.5,611.44,827,403.5,827Zm793,0C988.56,827,820,658.44,820,450.5S988.56,74,1196.5,74,1573,242.56,1573,450.5,1404.44,827,1196.5,827Z"/></svg>
