<svg xmlns="http://www.w3.org/2000/svg" xmlns:xlink="http://www.w3.org/1999/xlink" width="73.65" height="49.34" viewBox="0 0 73.65 49.34">
  <defs>
    <style>
      .cls-1 {
        fill: url(#linear-gradient);
      }

      .cls-2 {
        fill: url(#linear-gradient-3);
      }
    </style>
    <linearGradient id="linear-gradient" x1="36.82" y1="73.65" x2="36.82" gradientUnits="userSpaceOnUse">
      <stop offset="0" stop-color="#e9ebec"/>
      <stop offset="1" stop-color="#fff"/>
    </linearGradient>
    <linearGradient id="linear-gradient-3" x1="36.82" y1="49.34" x2="36.82" y2="27.24" xlink:href="#linear-gradient"/>
  </defs>
  <title>bobble10</title>
  <g id="Layer_2" data-name="Layer 2">
    <g id="Layer_1-2" data-name="Layer 1">
      <g>
        <path class="cls-1" d="M36.82,27.24c17.76,0,32.66,3.55,36.79,8.35A36.81,36.81,0,0,0,0,35.59C4.17,30.79,19.07,27.24,36.82,27.24Z"/>
        <path class="cls-1" d="M36.82,49.34c17.43,0,32.11-3.43,36.55-8.09a36.09,36.09,0,0,0,.28-4.43c0-.41,0-.82,0-1.23-4.13-4.8-19-8.35-36.79-8.35S4.17,30.79,0,35.59c0,.41,0,.82,0,1.23a38.18,38.18,0,0,0,.27,4.43C4.72,45.91,19.39,49.34,36.82,49.34Z"/>
        <path class="cls-2" d="M36.82,49.34c17.43,0,32.11-3.43,36.55-8.09a36.09,36.09,0,0,0,.28-4.43c0-.41,0-.82,0-1.23-4.13-4.8-19-8.35-36.79-8.35S4.17,30.79,0,35.59c0,.41,0,.82,0,1.23a38.18,38.18,0,0,0,.27,4.43C4.72,45.91,19.39,49.34,36.82,49.34Z"/>
      </g>
    </g>
  </g>
</svg>
