<svg xmlns="http://www.w3.org/2000/svg" width="380.95" height="49.83" viewBox="0 0 380.95 49.83">
  <defs>
    <style>
      .cls-1 {
        fill: #dc913a;
      }
    </style>
  </defs>
  <title>del_billede</title>
  <g id="Layer_2" data-name="Layer 2">
    <g id="Layer_1-2" data-name="Layer 1">
      <g>
        <path class="cls-1" d="M10.08.86c6.7,0,12.53.72,17.86,4.68a23.8,23.8,0,0,1,9.22,19.37c0,8-3.32,14.91-9.65,19.37-5.62,4-10.88,4.61-17.57,4.61H0V.86ZM7.34,42h3.17c3.6,0,8.57-.29,12.75-3.38a17,17,0,0,0,6.55-13.69,17.1,17.1,0,0,0-6.48-13.82c-4.18-3-9.29-3.31-12.82-3.31H7.34Z"/>
        <path class="cls-1" d="M72.87,7.78H53.71V20H72.29v6.91H53.71V42H72.87v6.91H46.37V.86h26.5Z"/>
        <path class="cls-1" d="M89.71.86V42h14.12v6.91H82.37V.86Z"/>
        <path class="cls-1" d="M134.78.86c6.2,0,10.08.8,13.25,3.75a12.33,12.33,0,0,1,3.82,9.5,10.48,10.48,0,0,1-1.44,5.69,7.94,7.94,0,0,1-3.6,3.31A13.26,13.26,0,0,1,153,26.57a12.52,12.52,0,0,1,3.17,9A11.73,11.73,0,0,1,153,44.21c-3.82,4-9.79,4.68-13.46,4.68h-12V.86Zm.07,20.67h2.24c1.8,0,4.25-.22,6-1.87a7.29,7.29,0,0,0,1.88-5.47,6,6,0,0,0-1.73-4.61c-1.66-1.59-3.75-1.8-5.83-1.8h-2.53Zm0,20.45h4.47c2.09,0,5.4-.36,7.27-1.87A6.89,6.89,0,0,0,149,34.78a7.16,7.16,0,0,0-1.95-5c-2-1.95-5-2.16-7.56-2.16h-4.61Z"/>
        <path class="cls-1" d="M172.73.86v48h-7.35V.86Z"/>
        <path class="cls-1" d="M191.59.86V42H205.7v6.91H184.25V.86Z"/>
        <path class="cls-1" d="M220,.86V42h14.11v6.91H212.61V.86Z"/>
        <path class="cls-1" d="M267.48,7.78H248.32V20H266.9v6.91H248.32V42h19.16v6.91H241V.86h26.5Z"/>
        <path class="cls-1" d="M287.06.86c6.7,0,12.53.72,17.86,4.68a23.8,23.8,0,0,1,9.22,19.37c0,8-3.32,14.91-9.65,19.37-5.62,4-10.88,4.61-17.57,4.61H277V.86ZM284.32,42h3.17c3.6,0,8.57-.29,12.75-3.38a17,17,0,0,0,6.55-13.69,17.1,17.1,0,0,0-6.48-13.82c-4.18-3-9.29-3.31-12.82-3.31h-3.17Z"/>
        <path class="cls-1" d="M349.85,7.78H330.69V20h18.58v6.91H330.69V42h19.16v6.91h-26.5V.86h26.5Z"/>
        <path class="cls-1" d="M357.62,14c-.14-1.66-.14-2.23-.14-2.45A11.41,11.41,0,0,1,360.72,3a11.75,11.75,0,0,1,8.42-3,12.15,12.15,0,0,1,8.71,3.17,10.66,10.66,0,0,1,3.1,8.06,10.25,10.25,0,0,1-4.25,8.86,24.06,24.06,0,0,1-5,2.52l-2.16.86a8.67,8.67,0,0,0-2.88,1.59,3.78,3.78,0,0,0-1.08,2.59,3.68,3.68,0,0,0,1.22,2.81,3.2,3.2,0,0,0,2.16.72,3.5,3.5,0,0,0,2.74-1.08,5.65,5.65,0,0,0,1.15-3.82h7.06a12.07,12.07,0,0,1-3.17,8.35,11.42,11.42,0,0,1-15.41.08,10.47,10.47,0,0,1-3-7.64,9,9,0,0,1,2.3-6.19c1.66-1.8,4.25-2.88,6.27-3.67,1.87-.72,3.89-1.3,5.26-2.52a4.52,4.52,0,0,0,1.58-3.6,4.62,4.62,0,0,0-1.23-3.39,4.86,4.86,0,0,0-3.31-1.22,4.59,4.59,0,0,0-3.31,1.3,5.53,5.53,0,0,0-1.22,3.81A13,13,0,0,0,365,14Zm11.66,27.22A4.32,4.32,0,1,1,365,45.51,4.33,4.33,0,0,1,369.28,41.19Z"/>
      </g>
    </g>
  </g>
</svg>
