<svg xmlns="http://www.w3.org/2000/svg" xmlns:xlink="http://www.w3.org/1999/xlink" viewBox="0 0 600 200.3"><defs><style>.cls-1{fill:none;}.cls-2{fill:#fc9;}.cls-3{fill:#f9f9f9;}.cls-4{fill:#d8a356;}.cls-5{fill:#efbb60;}.cls-6{fill:#f7c394;}.cls-7{fill:#3d3d3d;}</style><symbol id="h8" data-name="h8" viewBox="0 0 200.33 200.3"><path class="cls-1" d="M0,200.21q100.05,0,200.1.08c0-66.63.28-133.27.21-199.9C133.62.23,66.92.26.2,0-.06,66.73.07,133.47,0,200.21Z"/><path class="cls-2" d="M198.07,120.47C180.41,110,149.48,93.86,138.2,77.3c-1.35-6.65.53-17-4.89-22.33-3.56-3.5-8-4.92-11.66-8.67-1.34-1.38-3.94-6.43-5-7-5-2.61-3,5-1.48,8.16,1,2.15,9.69,7.62,8.52,10.22C122.2,61,84.39,42.93,80.32,42.35c-5.9-.85,10.49,11,11.87,12.53.53.58-14.2-3.63-11,.89,1.65,2.33,17.49.77,15.28,7-1.29-.38-13.11-6-13.06-2.66s11.77,7.52,14,10.47-10.3-5.8-9.43-3.46c3.63,9.85,25.78,17.4,40,22.38,12.75,4.48,48,45.2,59.12,58.89C191.32,139.44,194.31,129.73,198.07,120.47Z"/><path d="M101.61,83.82c5.36-1.47,12.28-3.69,17.49-5.58,2.61-.95,3.62-2.51,2.76-5.32C118,60,113.73,45.63,109.45,32.82c-.93-2.79-2.68-3.52-5.38-2.81-5.42,1.43-12.47,3.55-17.75,5.41-2.63.93-3.67,2.47-2.82,5.31,3.89,13,8.51,27.42,12.78,40.33C97.22,83.87,98.94,84.55,101.61,83.82Z"/><path class="cls-3" d="M99.57,80.71l20-6.36c-4.44-14-8.59-28-13-42-6.76,2.06-13.52,4.1-20.27,6.17Q92.85,59.63,99.57,80.71Z"/><path class="cls-2" d="M98.27,54.34c2.56-.68,4.07-1.66,4.6-4.45s.73-8.14-2.47-8.6-4.43,2.42-5.09,4a10.41,10.41,0,0,0-.67,3.26c-.19,1.06.65,3.15,1,4.1A2.92,2.92,0,0,0,98.27,54.34Z"/><path class="cls-4" d="M99.07,51.6a4.39,4.39,0,0,0-1.24-.72c-.33-.08-.26.12-.54-.05a2.2,2.2,0,0,1-.9.49c.2.47.29,1,.94,1.08A2.23,2.23,0,0,0,99.07,51.6Z"/><path d="M99.34,48c0-.22.31-.26.47-.22s.43.11.37.29-.33.25-.5.21S99.32,48.22,99.34,48Z"/><path d="M95.38,47.72c.06-.15.27-.16.4-.13s.29.12.23.26-.27.13-.39.11S95.32,47.86,95.38,47.72Z"/><path class="cls-5" d="M97.78,47.62c-.13.79-.46,1.26-1.17,1.36,0,0-.23,0-.07.23s1,.32,1.27.51C97.81,49,97.79,48.32,97.78,47.62Z"/><path class="cls-2" d="M100.17,52.87a5.58,5.58,0,0,1,.92,3.71,8.13,8.13,0,0,0-2.5,2.15,69.14,69.14,0,0,0-3,9.67,16.7,16.7,0,0,0,.63,1.88s2.38-8.08,3.53-9.49c.37,2,.64,4.78.81,6.66a12,12,0,0,1-.28,4.39,22.4,22.4,0,0,0,.24,8.53c2.77-.72,6.52-2.14,9.28-2.92.28-2-1.46-4.13-2.72-5.42s-.53-4.57-.28-5.86.39-2.27.63-3.09.22-1.1,1-.3a12.39,12.39,0,0,1,2.23,3.69,9.24,9.24,0,0,0,3.2,3.56c.05,0,0,.21.05.45s.19.47.45.85a10.2,10.2,0,0,1,.55,2.17.94.94,0,0,0,.25-.63,11.2,11.2,0,0,0-.07-1.32c0-.28-.14-.17,0-.37s.41-.14.73.2a8,8,0,0,1,1.18,1.46c.26.49.56.52.36,0,0,.09.17.44.3.32s0-.42-.1-.55c.06.06.14.21.25.1s-.05-.48-.12-.59.23.3.21-.07a5.9,5.9,0,0,0-.86-1.8c-.34-.53-1.2-.58-1.82-.76s-.68-.24-1.09-1-1.17-1.62-1.86-2.75A10.82,10.82,0,0,1,111,62.42c-.71-2.15-4.13-6-7.52-5.66a9.44,9.44,0,0,1-.4-5.44C101.26,50.13,100.61,51.08,100.17,52.87Z"/><path d="M103.05,51.32c-1.67-.31-.82-2.5-1.06-3.28-.38-1.23-1.46-1.61-2-2-1.41-1-1.5-1.95-1.78-3.4a7,7,0,0,0-3,2.77c.52-2.57,1.68-3.65,4.11-4.66a4.29,4.29,0,0,1,4.87.9c-1.37.61,7.29,7.56,2.51,6.25-.23-.06.66.73.85.85-.13.07-1.2.67-1.35.71.2,0,.43-.17.62-.07C107.17,49.56,105.32,51.74,103.05,51.32Z"/><path class="cls-6" d="M106.73,62.21a3.32,3.32,0,0,1-1.59,3.91,2.37,2.37,0,0,1-3.32-1.62,3.29,3.29,0,0,1,1.38-4A2.59,2.59,0,0,1,106.73,62.21Z"/><path class="cls-6" d="M103.54,62.62a3.18,3.18,0,0,1-1.47,3.84c-1.42.73-2.8-.23-3.35-1.66a3.07,3.07,0,0,1,1.3-3.94A2.61,2.61,0,0,1,103.54,62.62Z"/></symbol></defs><title>Layer 1 (4)</title><g id="Layer_2" data-name="Layer 2"><g id="Layer_1-2" data-name="Layer 1"><g id="_Group_" data-name="&lt;Group&gt;"><rect class="cls-1" x="400" width="200" height="200" transform="translate(1000 200) rotate(180)"/><path class="cls-2" d="M598,120.14c-17.71-10.46-48.6-26.56-59.95-43.14-1.46-6.66.59-17-5-22.35-3.67-3.51-11.2-7.47-15.09-11.12-1.44-1.35-2.92-4-4-4.53-4-2-.89,6.4,0,9,.77,2.25,10.54,6.79,9.29,9.45-1.6,3.41-39.55-14-43.69-14.55-6-.82,10.65,10.85,12,12.32.5.56-13.75-3.64-10.91,1.08C482.36,59.07,496,59,496,63.05c0,1.34-13.14-5.77-13-2.41s11.86,7.28,14.14,10.18-10.36-5.58-9.47-3.28c3.74,9.69,26.11,16.9,40.2,21.76,12.69,4.38,48.15,45.24,59.25,58.86C591.33,139.15,594.3,129.42,598,120.14Z"/><rect x="489" y="31" width="27" height="51" rx="4.2" ry="4.2" transform="translate(998.44 -42.19) rotate(162.33)"/><rect class="cls-7" x="492.21" y="33.97" width="20.94" height="44.27" transform="translate(998.68 -43.03) rotate(162.33)"/><path class="cls-2" d="M500.5,78.43"/></g><rect class="cls-1" width="200" height="200" transform="translate(200 200) rotate(180)"/><path class="cls-2" d="M197.84,120.33c-18-10.72-48-26.51-59.84-43.32-1.43-6.57.44-16.91-4.75-22.2-3.41-3.48-9.17-7.42-11.6-12a14.33,14.33,0,0,0-3.17-4.18c-4.4-3.3-2.75,4.45-1.65,7.31,1.17,3,7.46,9,6.9,11.26C123,60.09,83.76,40.06,80,41c-4,1,10.29,11.87,12,13.38,1.26,1.09-11.69-3.46-11,1.1.63,4.18,17.36,1.08,15.31,6.8-.45,1.27-13.17-5.79-13.09-2.43s11.8,7.37,14,10.31S87,64.54,87.84,66.82c3.6,9.57,25.89,17.29,40,22.39,12.7,4.6,47.81,45.28,58.9,59.05C191,139.29,194,129.58,197.84,120.33Z"/><rect x="89" y="31" width="27" height="51" rx="4.2" ry="4.2" transform="translate(217.31 79.22) rotate(162.33)"/><rect class="cls-3" x="92.21" y="33.97" width="20.94" height="44.27" transform="translate(217.55 78.39) rotate(162.33)"/><path class="cls-2" d="M98.45,54c2.57-.63,4.11-1.58,4.7-4.35s.9-8.12-2.29-8.65-4.48,2.32-5.17,3.91A10.21,10.21,0,0,0,95,48.16c-.21,1.05.58,3.16.94,4.12A2.92,2.92,0,0,0,98.45,54Z"/><path class="cls-4" d="M99.31,51.27a5,5,0,0,0-1.22-.75c-.33-.08-.27.12-.54-.05a2.37,2.37,0,0,1-.92.47c.2.47.27,1,.92,1.1A2.24,2.24,0,0,0,99.31,51.27Z"/><path d="M99.66,47.67c0-.22.31-.25.47-.21s.43.12.37.3-.34.24-.51.2S99.63,47.9,99.66,47.67Z"/><path d="M95.71,47.31c.06-.14.27-.15.4-.12s.28.13.22.27-.27.12-.39.1S95.64,47.46,95.71,47.31Z"/><path class="cls-5" d="M98.11,47.27c-.15.78-.49,1.24-1.21,1.33,0,0-.22,0-.06.23s1,.34,1.25.53C98.11,48.68,98.1,48,98.11,47.27Z"/><path class="cls-2" d="M100.38,52.56a5.53,5.53,0,0,1,.84,3.74,8.12,8.12,0,0,0-2.54,2.09A71,71,0,0,0,95.5,68s.36,1.35.59,1.89c0,0,2.55-8,3.74-9.41.32,2,.53,4.79.67,6.67a11.91,11.91,0,0,1-.38,4.38,22.52,22.52,0,0,0,.06,8.54c2.78-.66,6.56-2.28,9.33-3,.33-2-1.37-3.89-2.6-5.2s-.43-4.58-.15-5.87.44-2.25.7-3.07.24-1.1,1-.28a12.39,12.39,0,0,1,2.16,3.73A9.08,9.08,0,0,0,113.72,70s0,.21,0,.46.19.47.44.85a10.84,10.84,0,0,1,.5,2.18.94.94,0,0,0,.26-.62,9.51,9.51,0,0,0,0-1.32c0-.28-.14-.17,0-.37s.42-.13.73.21a9.13,9.13,0,0,1,1.15,1.49c.25.49.55.53.35,0,0,.09.17.44.3.32s0-.42-.09-.55c0,.06.13.22.25.11s0-.49-.11-.6.23.31.22-.06a6.16,6.16,0,0,0-.83-1.82c-.33-.54-1.19-.61-1.8-.8s-.68-.25-1.07-1.06-1.14-1.64-1.8-2.79A10.92,10.92,0,0,1,111,62.35c-.67-2.17-4-6.05-7.4-5.83a9.35,9.35,0,0,1-.28-5.45C101.53,49.85,100.86,50.79,100.38,52.56Z"/><path d="M103.3,51.07c-1.67-.34-.77-2.51-1-3.29-.34-1.24-1.41-1.65-2-2.08-1.39-1.06-1.46-2-1.71-3.44A7,7,0,0,0,95.54,45c.58-2.56,1.77-3.61,4.21-4.57a4.29,4.29,0,0,1,4.85,1c-1.38.59,7.13,7.72,2.38,6.31-.23-.07.65.73.83.86-.13.07-1.21.65-1.36.68.2,0,.43-.15.62,0C107.45,49.4,105.56,51.54,103.3,51.07Z"/><path class="cls-6" d="M106.75,62a3.33,3.33,0,0,1-1.68,3.88,2.36,2.36,0,0,1-3.28-1.69,3.28,3.28,0,0,1,1.46-4A2.6,2.6,0,0,1,106.75,62Z"/><path class="cls-6" d="M103.55,62.39a3.17,3.17,0,0,1-1.55,3.8c-1.45.7-2.8-.29-3.32-1.73a3.07,3.07,0,0,1,1.38-3.91A2.62,2.62,0,0,1,103.55,62.39Z"/><use width="200.33" height="200.3" transform="translate(196.15)" xlink:href="#h8"/></g></g></svg>
