<svg xmlns="http://www.w3.org/2000/svg" width="404.07" height="356.79" viewBox="0 0 404.07 356.79">
  <defs>
    <style>
      .cls-1 {
        opacity: 0.2;
      }

      .cls-2 {
        fill: #3e4556;
      }

      .cls-3 {
        fill: #fff;
      }
    </style>
  </defs>
  <title>ja</title>
  <g id="Layer_2" data-name="Layer 2">
    <g id="Layer_1-2" data-name="Layer 1">
      <g>
        <polygon class="cls-1" points="107.88 356.79 401.78 62.89 280.07 2.67 0 282.74 107.88 356.79"/>
        <rect class="cls-2" x="275.68" width="128.4" height="67.66" rx="12" ry="12"/>
        <g>
          <path class="cls-3" d="M326,19.38V37.71A14.32,14.32,0,0,1,325,44.15a7.07,7.07,0,0,1-6.66,4.08,9,9,0,0,1-5-1.45l2.12-3.64a4.37,4.37,0,0,0,3,1,2.81,2.81,0,0,0,2.84-1.9c.26-.64.47-1.66.47-4.54V19.38Z"/>
          <path class="cls-3" d="M349,40.85H336.92l-3.1,6.82h-4.66l14.08-29.94,13.4,29.94H352Zm-1.74-4.08-4.2-9.58-4.37,9.58Z"/>
          <path class="cls-3" d="M362.16,43.09a2.55,2.55,0,1,1-2.55,2.55A2.55,2.55,0,0,1,362.16,43.09Zm-2.08-2.41V19.38h4.15v21.3Z"/>
        </g>
      </g>
    </g>
  </g>
</svg>
