<svg id="Layer_1" data-name="Layer 1" xmlns="http://www.w3.org/2000/svg" xmlns:xlink="http://www.w3.org/1999/xlink" width="200" height="300" viewBox="0 0 200 300">
  <defs>
    <style>
      .cls-1 {
        fill: #ba4949;
        opacity: 0;
      }

      .cls-2 {
        fill: #f8f8f8;
      }

      .cls-3 {
        fill: #f0ca99;
      }

      .cls-4 {
        fill: #c8a15b;
      }

      .cls-5 {
        fill: #e0b966;
      }

      .cls-6 {
        fill: #e8c194;
      }

      .cls-7 {
        fill: #f8e736;
      }

      .cls-8 {
        fill: #fff;
      }

      .cls-9 {
        fill: #14120e;
      }
    </style>
    <symbol id="mobil_snap" data-name="mobil_snap" viewBox="0 0 100 100">
      <g id="snap_symbol">
        <rect class="cls-1" width="100" height="100"/>
        <path d="M51.12,77.12,33.4,71.48a4.22,4.22,0,0,1-2.73-5.29L43.6,25.61a4.21,4.21,0,0,1,5.28-2.73L66.6,28.52a4.22,4.22,0,0,1,2.73,5.29L56.4,74.39A4.21,4.21,0,0,1,51.12,77.12Z"/>
        <polygon class="cls-7" points="53.07 73.87 33.12 67.51 46.56 25.33 66.51 31.69 53.07 73.87"/>
        <g>
          <path class="cls-8" d="M47.78,56.78l-.14-.05h0l-.09,0A4.16,4.16,0,0,1,45.43,55a3.68,3.68,0,0,0-1.18-1.15,5.42,5.42,0,0,0-.72-.29,5.65,5.65,0,0,0-1.05-.2,2.87,2.87,0,0,1-.4-.06.26.26,0,0,1-.21-.27l0-.45c0-.37.05-.6-.09-.67-1.62-.79-2-1.3-2-1.59a.2.2,0,0,1,0-.11.2.2,0,0,1,.23-.15c2.74.38,4.73-1.93,4.82-2h0a1.09,1.09,0,0,0,.36-.81c-.05-.48-.58-.84-.93-1.09L44.05,46c-.68-.54-.65-.88-.57-1a.77.77,0,0,1,.85-.24.55.55,0,0,1,.2.11,2.31,2.31,0,0,0,.85.53.8.8,0,0,0,.61,0c0-.18.1-.37.14-.57a9.68,9.68,0,0,1,1.35-3.57,4.94,4.94,0,0,1,5.25-1.47l.33.1h0A4.94,4.94,0,0,1,56.61,44a9.53,9.53,0,0,1-.91,3.71l0,0-.18.49a.69.69,0,0,0,.45.33h0a2.45,2.45,0,0,0,.95,0,.83.83,0,0,1,.29,0,.9.9,0,0,1,.29.16h0a.61.61,0,0,1,.29.61c-.05.18-.27.41-1,.47h-.28c-.43,0-1.07,0-1.38.38a1,1,0,0,0-.17.86h0a5.86,5.86,0,0,0,2.83,4.4.21.21,0,0,1,.1.25l-.06.1c-.19.21-.79.42-2.56.16-.15,0-.26.14-.46.49-.07.13-.15.26-.23.39a.24.24,0,0,1-.3.1h0a3.33,3.33,0,0,1-.37-.17,5.13,5.13,0,0,0-1-.42,4.67,4.67,0,0,0-.76-.17,3.78,3.78,0,0,0-1.62.28,4.12,4.12,0,0,1-2.72.21Z"/>
          <path class="cls-9" d="M53.16,39.65h0l-.32-.1a5.14,5.14,0,0,0-5.46,1.53,9.55,9.55,0,0,0-1.39,3.66c0,.15-.08.3-.11.45a.69.69,0,0,1-.39,0,2.05,2.05,0,0,1-.77-.49.69.69,0,0,0-.28-.15,1,1,0,0,0-1.09.34c-.13.25-.13.67.62,1.28l.24.17c.32.22.8.56.84.94a.86.86,0,0,1-.3.65v0c-.09.09-2,2.31-4.65,2a.4.4,0,0,0-.44.3.37.37,0,0,0,0,.18c0,.5.74,1.07,2.12,1.74a1.57,1.57,0,0,1,0,.48l0,.46a.45.45,0,0,0,.35.47,2.39,2.39,0,0,0,.44.07,5.05,5.05,0,0,1,1,.19,5,5,0,0,1,.69.28,3.58,3.58,0,0,1,1.11,1.09,4.33,4.33,0,0,0,2.22,1.78l.1,0,.13,0a4.37,4.37,0,0,0,2.84-.21,3.47,3.47,0,0,1,1.53-.27,4.1,4.1,0,0,1,.73.16,5.09,5.09,0,0,1,1,.41,2.1,2.1,0,0,0,.4.18h0a.44.44,0,0,0,.53-.18c.09-.14.16-.27.23-.4a2,2,0,0,1,.27-.39c1.51.22,2.41.14,2.73-.24a.42.42,0,0,0,.09-.16.38.38,0,0,0-.19-.49c-2.38-1.19-2.71-4.12-2.73-4.24v0a.85.85,0,0,1,.12-.7c.25-.3.84-.3,1.23-.31h.29c.7-.06,1.11-.26,1.21-.62a.78.78,0,0,0-.36-.82h0a1.13,1.13,0,0,0-.36-.19.87.87,0,0,0-.38,0,2.19,2.19,0,0,1-.86,0,.73.73,0,0,1-.29-.17c.05-.13.1-.25.15-.39l0,0a9.53,9.53,0,0,0,.92-3.8,5.15,5.15,0,0,0-3.65-4.36ZM53,40a4.77,4.77,0,0,1,3.38,4,9.44,9.44,0,0,1-.91,3.62l-.2.54,0,.08,0,.07a1,1,0,0,0,.57.44h0a2.66,2.66,0,0,0,1,0,.47.47,0,0,1,.2,0,1,1,0,0,1,.23.12h0c.16.12.25.28.22.39s-.13.27-.86.33h-.27a2,2,0,0,0-1.52.45,1.21,1.21,0,0,0-.21,1,6.07,6.07,0,0,0,2.94,4.56l0,0c-.07.09-.48.37-2.38.09-.29,0-.46.25-.65.59a3.85,3.85,0,0,1-.23.38s0,0-.07,0h0A1.9,1.9,0,0,1,54,56.7a6.36,6.36,0,0,0-1-.43,5,5,0,0,0-.79-.18,3.82,3.82,0,0,0-1.71.29,4,4,0,0,1-2.6.21l-.13-.05h0l-.08,0a3.94,3.94,0,0,1-2-1.63,4,4,0,0,0-1.25-1.21,5.86,5.86,0,0,0-.75-.3,5.47,5.47,0,0,0-1.09-.21,2.21,2.21,0,0,1-.36,0c-.07,0-.07,0-.07-.08l0-.44c0-.39.06-.73-.21-.86-1.72-.84-1.89-1.3-1.9-1.43s0,0,0,0a6,6,0,0,0,5-2.1,1.23,1.23,0,0,0,.41-1c-.06-.57-.63-1-1-1.23l-.22-.16c-.48-.38-.58-.65-.51-.77s.38-.22.61-.15a.4.4,0,0,1,.13.07,2.46,2.46,0,0,0,.92.57,1,1,0,0,0,.78,0l.07,0,0-.08c0-.18.09-.37.14-.57a9.53,9.53,0,0,1,1.3-3.49,4.76,4.76,0,0,1,5-1.41L53,40h0"/>
        </g>
        <g>
          <path d="M45.77,51.51l.62-2,.51.16.58,1.51L47.86,50l.51.16-.61,2L47.24,52l-.58-1.52-.37,1.22Z"/>
          <path d="M49.78,51.05l-.61-.19-.1.33.58.18-.14.44-.58-.18-.11.35.62.19-.14.43-1.13-.35.62-2,1.13.35Z"/>
          <path d="M50.58,50.82l0,1.39.82-1.15.41.12v1.41l.77-1.17.54.17-1.25,1.79-.53-.16V52l-.74,1L50,52.83l0-2.18Z"/>
        </g>
        <path d="M51.12,43.88l-.67-.21.32-1,1.88.58L51.2,47.91,50,47.54Z"/>
      </g>
    </symbol>
    <symbol id="mobil_m_pige" data-name="mobil_m_pige" viewBox="0 0 100 100">
      <rect class="cls-1" width="100" height="100"/>
      <g id="pige_symbol">
        <rect class="cls-1" width="100" height="100"/>
        <path d="M51.12,77.12,33.4,71.48a4.22,4.22,0,0,1-2.73-5.29L43.6,25.61a4.21,4.21,0,0,1,5.28-2.73L66.6,28.52a4.22,4.22,0,0,1,2.73,5.29L56.4,74.39A4.21,4.21,0,0,1,51.12,77.12Z"/>
        <polygon class="cls-2" points="33.13 67.52 53.08 73.87 66.51 31.68 46.56 25.34 33.13 67.52"/>
        <path class="cls-3" d="M48.51,45.68c2.41,1.1,4.2,1.31,6.38-.51s5.73-5.82,3.56-8.21-5-1-6.49-.13a10.15,10.15,0,0,0-2.59,2.1c-.82.7-1.5,2.84-1.81,3.82A2.9,2.9,0,0,0,48.51,45.68Z"/>
        <path d="M62.43,43.56c-1.32-.62-2.42-.29-2.19-2.62.15-1.52.21-4.38-2.3-5.14a5.61,5.61,0,0,0-6,1.15,3.9,3.9,0,0,1,4-.38c-.71,1.3-1.21,2.06-.78,3.75a4.26,4.26,0,0,1,.27,2.86c-.28.75-1.06,2.07-.19,3.24a3.25,3.25,0,0,0,4.06,1.14,2.84,2.84,0,0,1-1.53-.66c.94.43,2-.19,2.77-.64a2.14,2.14,0,0,1-1.11-1.78C60.45,45.45,61.69,44.24,62.43,43.56Z"/>
        <path class="cls-4" d="M50.87,44.07a4.54,4.54,0,0,0-.5-1.34c-.21-.27-.28-.07-.39-.38a2.16,2.16,0,0,1-1-.2c-.14.49-.43,1,0,1.44A2.22,2.22,0,0,0,50.87,44.07Z"/>
        <path d="M53.37,41.46c.16-.16.41,0,.5.13s.27.35.11.46-.42,0-.52-.16S53.21,41.62,53.37,41.46Z"/>
        <path d="M50.49,38.73c.14-.07.31.05.39.16s.14.27,0,.34-.29-.07-.37-.16S50.35,38.81,50.49,38.73Z"/>
        <path class="cls-5" d="M52.4,40.19a1.37,1.37,0,0,1-1.77.29s-.17-.14-.19.14.54.87.65,1.2C51.53,41.29,52,40.73,52.4,40.19Z"/>
        <path class="cls-3" d="M49.94,45.46A5.57,5.57,0,0,1,48.58,49a8.24,8.24,0,0,0-3.28.34c-.85.39-8,5.27-8.28,5.79a21,21,0,0,0-.61,2s7-4.94,8.7-5.44c-.83,1.85-2.19,4.29-3.12,5.94a12,12,0,0,1-2.73,3.44A20.7,20.7,0,0,0,34.75,68c2.69,1,6.59,2,9.3,3,1.38-1.49,1-4,.69-5.78s2.16-4,3.11-5,1.61-1.64,2.27-2.18.81-.78,1,.31a12.64,12.64,0,0,1-.26,4.31,9,9,0,0,0,.6,4.74c0,.06-.08.2-.22.4a2,2,0,0,0-.1,1,11.38,11.38,0,0,1-.79,2.09c0,.05.38-.11.56-.37a10.62,10.62,0,0,0,.69-1.12c.12-.26,0-.23.25-.28s.42.12.49.57a8.56,8.56,0,0,1,.14,1.87c-.06.56.16.75.31.18,0,.09-.1.45.07.43s.22-.36.23-.51c0,.08,0,.25.15.22s.24-.42.24-.55,0,.38.21.06a5.8,5.8,0,0,0,.31-2c0-.63-.65-1.16-1.06-1.65s-.42-.59-.31-1.48,0-2,.05-3.32a10.54,10.54,0,0,1,.72-3.43c.63-2.18,0-7.26-3-8.94A9.91,9.91,0,0,1,53.5,45.8C52.7,43.81,51.32,44.24,49.94,45.46Z"/>
        <path class="cls-6" d="M50.05,57.13a3.31,3.31,0,0,1-3.71,2,2.37,2.37,0,0,1-1.54-3.36c.57-1.44,2.05-2.66,3.63-2.26A2.59,2.59,0,0,1,50.05,57.13Z"/>
        <path class="cls-6" d="M47.32,55.43a3.17,3.17,0,0,1-3.57,2c-1.56-.34-2-2-1.53-3.41a3.07,3.07,0,0,1,3.51-2.22A2.61,2.61,0,0,1,47.32,55.43Z"/>
      </g>
    </symbol>
    <symbol id="mobil_snap_spejl" data-name="mobil_snap_spejl" viewBox="0 0 100 100">
      <g id="snap_symbol_spejl">
        <rect class="cls-1" width="100" height="100"/>
        <path d="M70,68.39,53.45,76.92a4.21,4.21,0,0,1-5.67-1.8L28.23,37.28A4.21,4.21,0,0,1,30,31.61l16.52-8.53a4.21,4.21,0,0,1,5.67,1.8L71.77,62.72A4.21,4.21,0,0,1,70,68.39Z"/>
        <polygon class="cls-7" points="69.05 64.7 50.45 74.32 30.13 34.99 48.73 25.38 69.05 64.7"/>
        <g>
          <path class="cls-8" d="M53.22,56.36l-.13.06h0l-.08,0a4.16,4.16,0,0,1-2.71.3,3.62,3.62,0,0,0-1.64,0,4.55,4.55,0,0,0-.72.3,5,5,0,0,0-.88.61,2.94,2.94,0,0,1-.33.23.25.25,0,0,1-.34,0l-.29-.34c-.24-.29-.4-.46-.54-.41-1.7.59-2.33.49-2.55.31a.24.24,0,0,1-.08-.09.2.2,0,0,1,0-.26c2.21-1.67,2-4.71,2-4.84h0a1.06,1.06,0,0,0-.32-.82,1.84,1.84,0,0,0-1.42-.11l-.28,0c-.86.09-1.08-.16-1.13-.33a.76.76,0,0,1,.44-.77.42.42,0,0,1,.21-.06,2.4,2.4,0,0,0,1-.23.79.79,0,0,0,.43-.44l-.3-.49A9.69,9.69,0,0,1,42,45.56a4.94,4.94,0,0,1,2.68-4.75l.3-.16,0,0a5,5,0,0,1,5.45.48,9.7,9.7,0,0,1,2,3.27l0,.05q.1.26.21.48a.76.76,0,0,0,.56-.09h0a2.42,2.42,0,0,0,.69-.65.61.61,0,0,1,.23-.18.75.75,0,0,1,.31-.1h0a.59.59,0,0,1,.63.22c.1.17.1.48-.4,1.06l-.19.21c-.3.3-.75.76-.71,1.23a1,1,0,0,0,.5.73h0c.1.08,2.49,2,5.12,1.1a.23.23,0,0,1,.27.22c0,.29-.25.86-1.7,1.93-.12.09-.08.28,0,.67,0,.14.08.28.11.44A.23.23,0,0,1,58,52h0a1.81,1.81,0,0,1-.37.14,5.32,5.32,0,0,0-1,.4A5.12,5.12,0,0,0,56,53a3.78,3.78,0,0,0-1,1.34,4.17,4.17,0,0,1-1.78,2.07Z"/>
          <path class="cls-9" d="M44.92,40.45h0l-.05,0h0l-.29.16a5.13,5.13,0,0,0-2.79,4.95,9.63,9.63,0,0,0,1.61,3.56l.24.4a.68.68,0,0,1-.29.25,2.21,2.21,0,0,1-.9.21.67.67,0,0,0-.3.08,1,1,0,0,0-.53,1c.09.27.38.57,1.34.47l.29-.05c.38-.07,1-.17,1.26.08a.83.83,0,0,1,.25.67v0c0,.12.22,3.06-1.9,4.66a.4.4,0,0,0-.1.53.53.53,0,0,0,.12.14c.39.31,1.28.22,2.73-.27a1.53,1.53,0,0,1,.33.34l.31.35a.45.45,0,0,0,.57.08,2.27,2.27,0,0,0,.36-.26,5.25,5.25,0,0,1,.86-.58,4.63,4.63,0,0,1,.68-.29,3.4,3.4,0,0,1,1.56,0,4.38,4.38,0,0,0,2.83-.32l.08,0,.13-.06a4.35,4.35,0,0,0,1.86-2.16,3.6,3.6,0,0,1,.89-1.27,3.83,3.83,0,0,1,.62-.4,4.92,4.92,0,0,1,1-.38,4,4,0,0,0,.41-.16h0a.43.43,0,0,0,.23-.5c0-.16-.07-.31-.11-.45a2,2,0,0,1-.09-.47c1.23-.91,1.81-1.6,1.77-2.09a.48.48,0,0,0,0-.18.4.4,0,0,0-.49-.22,5.68,5.68,0,0,1-4.92-1.07h0a.89.89,0,0,1-.41-.58c0-.39.38-.81.65-1.08l.21-.22c.45-.53.6-1,.42-1.29a.79.79,0,0,0-.83-.32h0a1.17,1.17,0,0,0-.39.12.85.85,0,0,0-.29.24,2.49,2.49,0,0,1-.63.6.86.86,0,0,1-.32.08l-.17-.38,0-.05a9.77,9.77,0,0,0-2-3.35,5.15,5.15,0,0,0-5.66-.49Zm.18.35a4.75,4.75,0,0,1,5.23.46,9.45,9.45,0,0,1,1.92,3.19c.08.19.16.36.24.53l0,.08.08,0a.87.87,0,0,0,.71-.09h0a2.74,2.74,0,0,0,.75-.71.43.43,0,0,1,.16-.13.67.67,0,0,1,.24-.07h0a.43.43,0,0,1,.43.12s.1.28-.38.83a2.68,2.68,0,0,1-.18.2,1.94,1.94,0,0,0-.77,1.39,1.21,1.21,0,0,0,.58.87,6,6,0,0,0,5.3,1.14.43.43,0,0,1,0,0c0,.12-.08.61-1.62,1.75-.24.18-.15.5,0,.88,0,.14.07.28.1.43s0,0,0,.07h0l-.34.12a6.18,6.18,0,0,0-1,.41,5.61,5.61,0,0,0-.68.44,3.83,3.83,0,0,0-1,1.41,3.93,3.93,0,0,1-1.69,2l-.12.06h0l-.07,0a3.92,3.92,0,0,1-2.59.28,3.92,3.92,0,0,0-1.74,0,5.47,5.47,0,0,0-.74.31,5.69,5.69,0,0,0-.92.63,2.17,2.17,0,0,1-.29.21c-.06,0-.07,0-.1,0a4.28,4.28,0,0,1-.29-.33c-.26-.3-.48-.56-.76-.47-1.81.63-2.26.42-2.36.35l0,0a6.05,6.05,0,0,0,2.06-5,1.21,1.21,0,0,0-.39-1,2,2,0,0,0-1.59-.16l-.26,0c-.61.07-.87,0-.91-.19s.12-.42.33-.53a.24.24,0,0,1,.13,0,2.68,2.68,0,0,0,1.07-.25.94.94,0,0,0,.52-.57l0-.08,0-.07c-.09-.16-.19-.32-.3-.49a9.72,9.72,0,0,1-1.55-3.39A4.76,4.76,0,0,1,44.77,41l.29-.16,0,0"/>
        </g>
        <g>
          <path d="M48.08,54.06l-1-1.85.47-.25,1.48.67-.59-1.13.47-.25,1,1.84-.48.25L48,52.68l.6,1.13Z"/>
          <path d="M50.59,50.9l-.57.3.16.3.54-.28.22.41-.54.28.17.32.56-.3.22.4-1.05.56-1-1.85,1.05-.55Z"/>
          <path d="M51,50.17l.95,1L51.7,49.8l.38-.21,1,1-.28-1.37.5-.26.38,2.15-.49.26-.89-.89.21,1.25L52,52l-1.52-1.56Z"/>
        </g>
        <path d="M46.46,44.88l-.62.33-.5-1,1.75-.92,2.28,4.35-1.12.59Z"/>
      </g>
    </symbol>
    <symbol id="mobil_m_pige_spejl" data-name="mobil_m_pige_spejl" viewBox="0 0 100 100">
      <g id="pige_symbol_spejl">
        <rect class="cls-1" width="100" height="100"/>
        <path d="M70,68.39,53.45,76.92a4.21,4.21,0,0,1-5.67-1.8L28.23,37.28A4.21,4.21,0,0,1,30,31.61l16.52-8.53a4.21,4.21,0,0,1,5.67,1.8L71.77,62.72A4.21,4.21,0,0,1,70,68.39Z"/>
        <polygon class="cls-2" points="50.46 74.32 69.05 64.7 48.72 25.38 30.12 34.99 50.46 74.32"/>
        <path class="cls-3" d="M45.89,48c2.48-.92,3.9-2,4.15-4.88S50,35,46.75,34.81s-4.18,2.83-4.67,4.5a10.28,10.28,0,0,0-.36,3.31c-.08,1.07,1,3.07,1.43,4A2.89,2.89,0,0,0,45.89,48Z"/>
        <path d="M54.24,36.66c-1.37.49-1.92,1.5-3.41-.31-1-1.18-2.94-3.24-5.26-2a5.6,5.6,0,0,0-3.46,5.09,3.91,3.91,0,0,1,2.56-3.11c.42,1.42.6,2.32,2.11,3.21A4.2,4.2,0,0,1,49,41.37c.34.73.73,2.21,2.17,2.43a3.27,3.27,0,0,0,3.67-2.07,2.8,2.8,0,0,1-1.54.61c1-.36,1.27-1.54,1.5-2.41a2.16,2.16,0,0,1-2.05-.47C54.17,39.39,54.19,37.65,54.24,36.66Z"/>
        <path class="cls-4" d="M46.42,45.2a4.34,4.34,0,0,0-1.3-.6c-.34-.05-.25.14-.54,0a2.36,2.36,0,0,1-.85.57c.24.44.39,1,1,1A2.24,2.24,0,0,0,46.42,45.2Z"/>
        <path d="M46.34,41.58c0-.23.29-.29.45-.27s.44.07.4.26-.31.28-.48.25S46.34,41.8,46.34,41.58Z"/>
        <path d="M42.38,41.69c0-.15.25-.18.38-.17s.3.09.25.24-.25.15-.37.15S42.33,41.84,42.38,41.69Z"/>
        <path class="cls-5" d="M44.76,41.36c-.06.79-.34,1.29-1,1.46,0,0-.22,0,0,.24s1,.23,1.31.38C44.92,42.76,44.83,42.05,44.76,41.36Z"/>
        <path class="cls-3" d="M46.75,46.83a5.62,5.62,0,0,1,1.57,3.49,8,8,0,0,0-2.08,2.56c-.33.88-2,9.41-1.76,9.95a19.06,19.06,0,0,0,1,1.87s1.41-8.41,2.3-10c.72,1.89,1.48,4.59,2,6.41a12,12,0,0,1,.5,4.36,20.68,20.68,0,0,0,1.65,8c2.59-1.2,6.1-3.21,8.67-4.48-.08-2-2.12-3.53-3.6-4.57s-1.33-4.4-1.32-5.72,0-2.29.07-3.14,0-1.13.92-.48a12.54,12.54,0,0,1,2.86,3.23,9,9,0,0,0,3.78,2.93c.06,0,.08.2.13.44s.27.42.6.75a10.24,10.24,0,0,1,.92,2,1,1,0,0,0,.14-.66,11.42,11.42,0,0,0-.31-1.28c-.1-.27-.17-.15,0-.37s.38-.21.75.06a8.31,8.31,0,0,1,1.42,1.22c.35.44.65.42.35-.1,0,.09.25.4.36.26s-.11-.41-.2-.52c.06,0,.17.18.26,0s-.13-.46-.22-.56.28.26.19-.11a5.86,5.86,0,0,0-1.17-1.61c-.43-.46-1.28-.36-1.92-.42s-.72-.11-1.27-.82S61.88,58.23,61,57.23a10.87,10.87,0,0,1-1.91-2.93c-1.09-2-5.14-5.13-8.41-4.23a9.94,9.94,0,0,1-1.18-5.51C47.53,43.72,46.86,45,46.75,46.83Z"/>
        <path class="cls-6" d="M55.08,55a3.32,3.32,0,0,1-1.2,4.05,2.37,2.37,0,0,1-3.46-1.29,3.29,3.29,0,0,1,1-4.16A2.59,2.59,0,0,1,55.08,55Z"/>
        <path class="cls-6" d="M52,55.73a3.18,3.18,0,0,1-1.09,4c-1.35.87-2.81,0-3.5-1.33a3.07,3.07,0,0,1,.91-4A2.62,2.62,0,0,1,52,55.73Z"/>
      </g>
    </symbol>
    <symbol id="mobil_m_pige_lige" data-name="mobil_m_pige_lige" viewBox="0 0 100 100">
      <g id="pige_symbol_vandret">
        <rect class="cls-1" width="100" height="100"/>
        <rect x="36.5" y="24.5" width="27" height="51" rx="4.2" ry="4.2"/>
        <polygon class="cls-2" points="39.24 71.81 60.17 71.81 60.17 27.54 39.23 27.54 39.24 71.81"/>
        <path class="cls-3" d="M47.27,46.34c2.63.32,4.4,0,5.93-2.43s3.69-7.29.89-8.9-5,.6-6.22,1.85A10.32,10.32,0,0,0,46,39.64c-.57.92-.57,3.16-.56,4.19A2.9,2.9,0,0,0,47.27,46.34Z"/>
        <path d="M59.89,40.1c-1.44-.2-2.39.45-2.88-1.84-.32-1.5-1.13-4.24-3.75-4.2A5.61,5.61,0,0,0,47.84,37a3.92,3.92,0,0,1,3.71-1.58c-.28,1.45-.53,2.33.39,3.82a4.19,4.19,0,0,1,1.12,2.64c0,.8-.37,2.29.81,3.15a3.26,3.26,0,0,0,4.21-.15,2.85,2.85,0,0,1-1.65-.16c1,.11,1.83-.79,2.44-1.46a2.13,2.13,0,0,1-1.6-1.36C58.58,42.5,59.39,41,59.89,40.1Z"/>
        <path class="cls-4" d="M49,44.09A4.43,4.43,0,0,0,48.15,43c-.28-.19-.29,0-.49-.24a2.19,2.19,0,0,1-1,.11c0,.51-.11,1.07.48,1.36A2.22,2.22,0,0,0,49,44.09Z"/>
        <path d="M50.62,40.84c.1-.2.38-.13.52,0s.36.26.24.41-.41.11-.55,0S50.52,41,50.62,40.84Z"/>
        <path d="M47.05,39.11c.11-.11.31,0,.42,0s.22.22.11.33-.3,0-.4,0S46.94,39.23,47.05,39.11Z"/>
        <path class="cls-5" d="M49.31,39.92a1.36,1.36,0,0,1-1.59.82s-.21-.08-.15.19.78.66,1,.94C48.82,41.24,49.06,40.57,49.31,39.92Z"/>
        <path class="cls-3" d="M48.57,45.69a5.58,5.58,0,0,1-.21,3.82,8.22,8.22,0,0,0-3,1.32c-.7.63-6.06,7.46-6.14,8a21,21,0,0,0,0,2.13s5.12-6.83,6.64-7.83c-.24,2-.79,4.76-1.18,6.6a12,12,0,0,1-1.55,4.11,20.47,20.47,0,0,0-2.22,7.89c2.85.12,6.89-.06,9.75,0,.86-1.84-.26-4.11-1.09-5.72s.83-4.51,1.45-5.68,1-2,1.51-2.76.53-1,1,0a12.38,12.38,0,0,1,1.06,4.18,9.06,9.06,0,0,0,2,4.34c0,.06,0,.22-.08.45a1.82,1.82,0,0,0,.18,1,10.45,10.45,0,0,1-.11,2.23c0,.05.33-.23.42-.53a9.21,9.21,0,0,0,.32-1.28c0-.28-.08-.21.15-.34s.44,0,.64.4a8.32,8.32,0,0,1,.7,1.74c.11.55.39.67.35.07,0,.1,0,.47.2.39s.09-.41.07-.55c0,.07.07.24.2.17s.1-.48.06-.61.14.37.23,0a6,6,0,0,0-.3-2c-.17-.61-1-.91-1.52-1.26s-.58-.42-.74-1.31-.64-1.89-1-3.18A10.81,10.81,0,0,1,56.1,58c-.06-2.26-2.21-6.91-5.53-7.61a9.86,9.86,0,0,1,1.49-5.44C50.69,43.29,49.51,44.12,48.57,45.69Z"/>
        <path class="cls-6" d="M52.22,56.78a3.33,3.33,0,0,1-2.93,3,2.37,2.37,0,0,1-2.49-2.74,3.3,3.3,0,0,1,2.78-3.25A2.61,2.61,0,0,1,52.22,56.78Z"/>
        <path class="cls-6" d="M49.1,56a3.17,3.17,0,0,1-2.79,3c-1.6.15-2.52-1.25-2.49-2.78A3.06,3.06,0,0,1,46.48,53,2.62,2.62,0,0,1,49.1,56Z"/>
      </g>
    </symbol>
    <symbol id="mobil_snap_lige" data-name="mobil_snap_lige" viewBox="0 0 100 100">
      <g id="snap_symbol_vandret">
        <rect class="cls-1" width="100" height="100"/>
        <rect x="36.5" y="24.5" width="27" height="51" rx="4.2" ry="4.2"/>
        <polygon class="cls-2" points="39.24 71.81 60.17 71.81 60.17 27.54 39.23 27.54 39.24 71.81"/>
        <polygon class="cls-7" points="60.1 71.83 39.16 71.79 39.24 27.52 60.18 27.56 60.1 71.83"/>
        <g>
          <path class="cls-8" d="M49.9,57.13h-.24a4.14,4.14,0,0,1-2.54-1,3.62,3.62,0,0,0-1.48-.74,5.09,5.09,0,0,0-.77-.06,5.26,5.26,0,0,0-1.06.12,1.76,1.76,0,0,1-.4.06.24.24,0,0,1-.28-.19c0-.15-.08-.3-.11-.44-.08-.36-.14-.59-.29-.61-1.78-.26-2.29-.63-2.4-.9a.23.23,0,0,1,0-.11.2.2,0,0,1,.16-.21c2.73-.47,3.94-3.27,4-3.39h0a1.05,1.05,0,0,0,.1-.88c-.19-.44-.81-.63-1.21-.76L43.07,48c-.81-.32-.88-.65-.85-.81a.77.77,0,0,1,.74-.49.48.48,0,0,1,.22,0,2.4,2.4,0,0,0,1,.25.79.79,0,0,0,.58-.19c0-.18,0-.37,0-.57a9.64,9.64,0,0,1,.2-3.82,4.94,4.94,0,0,1,4.57-3h.39a5,5,0,0,1,4.61,2.93,9.71,9.71,0,0,1,.25,3.81v.06c0,.18,0,.36,0,.52a.75.75,0,0,0,.53.18h0a2.35,2.35,0,0,0,.91-.26.8.8,0,0,1,.29,0,.75.75,0,0,1,.33.06h0c.28.09.46.28.46.49s-.13.47-.84.75l-.27.1c-.4.13-1,.32-1.2.77a1,1,0,0,0,.11.87h0A5.89,5.89,0,0,0,59,53a.2.2,0,0,1,.17.2.27.27,0,0,1,0,.12c-.11.26-.62.64-2.39.92-.15,0-.2.22-.29.61,0,.15-.06.29-.1.44a.24.24,0,0,1-.25.19h0a1.71,1.71,0,0,1-.39,0,6.29,6.29,0,0,0-1.07-.1,4.08,4.08,0,0,0-.77.07,3.58,3.58,0,0,0-1.46.75,4.16,4.16,0,0,1-2.53,1Z"/>
          <path class="cls-9" d="M49.85,39.18h-.38a5.13,5.13,0,0,0-4.75,3.1,9.74,9.74,0,0,0-.22,3.91l0,.47a.8.8,0,0,1-.37.08,2.09,2.09,0,0,1-.89-.23.75.75,0,0,0-.31-.06,1,1,0,0,0-.93.65c-.05.28.07.68,1,1l.28.09c.37.12.93.29,1.08.65a.86.86,0,0,1-.09.71v0c-.05.11-1.22,2.81-3.84,3.26a.41.41,0,0,0-.33.42.58.58,0,0,0,0,.18c.2.46,1,.79,2.55,1a2.42,2.42,0,0,1,.14.45,4.35,4.35,0,0,0,.11.46.45.45,0,0,0,.47.33,2.84,2.84,0,0,0,.44-.06,4.91,4.91,0,0,1,1-.12,4.71,4.71,0,0,1,.74.06,3.32,3.32,0,0,1,1.39.7,4.35,4.35,0,0,0,2.66,1h.24a4.36,4.36,0,0,0,2.64-1,3.47,3.47,0,0,1,1.38-.72,3.78,3.78,0,0,1,.74-.07,5.79,5.79,0,0,1,1,.1,2,2,0,0,0,.43,0h0a.43.43,0,0,0,.44-.33c0-.16.08-.31.11-.45a1.84,1.84,0,0,1,.13-.46c1.51-.24,2.34-.59,2.54-1a1,1,0,0,0,0-.18.4.4,0,0,0-.34-.41,5.7,5.7,0,0,1-3.88-3.22v0a.83.83,0,0,1-.1-.71c.15-.35.71-.53,1.07-.65l.28-.1c.66-.26,1-.58,1-1a.77.77,0,0,0-.59-.67h0a1.06,1.06,0,0,0-.4-.08,1.12,1.12,0,0,0-.37.08,2.17,2.17,0,0,1-.83.24.61.61,0,0,1-.33-.08l0-.41v0a9.66,9.66,0,0,0-.27-3.91,5.15,5.15,0,0,0-4.8-3Zm0,.4a4.77,4.77,0,0,1,4.43,2.82,9.54,9.54,0,0,1,.23,3.71l0,.59v.08l.06.06a.94.94,0,0,0,.67.24h0a2.45,2.45,0,0,0,1-.28.56.56,0,0,1,.2,0,.51.51,0,0,1,.25,0h0c.2.06.33.19.33.3s0,.3-.72.57l-.25.09c-.44.14-1.1.35-1.32.88a1.2,1.2,0,0,0,.11,1A6,6,0,0,0,59,53.15s0,0,0,.05-.35.5-2.24.81c-.3,0-.37.38-.45.76,0,.14-.06.28-.1.43s0,0-.07,0h0a1.94,1.94,0,0,1-.36,0,5.76,5.76,0,0,0-1.1-.11,4.43,4.43,0,0,0-.81.07,3.84,3.84,0,0,0-1.54.79,4,4,0,0,1-2.42,1h-.23a4,4,0,0,1-2.43-1,3.77,3.77,0,0,0-1.55-.77,5.62,5.62,0,0,0-.81-.06,4.86,4.86,0,0,0-1.1.13,2.15,2.15,0,0,1-.36,0c-.07,0-.07,0-.09,0s-.07-.29-.1-.42c-.09-.39-.16-.72-.46-.77-1.9-.28-2.2-.67-2.25-.78a.06.06,0,0,1,0,0,6.08,6.08,0,0,0,4.14-3.51,1.22,1.22,0,0,0,.09-1c-.23-.52-.89-.73-1.33-.87l-.26-.08c-.57-.22-.74-.45-.72-.59s.3-.32.54-.32l.14,0a2.59,2.59,0,0,0,1.06.27.94.94,0,0,0,.73-.26l0-.06v-.08c0-.18,0-.38,0-.58a9.31,9.31,0,0,1,.19-3.72,4.73,4.73,0,0,1,4.39-2.86h.38"/>
        </g>
        <g>
          <path d="M46.39,52.72V50.63h.54l1,1.27V50.62h.54l0,2.08h-.54l-1-1.27v1.27Z"/>
          <path d="M50.08,51.07h-.65v.35H50v.46h-.61v.36h.64v.46H48.9V50.62h1.18Z"/>
          <path d="M50.76,50.61,51.13,52l.44-1.35H52l.42,1.34.38-1.35h.57l-.66,2.09h-.55l-.38-1.2-.4,1.21h-.55l-.63-2.08Z"/>
        </g>
        <path d="M49.18,43.83h-.69V42.75h2l0,4.91H49.21Z"/>
      </g>
    </symbol>
  </defs>
  <title>ja</title>
  <use width="100" height="100" xlink:href="#mobil_snap"/>
  <use width="100" height="100" transform="translate(100)" xlink:href="#mobil_m_pige"/>
  <use width="100" height="100" transform="translate(0 100)" xlink:href="#mobil_snap_spejl"/>
  <use width="100" height="100" transform="translate(100 100)" xlink:href="#mobil_m_pige_spejl"/>
  <use width="100" height="100" transform="translate(100 200)" xlink:href="#mobil_m_pige_lige"/>
  <use width="100" height="100" transform="translate(0 200)" xlink:href="#mobil_snap_lige"/>
</svg>
