<svg id="Layer_1" data-name="Layer 1" xmlns="http://www.w3.org/2000/svg" xmlns:xlink="http://www.w3.org/1999/xlink" width="200" height="100" viewBox="0 0 200 100">
  <defs>
    <style>
      .cls-1 {
        fill: #ba4949;
        opacity: 0;
      }

      .cls-2 {
        fill: #f8f8f8;
      }

      .cls-3 {
        fill: #f0ca99;
      }

      .cls-4 {
        fill: #c8a15b;
      }

      .cls-5 {
        fill: #e0b966;
      }

      .cls-6 {
        fill: #e8c194;
      }

      .cls-7 {
        fill: #f8e736;
      }

      .cls-8 {
        fill: #fff;
      }

      .cls-9 {
        fill: #14120e;
      }
    </style>
    <symbol id="mobil_m_pige_lige" data-name="mobil_m_pige_lige" viewBox="0 0 100 100">
      <g id="pige_symbol_vandret">
        <rect class="cls-1" width="100" height="100"/>
        <rect x="36.5" y="24.5" width="27" height="51" rx="4.2" ry="4.2"/>
        <polygon class="cls-2" points="39.24 71.81 60.17 71.81 60.17 27.54 39.23 27.54 39.24 71.81"/>
        <path class="cls-3" d="M47.27,46.34c2.63.32,4.4,0,5.93-2.43s3.69-7.29.89-8.9-5,.6-6.22,1.85A10.32,10.32,0,0,0,46,39.64c-.57.92-.57,3.16-.56,4.19A2.9,2.9,0,0,0,47.27,46.34Z"/>
        <path d="M59.89,40.1c-1.44-.2-2.39.45-2.88-1.84-.32-1.5-1.13-4.24-3.75-4.2A5.61,5.61,0,0,0,47.84,37a3.92,3.92,0,0,1,3.71-1.58c-.28,1.45-.53,2.33.39,3.82a4.19,4.19,0,0,1,1.12,2.64c0,.8-.37,2.29.81,3.15a3.26,3.26,0,0,0,4.21-.15,2.85,2.85,0,0,1-1.65-.16c1,.11,1.83-.79,2.44-1.46a2.13,2.13,0,0,1-1.6-1.36C58.58,42.5,59.39,41,59.89,40.1Z"/>
        <path class="cls-4" d="M49,44.09A4.43,4.43,0,0,0,48.15,43c-.28-.19-.29,0-.49-.24a2.19,2.19,0,0,1-1,.11c0,.51-.11,1.07.48,1.36A2.22,2.22,0,0,0,49,44.09Z"/>
        <path d="M50.62,40.84c.1-.2.38-.13.52,0s.36.26.24.41-.41.11-.55,0S50.52,41,50.62,40.84Z"/>
        <path d="M47.05,39.11c.11-.11.31,0,.42,0s.22.22.11.33-.3,0-.4,0S46.94,39.23,47.05,39.11Z"/>
        <path class="cls-5" d="M49.31,39.92a1.36,1.36,0,0,1-1.59.82s-.21-.08-.15.19.78.66,1,.94C48.82,41.24,49.06,40.57,49.31,39.92Z"/>
        <path class="cls-3" d="M48.57,45.69a5.58,5.58,0,0,1-.21,3.82,8.22,8.22,0,0,0-3,1.32c-.7.63-6.06,7.46-6.14,8a21,21,0,0,0,0,2.13s5.12-6.83,6.64-7.83c-.24,2-.79,4.76-1.18,6.6a12,12,0,0,1-1.55,4.11,20.47,20.47,0,0,0-2.22,7.89c2.85.12,6.89-.06,9.75,0,.86-1.84-.26-4.11-1.09-5.72s.83-4.51,1.45-5.68,1-2,1.51-2.76.53-1,1,0a12.38,12.38,0,0,1,1.06,4.18,9.06,9.06,0,0,0,2,4.34c0,.06,0,.22-.08.45a1.82,1.82,0,0,0,.18,1,10.45,10.45,0,0,1-.11,2.23c0,.05.33-.23.42-.53a9.21,9.21,0,0,0,.32-1.28c0-.28-.08-.21.15-.34s.44,0,.64.4a8.32,8.32,0,0,1,.7,1.74c.11.55.39.67.35.07,0,.1,0,.47.2.39s.09-.41.07-.55c0,.07.07.24.2.17s.1-.48.06-.61.14.37.23,0a6,6,0,0,0-.3-2c-.17-.61-1-.91-1.52-1.26s-.58-.42-.74-1.31-.64-1.89-1-3.18A10.81,10.81,0,0,1,56.1,58c-.06-2.26-2.21-6.91-5.53-7.61a9.86,9.86,0,0,1,1.49-5.44C50.69,43.29,49.51,44.12,48.57,45.69Z"/>
        <path class="cls-6" d="M52.22,56.78a3.33,3.33,0,0,1-2.93,3,2.37,2.37,0,0,1-2.49-2.74,3.3,3.3,0,0,1,2.78-3.25A2.61,2.61,0,0,1,52.22,56.78Z"/>
        <path class="cls-6" d="M49.1,56a3.17,3.17,0,0,1-2.79,3c-1.6.15-2.52-1.25-2.49-2.78A3.06,3.06,0,0,1,46.48,53,2.62,2.62,0,0,1,49.1,56Z"/>
      </g>
    </symbol>
    <symbol id="mobil_snap_lige" data-name="mobil_snap_lige" viewBox="0 0 100 100">
      <g id="snap_symbol_vandret">
        <rect class="cls-1" width="100" height="100"/>
        <rect x="36.5" y="24.5" width="27" height="51" rx="4.2" ry="4.2"/>
        <polygon class="cls-2" points="39.24 71.81 60.17 71.81 60.17 27.54 39.23 27.54 39.24 71.81"/>
        <polygon class="cls-7" points="60.1 71.83 39.16 71.79 39.24 27.52 60.18 27.56 60.1 71.83"/>
        <g>
          <path class="cls-8" d="M49.9,57.13h-.24a4.14,4.14,0,0,1-2.54-1,3.62,3.62,0,0,0-1.48-.74,5.09,5.09,0,0,0-.77-.06,5.26,5.26,0,0,0-1.06.12,1.76,1.76,0,0,1-.4.06.24.24,0,0,1-.28-.19c0-.15-.08-.3-.11-.44-.08-.36-.14-.59-.29-.61-1.78-.26-2.29-.63-2.4-.9a.23.23,0,0,1,0-.11.2.2,0,0,1,.16-.21c2.73-.47,3.94-3.27,4-3.39h0a1.05,1.05,0,0,0,.1-.88c-.19-.44-.81-.63-1.21-.76L43.07,48c-.81-.32-.88-.65-.85-.81a.77.77,0,0,1,.74-.49.48.48,0,0,1,.22,0,2.4,2.4,0,0,0,1,.25.79.79,0,0,0,.58-.19c0-.18,0-.37,0-.57a9.64,9.64,0,0,1,.2-3.82,4.94,4.94,0,0,1,4.57-3h.39a5,5,0,0,1,4.61,2.93,9.71,9.71,0,0,1,.25,3.81v.06c0,.18,0,.36,0,.52a.75.75,0,0,0,.53.18h0a2.35,2.35,0,0,0,.91-.26.8.8,0,0,1,.29,0,.75.75,0,0,1,.33.06h0c.28.09.46.28.46.49s-.13.47-.84.75l-.27.1c-.4.13-1,.32-1.2.77a1,1,0,0,0,.11.87h0A5.89,5.89,0,0,0,59,53a.2.2,0,0,1,.17.2.27.27,0,0,1,0,.12c-.11.26-.62.64-2.39.92-.15,0-.2.22-.29.61,0,.15-.06.29-.1.44a.24.24,0,0,1-.25.19h0a1.71,1.71,0,0,1-.39,0,6.29,6.29,0,0,0-1.07-.1,4.08,4.08,0,0,0-.77.07,3.58,3.58,0,0,0-1.46.75,4.16,4.16,0,0,1-2.53,1Z"/>
          <path class="cls-9" d="M49.85,39.18h-.38a5.13,5.13,0,0,0-4.75,3.1,9.74,9.74,0,0,0-.22,3.91l0,.47a.8.8,0,0,1-.37.08,2.09,2.09,0,0,1-.89-.23.75.75,0,0,0-.31-.06,1,1,0,0,0-.93.65c-.05.28.07.68,1,1l.28.09c.37.12.93.29,1.08.65a.86.86,0,0,1-.09.71v0c-.05.11-1.22,2.81-3.84,3.26a.41.41,0,0,0-.33.42.58.58,0,0,0,0,.18c.2.46,1,.79,2.55,1a2.42,2.42,0,0,1,.14.45,4.35,4.35,0,0,0,.11.46.45.45,0,0,0,.47.33,2.84,2.84,0,0,0,.44-.06,4.91,4.91,0,0,1,1-.12,4.71,4.71,0,0,1,.74.06,3.32,3.32,0,0,1,1.39.7,4.35,4.35,0,0,0,2.66,1h.24a4.36,4.36,0,0,0,2.64-1,3.47,3.47,0,0,1,1.38-.72,3.78,3.78,0,0,1,.74-.07,5.79,5.79,0,0,1,1,.1,2,2,0,0,0,.43,0h0a.43.43,0,0,0,.44-.33c0-.16.08-.31.11-.45a1.84,1.84,0,0,1,.13-.46c1.51-.24,2.34-.59,2.54-1a1,1,0,0,0,0-.18.4.4,0,0,0-.34-.41,5.7,5.7,0,0,1-3.88-3.22v0a.83.83,0,0,1-.1-.71c.15-.35.71-.53,1.07-.65l.28-.1c.66-.26,1-.58,1-1a.77.77,0,0,0-.59-.67h0a1.06,1.06,0,0,0-.4-.08,1.12,1.12,0,0,0-.37.08,2.17,2.17,0,0,1-.83.24.61.61,0,0,1-.33-.08l0-.41v0a9.66,9.66,0,0,0-.27-3.91,5.15,5.15,0,0,0-4.8-3Zm0,.4a4.77,4.77,0,0,1,4.43,2.82,9.54,9.54,0,0,1,.23,3.71l0,.59v.08l.06.06a.94.94,0,0,0,.67.24h0a2.45,2.45,0,0,0,1-.28.56.56,0,0,1,.2,0,.51.51,0,0,1,.25,0h0c.2.06.33.19.33.3s0,.3-.72.57l-.25.09c-.44.14-1.1.35-1.32.88a1.2,1.2,0,0,0,.11,1A6,6,0,0,0,59,53.15s0,0,0,.05-.35.5-2.24.81c-.3,0-.37.38-.45.76,0,.14-.06.28-.1.43s0,0-.07,0h0a1.94,1.94,0,0,1-.36,0,5.76,5.76,0,0,0-1.1-.11,4.43,4.43,0,0,0-.81.07,3.84,3.84,0,0,0-1.54.79,4,4,0,0,1-2.42,1h-.23a4,4,0,0,1-2.43-1,3.77,3.77,0,0,0-1.55-.77,5.62,5.62,0,0,0-.81-.06,4.86,4.86,0,0,0-1.1.13,2.15,2.15,0,0,1-.36,0c-.07,0-.07,0-.09,0s-.07-.29-.1-.42c-.09-.39-.16-.72-.46-.77-1.9-.28-2.2-.67-2.25-.78a.06.06,0,0,1,0,0,6.08,6.08,0,0,0,4.14-3.51,1.22,1.22,0,0,0,.09-1c-.23-.52-.89-.73-1.33-.87l-.26-.08c-.57-.22-.74-.45-.72-.59s.3-.32.54-.32l.14,0a2.59,2.59,0,0,0,1.06.27.94.94,0,0,0,.73-.26l0-.06v-.08c0-.18,0-.38,0-.58a9.31,9.31,0,0,1,.19-3.72,4.73,4.73,0,0,1,4.39-2.86h.38"/>
        </g>
        <g>
          <path d="M46.39,52.72V50.63h.54l1,1.27V50.62h.54l0,2.08h-.54l-1-1.27v1.27Z"/>
          <path d="M50.08,51.07h-.65v.35H50v.46h-.61v.36h.64v.46H48.9V50.62h1.18Z"/>
          <path d="M50.76,50.61,51.13,52l.44-1.35H52l.42,1.34.38-1.35h.57l-.66,2.09h-.55l-.38-1.2-.4,1.21h-.55l-.63-2.08Z"/>
        </g>
        <path d="M49.18,43.83h-.69V42.75h2l0,4.91H49.21Z"/>
      </g>
    </symbol>
  </defs>
  <title>ja</title>
  <use width="100" height="100" transform="translate(100)" xlink:href="#mobil_m_pige_lige"/>
  <use width="100" height="100" xlink:href="#mobil_snap_lige"/>
</svg>
