<svg xmlns="http://www.w3.org/2000/svg" width="663" height="266.33" viewBox="0 0 663 266.33">
  <defs>
    <style>
      .cls-1 {
        fill: #fff;
      }

      .cls-2 {
        fill: #dc913a;
      }
    </style>
  </defs>
  <title>klik_og_del</title>
  <g id="Layer_2" data-name="Layer 2">
    <g id="Layer_1-2" data-name="Layer 1">
      <path class="cls-1" d="M555.93,227.08c-5-4.16-10.51-7.69-15.48-11.88-2.45-2.06-4.93-2.49-7.88-2.49q-70.77.06-141.53,0H23.51c-2.21,0-4.43-.08-6.64-.12C5.58,209.27,0,202.29,0,191.63Q0,106.56.05,21.5C.05,8.74,8.66.17,21.35.17Q330.53.17,639.69,0C652.82,0,663.1,8.9,663,23.25c-.41,56.18-.16,112.37-.13,168.56,0,11.86-8.73,20.86-20.6,21-9.78.1-19.56.17-29.33,0-3.32-.07-4.47.63-4.42,4.24.22,15.38.11,30.76.07,46.14,0,1.08.55,2.54-.85,3.11-1.13.45-1.85-.71-2.64-1.31-9.94-7.58-19.83-15.24-29.82-22.76-2.84-2.13-5.27-4.88-8.77-6.06C563.9,232,559.49,230,555.93,227.08Z"/>
      <g>
        <path class="cls-2" d="M129.58,104.36l17.64-20.3H159l-20.3,22.18,21.38,25.84H147.73l-17.07-21.52-1.08,1.08v20.44h-9.36v-48h9.36Z"/>
        <path class="cls-2" d="M175.37,84.06v40h14.84v8.06H166v-48Z"/>
        <path class="cls-2" d="M206.05,84.06v48h-9.36v-48Z"/>
        <path class="cls-2" d="M226.35,104.36,244,84.06H255.8l-20.31,22.18,21.39,25.84H244.5l-17.07-21.52-1.08,1.08v20.44H217v-48h9.36Z"/>
        <path class="cls-2" d="M328.52,108.11c0,14.61-10.51,25-25.64,25s-25.63-10.44-25.63-25S287.76,83,302.88,83,328.52,93.49,328.52,108.11Zm-9.65,0c0-9.72-6.62-16.64-16-16.64s-16,6.92-16,16.64,6.62,16.56,16,16.56S318.87,117.83,318.87,108.11Z"/>
        <path class="cls-2" d="M361.49,106.38h22V107c0,3.25-.44,13.33-7.06,19.88-5,5-11.09,6.33-17.07,6.33s-12.17-1.22-17.42-6.48c-1.66-1.65-7.13-7.7-7.13-18.5a24.54,24.54,0,0,1,7.06-17.86c3.6-3.67,9.64-7.34,18.93-7.34a23.19,23.19,0,0,1,11.09,2.52,22.54,22.54,0,0,1,9,8.78l-8.13,4.39A13.09,13.09,0,0,0,367.18,93a15.75,15.75,0,0,0-6.77-1.52,16.25,16.25,0,0,0-11.09,4.25,17.94,17.94,0,0,0-4.82,12.68c0,6.4,2.73,10.22,4.75,12.16a14.76,14.76,0,0,0,10.66,4.11,16,16,0,0,0,9.43-2.88,12.82,12.82,0,0,0,4.54-7.35H361.49Z"/>
        <path class="cls-2" d="M421.46,84.06c6.7,0,12.53.72,17.86,4.68a23.77,23.77,0,0,1,9.22,19.37c0,8-3.31,14.9-9.65,19.37-5.62,4-10.87,4.6-17.57,4.6H408.94v-48Zm-3.16,40h2.88c2.37,0,7.56-.14,11.73-3.17,3.82-2.73,6-7.63,6-12.74A16,16,0,0,0,433,95.29c-3.89-2.88-8.64-3.17-11.81-3.17H418.3Z"/>
        <path class="cls-2" d="M483.82,92.12H466.54v10.73H483.1v8.06H466.54V124h17.28v8.06H457.18v-48h26.64Z"/>
        <path class="cls-2" d="M502.25,84.06v40h14.83v8.06H492.89v-48Z"/>
        <path class="cls-2" d="M527.16,121.79a5.62,5.62,0,1,1-5.62,5.62A5.53,5.53,0,0,1,527.16,121.79Zm-4.47-4.32V84.06h8.93v33.41Z"/>
      </g>
    </g>
  </g>
</svg>
