<svg xmlns="http://www.w3.org/2000/svg" width="610.13" height="563.62" viewBox="0 0 610.13 563.62">
  <defs>
    <style>
      .cls-1 {
        opacity: 0.2;
      }

      .cls-2 {
        fill: #262934;
      }

      .cls-3 {
        fill: #fff;
      }
    </style>
  </defs>
  <title>nej</title>
  <g id="Layer_2" data-name="Layer 2">
    <g id="Layer_1-2" data-name="Layer 1">
      <g>
        <polygon class="cls-1" points="107.88 563.62 608.61 62.89 486.9 2.67 0 489.57 107.88 563.62"/>
        <rect class="cls-2" x="481.73" width="128.4" height="67.66" rx="12" ry="12"/>
        <g>
          <path class="cls-3" d="M508.72,47.68V17.47L529.26,39V19.38h4.32v30L513.05,27.91V47.68Z"/>
          <path class="cls-3" d="M556,23.45H544.69v7.17h10.95v4.07H544.69V43.6H556v4.08H540.37V19.38H556Z"/>
          <path class="cls-3" d="M570.15,19.38V37.71a14.37,14.37,0,0,1-1.06,6.45,7.07,7.07,0,0,1-6.66,4.07,9,9,0,0,1-5-1.44l2.12-3.65a4.36,4.36,0,0,0,3,1,2.82,2.82,0,0,0,2.84-1.91c.26-.64.47-1.66.47-4.54V19.38Z"/>
          <path class="cls-3" d="M578.88,43.09a2.55,2.55,0,1,1-2.54,2.55A2.56,2.56,0,0,1,578.88,43.09Zm-2.07-2.41V19.38H581v21.3Z"/>
        </g>
      </g>
    </g>
  </g>
</svg>
