<svg id="Layer_1" data-name="Layer 1" xmlns="http://www.w3.org/2000/svg" xmlns:xlink="http://www.w3.org/1999/xlink" width="1600" height="900" viewBox="0 0 1600 900">
  <defs>
    <style>
      .cls-1 {
        fill: none;
      }

      .cls-2 {
        fill: #fc9;
      }

      .cls-3 {
        fill: #d8a356;
      }

      .cls-4 {
        fill: #efbb60;
      }

      .cls-5 {
        fill: #f7c394;
      }

      .cls-6 {
        fill: #fff;
      }

      .cls-7 {
        fill: url(#linear-gradient);
      }
    </style>
    <linearGradient id="linear-gradient" x1="800" y1="900" x2="800" gradientUnits="userSpaceOnUse">
      <stop offset="0" stop-color="#c8397a"/>
      <stop offset="1" stop-color="#dc913a"/>
    </linearGradient>
    <symbol id="front" data-name="front" viewBox="0 0 300 300">
      <rect id="baggrund" class="cls-1" width="300" height="300"/>
      <g id="hoved">
        <path class="cls-2" d="M153.14,201.18s29.94-7.3,39.44,13.65,29.48,46.72,5.91,58-41.72-11.69-41.72-11.69-8.61-10.83-11.77-16.63a33.08,33.08,0,0,1-3.48-12.3s-1.52-11.59-1.21-13.72S138.43,209.18,153.14,201.18Z"/>
        <path d="M237.5,237.5s-16-3-19,11c0,0-1.9,27-24.67,29.59s-31.09-8.33-37.06-16.93c0,0,10.27,12.91,25.68,8.74,0,0-4.86-14.16,1.8-23.87,0,0,7.64-8.75,7.64-17.08,0,0-2.22-15.27,4.62-20.68,7.55-6,16.62-9.58,28.7-.84,0,0-4.45-1.11-11.11,1.67,0,0,7.36-1.81,16.38,8.47,0,0-8.88,2.08-10.55,9.16C219.93,226.73,229.8,220.92,237.5,237.5Z"/>
        <path class="cls-3" d="M157.5,220.78s-5.24,5.89-5.95,7.72a3.42,3.42,0,0,0-3.06,1.5s-4.25-1.12-6.78-.35c0,0-1.12-7.13,2.83-8.84S151.55,218.43,157.5,220.78Z"/>
        <path d="M173.64,238.21a2.78,2.78,0,0,0,3.58,0c1.94-1.48,1.91-2.31,1.54-2.68a3.31,3.31,0,0,0-3.7.15C173.61,236.79,173.27,237.22,173.64,238.21Z"/>
        <path d="M152.93,251.83s1.15.86,2.85-.34.7-2.16.7-2.16-.91-.75-2.67.41S152.93,251.83,152.93,251.83Z"/>
        <path class="cls-4" d="M160.76,248.52s-5.71-6.88-13.29-4.64c0,0-1,.6-1.44-.92s7.13-4.35,8.22-6.66Z"/>
      </g>
      <path class="cls-2" d="M160.76,205.16s4.66-10.44-1.73-24.31h-7.71s-3.3.43-6.8-2.76-27.19-22-32.14-24.22-11.68-5.15-16.2-2.94A30.48,30.48,0,0,0,84.92,161c-1.92,3.29-19.57,40-19.57,40s.11,5.78-1.08,7.32a10.24,10.24,0,0,1-2.79,3c-1.7,1.13-3.19,6.74-1.8,10s-3.61,1.39-4.56-.75,0-6.22,0-6.22L33.81,215.7a5.25,5.25,0,0,1-5.23-.86c-2.26-2.07,2.49-3.74,2.49-3.74s12.49-4.68,15.49-8.66,5-5,5-5,4.72-3.27,7.84-.11c0,0,18.74-46.72,22.7-50.14,4.52-3.9,11.31-10.15,23.73-8s36.61,19.52,36.61,19.52l-7-44.89s-2.14-18.52-8.33-28.11-10.06-27.25-10.06-27.25S111.94,28.33,111.79,0h57.79s11.24,16.21,12.17,31.22-2.63,25.08-9.13,33.28,7,42.26,7,42.26l8.21,19.81s3.87,9,6.81-.46c0,0,8.2-14.25,12.85-36.38s13-24.15,28-51.08c0,0,1-1.36.68-4.54S239,25.76,239,25.76s3.42-4.14.39-16.34c0,0,.16-2.39,2.75,2.66s2.31,8.67,2.31,8.67-.68,1.71.47,2.35,3.22.43,4.74-3.23a42,42,0,0,0,4.89-12c1.23-6.16,2.7-2.7,2.38-.55,0,0,.27-3.21,1.39-2.78s.42,3.7.42,3.7.29-1.54,1.37-1.3.44,4.06.44,4.06.84-1,1.51-.68-1.31,8.85-1.87,13.22-12.6,12.13-12.6,12.13-4.82,3.42-9,14.52-17,36.57-17,36.57-6.75,18.18-8,29.74-9.5,48.07-39.94,58.54A55.94,55.94,0,0,0,184,208.77S171.11,226.48,160.76,205.16Z"/>
      <ellipse class="cls-5" cx="167.94" cy="132.37" rx="18.32" ry="21.16"/>
      <ellipse class="cls-5" cx="147.44" cy="139.19" rx="17.75" ry="20.51"/>
      <g id="phone">
        <path d="M48.84,195.73,30,218.9a3,3,0,0,0,.43,4.22l10.48,8.52a3,3,0,0,0,4.22-.44h0L64,208a3,3,0,0,0-.43-4.22l-10.48-8.52a3,3,0,0,0-4.22.43Z"/>
        <polygon class="cls-6" points="62.45 207.92 49.26 197.2 31.53 219.02 44.71 229.73 62.45 207.92"/>
      </g>
    </symbol>
  </defs>
  <title>payoff1</title>
  <rect class="cls-7" width="1600" height="900"/>
  <g>
    <path class="cls-6" d="M191.43,168.79H198c3.22,0,7.78.34,11.81,3.75a15.61,15.61,0,0,1,5.47,12.29,15.23,15.23,0,0,1-5.62,12.29c-2.92,2.49-6,3.69-11.71,3.69h-6.48ZM195,197.45h3.12a13.69,13.69,0,0,0,9.17-2.88,12.25,12.25,0,0,0,4.32-9.74c0-7.68-5.37-12.68-13.49-12.68H195Z"/>
    <path class="cls-6" d="M238.57,195.72a11.86,11.86,0,0,1-2.45,3.22,9.69,9.69,0,0,1-6.62,2.45c-4.81,0-9.85-3-9.85-10.42,0-5.95,3.65-10.56,9.65-10.56a8.91,8.91,0,0,1,7.54,3.65,13.32,13.32,0,0,1,1.87,7.49h-15.5c0,4.13,2.88,6.77,6.33,6.77a6.06,6.06,0,0,0,4.08-1.44,7.86,7.86,0,0,0,2.07-2.74Zm-3.41-7.05a6,6,0,0,0-5.86-5.19,6,6,0,0,0-5.85,5.19Z"/>
    <path class="cls-6" d="M247.54,184.06v16.75h-3.45V184.06H242v-3.17h2.12v-7.2h3.45v7.2H251v3.17Z"/>
    <path class="cls-6" d="M265,180h5.86v2.68a7.64,7.64,0,0,1,6.43-3.36,7.94,7.94,0,0,1,6.15,2.55,8.74,8.74,0,0,1,1.63,5.85v13.06h-5.86V189.48c0-1.15,0-3-1.1-4.08a3.74,3.74,0,0,0-2.74-1.05,4,4,0,0,0-3.6,1.82,7.17,7.17,0,0,0-.91,4v10.61H265Z"/>
    <path class="cls-6" d="M292.08,197.36a11.24,11.24,0,0,1-2.35-6.92,10.92,10.92,0,0,1,3.51-8.16,12,12,0,0,1,8.4-2.93,12.28,12.28,0,0,1,6.72,1.73l3.26-3.26,2.69,2.45-3.17,3.16a11.34,11.34,0,0,1,2.4,7,11,11,0,0,1-3.5,8.12,13.75,13.75,0,0,1-15.22,1.15l-3.17,3.17-2.69-2.4Zm12.2-12.2a5.12,5.12,0,0,0-2.5-.62,5.75,5.75,0,0,0-6,6,6.4,6.4,0,0,0,.58,2.59Zm-5.38,10.47a5.69,5.69,0,0,0,2.79.67,5.36,5.36,0,0,0,4.17-1.73,5.87,5.87,0,0,0,1.63-4.22,4.69,4.69,0,0,0-.67-2.64Z"/>
    <path class="cls-6" d="M334.08,180h5.86v19.82c0,3.17-.29,6.48-2.88,9.07-1.44,1.44-3.94,2.93-8.21,2.93-4,0-6.43-1.2-7.77-2.4a11.46,11.46,0,0,1-3.36-6.19h6.33a5,5,0,0,0,1.44,2.5,5.19,5.19,0,0,0,3.55,1.1,5,5,0,0,0,3.56-1.3c1.34-1.29,1.48-2.92,1.48-4.6V198a7.26,7.26,0,0,1-6.38,3.45,9.84,9.84,0,0,1-7.2-2.83,11.39,11.39,0,0,1-3.31-8.26,11.58,11.58,0,0,1,3.21-8.25,10.18,10.18,0,0,1,7.16-2.79,7.3,7.3,0,0,1,6.52,3.36Zm-9,5.95a5.68,5.68,0,0,0-1.87,4.41,5.82,5.82,0,0,0,1.53,4.09A5.7,5.7,0,0,0,329,196.3a5.86,5.86,0,0,0,3.88-1.44,6.15,6.15,0,0,0,1.88-4.47,5.94,5.94,0,0,0-1.68-4.17,5.35,5.35,0,0,0-4.08-1.68A5.63,5.63,0,0,0,325.11,186Z"/>
    <path class="cls-6" d="M365.91,195c-.62,1.54-3,6.48-10.23,6.48a10.88,10.88,0,0,1-8-2.92,10.47,10.47,0,0,1-3.27-8.12,11.06,11.06,0,0,1,3.17-8.16,10.65,10.65,0,0,1,7.82-2.93c4.23,0,6.68,1.68,8.12,3.41a12.41,12.41,0,0,1,2.49,8.16v.48H350.5a6.16,6.16,0,0,0,1,3.51,5,5,0,0,0,4.17,2,5.36,5.36,0,0,0,4.85-2.74Zm-5.38-7.34a5,5,0,0,0-9.84,0Z"/>
    <path class="cls-6" d="M370.56,180h5.86v2.68a7.64,7.64,0,0,1,6.43-3.36A7.94,7.94,0,0,1,389,181.9a8.74,8.74,0,0,1,1.63,5.85v13.06h-5.86V189.48c0-1.15,0-3-1.1-4.08a3.74,3.74,0,0,0-2.74-1.05,4,4,0,0,0-3.6,1.82,7.17,7.17,0,0,0-.91,4v10.61h-5.86Z"/>
    <path class="cls-6" d="M402.05,182.71a8.07,8.07,0,0,1,6.77-3.36c6.14,0,10.22,4.76,10.22,11s-4.22,11.09-10.36,11.09a7.86,7.86,0,0,1-6.63-3.36v2.69H396.2v-35h5.85Zm-.57,7.68a5.76,5.76,0,1,0,5.76-5.85A5.69,5.69,0,0,0,401.48,190.39Z"/>
    <path class="cls-6" d="M426.48,167.74a3.51,3.51,0,1,1-3.5,3.5A3.53,3.53,0,0,1,426.48,167.74ZM429.41,180v20.78h-5.86V180Z"/>
    <path class="cls-6" d="M440.83,165.82v35H435v-35Z"/>
    <path class="cls-6" d="M452.26,165.82v35H446.4v-35Z"/>
    <path class="cls-6" d="M478.23,195c-.63,1.54-3,6.48-10.23,6.48a10.92,10.92,0,0,1-8-2.92,10.49,10.49,0,0,1-3.26-8.12,11.06,11.06,0,0,1,3.17-8.16,10.65,10.65,0,0,1,7.82-2.93c4.23,0,6.68,1.68,8.12,3.41a12.47,12.47,0,0,1,2.49,8.16v.48H462.82a6.08,6.08,0,0,0,1,3.51,5,5,0,0,0,4.17,2,5.36,5.36,0,0,0,4.85-2.74Zm-5.38-7.34a5,5,0,0,0-9.84,0Z"/>
    <path class="cls-6" d="M498.82,165.82h5.86v35h-5.86v-2.69a7.44,7.44,0,0,1-6.39,3.36c-6.38,0-10.6-5-10.6-11.09s4.17-11,10.32-11a7.54,7.54,0,0,1,6.67,3.36Zm-10.95,24.57a5.77,5.77,0,1,0,5.76-5.85A5.69,5.69,0,0,0,487.87,190.39Z"/>
    <path class="cls-6" d="M530.64,195c-.62,1.54-3,6.48-10.22,6.48a10.9,10.9,0,0,1-8-2.92,10.5,10.5,0,0,1-3.27-8.12,11.1,11.1,0,0,1,3.17-8.16,10.66,10.66,0,0,1,7.83-2.93c4.22,0,6.67,1.68,8.11,3.41a12.43,12.43,0,0,1,2.5,8.16v.48H515.23a6.16,6.16,0,0,0,1,3.51,5,5,0,0,0,4.18,2,5.36,5.36,0,0,0,4.85-2.74Zm-5.37-7.34a5,5,0,0,0-9.84,0Z"/>
    <path class="cls-6" d="M547.92,180.89l6,13.44,6-13.44h3.84l-9.8,21.22-9.79-21.22Z"/>
    <path class="cls-6" d="M582.58,180.89H586v19.92h-3.45V198a8.42,8.42,0,0,1-6.82,3.36c-5,0-9.7-3.55-9.7-10.56s4.61-10.42,9.7-10.42a8.25,8.25,0,0,1,6.82,3.31Zm-13,9.94c0,4.27,2.4,7.49,6.52,7.49s6.63-3.51,6.63-7.45c0-5.13-3.55-7.39-6.63-7.39C572.74,183.48,569.62,186,569.62,190.83Z"/>
    <path class="cls-6" d="M592.56,180.89H596v2.16a5.51,5.51,0,0,1,4.51-2.64,7.19,7.19,0,0,1,3.07.82L602,184.35a3.57,3.57,0,0,0-2-.68,3.35,3.35,0,0,0-2.78,1.25c-.58.77-1.15,2.11-1.15,5.38v10.51h-3.46Z"/>
    <path class="cls-6" d="M621.5,184.06v16.75h-3.45V184.06h-2.12v-3.17h2.12v-7.2h3.45v7.2H625v3.17Z"/>
    <path class="cls-6" d="M630,170.9a2.45,2.45,0,1,1-2.45,2.45A2.47,2.47,0,0,1,630,170.9Zm1.73,10v19.92h-3.46V180.89Z"/>
    <path class="cls-6" d="M641.66,165.82v35H638.2v-35Z"/>
    <path class="cls-6" d="M674.64,165.82h3.45v35h-3.45V198a8.42,8.42,0,0,1-6.82,3.36c-5,0-9.7-3.55-9.7-10.56s4.61-10.42,9.7-10.42a8.26,8.26,0,0,1,6.82,3.31Zm-13,25c0,4.27,2.4,7.49,6.52,7.49s6.63-3.51,6.63-7.45c0-5.13-3.55-7.39-6.63-7.39C664.8,183.48,661.68,186,661.68,190.83Z"/>
    <path class="cls-6" d="M685.87,170.9a2.45,2.45,0,1,1-2.45,2.45A2.47,2.47,0,0,1,685.87,170.9Zm1.73,10v19.92h-3.46V180.89Z"/>
    <path class="cls-6" d="M709.39,180.89h3.45v19.44c0,2.16,0,5.23-1.92,7.83a9.68,9.68,0,0,1-8,3.69,9.84,9.84,0,0,1-7.11-2.69,9,9,0,0,1-2.59-6.43h3.41a6.29,6.29,0,0,0,1.53,4.13,6.19,6.19,0,0,0,4.8,1.92,5.58,5.58,0,0,0,5.28-2.78,9.27,9.27,0,0,0,1.11-5.09V198a8.39,8.39,0,0,1-6.82,3.36,9.54,9.54,0,0,1-6.82-2.69,10.8,10.8,0,0,1-2.88-7.87,10.45,10.45,0,0,1,2.88-7.73,9.84,9.84,0,0,1,6.82-2.69,8.31,8.31,0,0,1,6.82,3.31Zm-10.95,4.46a7.59,7.59,0,0,0-2,5.48,7.66,7.66,0,0,0,2.25,5.85,6,6,0,0,0,4.28,1.64,5.89,5.89,0,0,0,4.36-1.68,8.07,8.07,0,0,0,2.26-5.77,7.85,7.85,0,0,0-2.11-5.61,6.38,6.38,0,0,0-4.51-1.78A6.18,6.18,0,0,0,698.44,185.35Z"/>
    <path class="cls-6" d="M721.58,196.49a2.4,2.4,0,1,1-2.4,2.4A2.45,2.45,0,0,1,721.58,196.49Z"/>
    <path class="cls-6" d="M189.7,236.83a16.66,16.66,0,1,1,16.66,16.56A16.35,16.35,0,0,1,189.7,236.83Zm3.65,0a13,13,0,1,0,13-13.21A13.06,13.06,0,0,0,193.35,236.83Z"/>
    <path class="cls-6" d="M243.94,232.89h3.46v19.44c0,2.16,0,5.23-1.92,7.83a9.72,9.72,0,0,1-8,3.69,9.82,9.82,0,0,1-7.1-2.69,8.94,8.94,0,0,1-2.6-6.43h3.41a6.25,6.25,0,0,0,1.54,4.13,6.18,6.18,0,0,0,4.8,1.92,5.58,5.58,0,0,0,5.28-2.78,9.26,9.26,0,0,0,1.1-5.09V250a8.39,8.39,0,0,1-6.81,3.36,9.54,9.54,0,0,1-6.82-2.69,10.8,10.8,0,0,1-2.88-7.87,10.45,10.45,0,0,1,2.88-7.73,9.84,9.84,0,0,1,6.82-2.69,8.29,8.29,0,0,1,6.81,3.31ZM233,237.35a8.58,8.58,0,0,0,.24,11.33,6,6,0,0,0,4.27,1.64,5.92,5.92,0,0,0,4.37-1.68,8.11,8.11,0,0,0,2.26-5.77,7.86,7.86,0,0,0-2.12-5.61,6.35,6.35,0,0,0-4.51-1.78A6.17,6.17,0,0,0,233,237.35Z"/>
    <path class="cls-6" d="M273.32,237.5a3.06,3.06,0,0,0-2.79-2,2.21,2.21,0,0,0-2.4,2.26c0,1.44,1,1.87,3.22,2.83,2.88,1.2,4.22,2.11,5,3.07a4.7,4.7,0,0,1,1.06,3.22c0,4.18-3,6.53-6.87,6.53a7.13,7.13,0,0,1-7-5.09l3-1.25c.38,1.06,1.53,3.27,4,3.27a3.1,3.1,0,0,0,3.27-3.17c0-1.88-1.35-2.5-3.22-3.32-2.4-1.05-3.94-1.82-4.85-2.92a4.32,4.32,0,0,1-.91-2.93c0-3.51,2.45-5.57,5.81-5.57a5.74,5.74,0,0,1,5.47,3.6Z"/>
    <path class="cls-6" d="M283.73,222.9a2.45,2.45,0,1,1-2.45,2.45A2.46,2.46,0,0,1,283.73,222.9Zm1.73,10v19.92H282V232.89Z"/>
    <path class="cls-6" d="M295.44,217.82v22.46l7.3-7.39h4.51l-8.54,8.54,10.08,11.38h-4.51l-8-9.07-.87.86v8.21H292v-35Z"/>
    <path class="cls-6" d="M315.7,217.82v22.46l7.3-7.39h4.51L319,241.43,329,252.81h-4.51l-8-9.07-.86.86v8.21h-3.46v-35Z"/>
    <path class="cls-6" d="M349.69,247.72a11.86,11.86,0,0,1-2.45,3.22,9.7,9.7,0,0,1-6.63,2.45c-4.8,0-9.84-3-9.84-10.42,0-5.95,3.65-10.56,9.65-10.56a8.91,8.91,0,0,1,7.54,3.65,13.32,13.32,0,0,1,1.87,7.49H334.32c.05,4.13,2.88,6.77,6.34,6.77a6.06,6.06,0,0,0,4.08-1.44,8.11,8.11,0,0,0,2.07-2.74Zm-3.41-7.05a6,6,0,0,0-5.86-5.19,6.06,6.06,0,0,0-5.86,5.19Z"/>
    <path class="cls-6" d="M355.11,232.89h3.45v2.16a5.55,5.55,0,0,1,4.52-2.64,7.22,7.22,0,0,1,3.07.82l-1.63,3.12a3.57,3.57,0,0,0-2-.68,3.37,3.37,0,0,0-2.79,1.25c-.57.77-1.15,2.11-1.15,5.38v10.51h-3.45Z"/>
    <path class="cls-6" d="M373.83,236.06v16.75h-3.46V236.06h-2.11v-3.17h2.11v-7.2h3.46v7.2h3.45v3.17Z"/>
    <path class="cls-6" d="M397.11,217.82v21.79l7.77-7.58h7.59l-9.75,9.12,10.51,11.66h-7.77l-7.73-8.88-.62.58v8.3h-5.86v-35Z"/>
    <path class="cls-6" d="M421.15,232v11.76a4.7,4.7,0,0,0,1.25,3.65,4.74,4.74,0,0,0,6,0,4.66,4.66,0,0,0,1.25-3.65V232h5.86v12.72a7.85,7.85,0,0,1-2.54,6.38c-1.93,1.68-5,2.35-7.54,2.35s-5.62-.67-7.54-2.35a7.85,7.85,0,0,1-2.54-6.38V232Z"/>
    <path class="cls-6" d="M441,232h5.85v2.68a7.65,7.65,0,0,1,6.43-3.36,7.94,7.94,0,0,1,6.15,2.55,8.74,8.74,0,0,1,1.63,5.85v13.06h-5.86V241.48c0-1.15,0-3-1.1-4.08a3.74,3.74,0,0,0-2.74-1.05,4,4,0,0,0-3.6,1.82,7.17,7.17,0,0,0-.91,4v10.61H441Z"/>
    <path class="cls-6" d="M483.7,237v15.79h-5.86V237h-2.3v-5h2.3v-7.11h5.86V232h4v5Z"/>
    <path class="cls-6" d="M493.73,219.74a3.51,3.51,0,1,1-3.51,3.5A3.52,3.52,0,0,1,493.73,219.74ZM496.66,232v20.78H490.8V232Z"/>
    <path class="cls-6" d="M508.08,217.82v35h-5.86v-35Z"/>
    <path class="cls-6" d="M540.77,217.82h5.85v35h-5.85v-2.69a7.44,7.44,0,0,1-6.39,3.36c-6.38,0-10.61-5-10.61-11.09s4.18-11,10.33-11a7.54,7.54,0,0,1,6.67,3.36Zm-10.95,24.57a5.76,5.76,0,1,0,5.76-5.85A5.69,5.69,0,0,0,529.82,242.39Z"/>
    <path class="cls-6" d="M555.12,219.74a3.51,3.51,0,1,1-3.51,3.5A3.52,3.52,0,0,1,555.12,219.74ZM558.05,232v20.78h-5.86V232Z"/>
    <path class="cls-6" d="M579.46,232h5.85v19.82c0,3.17-.29,6.48-2.88,9.07-1.44,1.44-3.93,2.93-8.21,2.93-4,0-6.43-1.2-7.77-2.4a11.46,11.46,0,0,1-3.36-6.19h6.33a5,5,0,0,0,1.44,2.5,5.2,5.2,0,0,0,3.56,1.1,5,5,0,0,0,3.55-1.3c1.34-1.29,1.49-2.92,1.49-4.6V250a7.29,7.29,0,0,1-6.39,3.45,9.84,9.84,0,0,1-7.2-2.83,11.39,11.39,0,0,1-3.31-8.26,11.58,11.58,0,0,1,3.21-8.25,10.18,10.18,0,0,1,7.16-2.79,7.34,7.34,0,0,1,6.53,3.36Zm-9,5.95a5.68,5.68,0,0,0-1.87,4.41,5.82,5.82,0,0,0,1.53,4.09,5.7,5.7,0,0,0,4.23,1.82,5.86,5.86,0,0,0,3.88-1.44,6.12,6.12,0,0,0,1.88-4.47,5.94,5.94,0,0,0-1.68-4.17,5.35,5.35,0,0,0-4.08-1.68A5.65,5.65,0,0,0,570.48,238Z"/>
    <path class="cls-6" d="M593.57,248.49a2.4,2.4,0,1,1-2.4,2.4A2.45,2.45,0,0,1,593.57,248.49Z"/>
  </g>
  <g>
    <path class="cls-6" d="M199.3,426.23v28.66h-3.55V426.23H188v-3.36h19.11v3.36Z"/>
    <path class="cls-6" d="M238.62,449.9a9.76,9.76,0,0,1-9,5.57,8.93,8.93,0,0,1-7.82-4,8.06,8.06,0,0,1-7.49,4c-4.66,0-8.6-2.11-8.6-6.48s3.7-6.58,8.31-6.58a9.28,9.28,0,0,1,5.71,1.68,8.09,8.09,0,0,0-.91-4.22c-1-1.73-2.69-2.31-4.75-2.31a20.26,20.26,0,0,0-6.15,1.25v-3.26a18.92,18.92,0,0,1,6.2-1.06c2.2,0,5.8.39,7.53,4a8.74,8.74,0,0,1,7.68-4c5.81,0,9.51,4.27,9.51,10.8v.34H223.3c.15,3.93,2.88,6.77,6.29,6.77a7.1,7.1,0,0,0,6.15-4.23ZM209.19,449c0,1.44,1.06,3.41,5,3.41s5.33-2,5.33-3.56c0-1.39-1.3-3.36-5.23-3.36C210.92,445.48,209.19,447.07,209.19,449Zm26.12-6.24a5.93,5.93,0,0,0-11.77,0Z"/>
    <path class="cls-6" d="M244.13,435h3.46v2.31a7,7,0,0,1,5.71-2.79,6.75,6.75,0,0,1,5.72,2.74c1,1.49,1.15,3.12,1.15,5.33v12.33h-3.46V442.65a5.84,5.84,0,0,0-.91-3.65,3.92,3.92,0,0,0-3.26-1.44A4.36,4.36,0,0,0,249,439.1c-1.34,1.58-1.44,3.94-1.44,5.38v10.41h-3.46Z"/>
    <path class="cls-6" d="M270.15,419.9v22.46l7.3-7.39H282l-8.55,8.55,10.08,11.37H279l-8-9.07-.86.86v8.21h-3.46v-35Z"/>
    <path class="cls-6" d="M313.4,419.9h3.45v35H313.4v-2.78a8.41,8.41,0,0,1-6.82,3.36c-5,0-9.7-3.55-9.7-10.56s4.61-10.42,9.7-10.42a8.25,8.25,0,0,1,6.82,3.31Zm-13,25c0,4.27,2.4,7.49,6.52,7.49s6.63-3.51,6.63-7.44c0-5.14-3.55-7.4-6.63-7.4C303.56,437.56,300.44,440.06,300.44,444.91Z"/>
    <path class="cls-6" d="M324.63,425a2.45,2.45,0,1,1-2.45,2.44A2.46,2.46,0,0,1,324.63,425Zm1.73,10v19.92H322.9V435Z"/>
    <path class="cls-6" d="M348.15,435h3.45v19.44c0,2.16,0,5.24-1.92,7.83a9.68,9.68,0,0,1-8,3.69,9.9,9.9,0,0,1-7.11-2.68,9,9,0,0,1-2.59-6.44h3.41a6.29,6.29,0,0,0,1.53,4.13,6.16,6.16,0,0,0,4.8,1.92,5.58,5.58,0,0,0,5.28-2.78,9.25,9.25,0,0,0,1.11-5.09v-2.88a8.39,8.39,0,0,1-6.82,3.36,9.5,9.5,0,0,1-6.81-2.69,10.75,10.75,0,0,1-2.89-7.87,10.45,10.45,0,0,1,2.89-7.73,9.81,9.81,0,0,1,6.81-2.69,8.31,8.31,0,0,1,6.82,3.31Zm-10.95,4.47a7.56,7.56,0,0,0-2,5.47,7.65,7.65,0,0,0,2.25,5.85,6,6,0,0,0,4.28,1.64,5.89,5.89,0,0,0,4.36-1.68,8.06,8.06,0,0,0,2.26-5.76,7.86,7.86,0,0,0-2.11-5.62,6.42,6.42,0,0,0-4.51-1.78A6.18,6.18,0,0,0,337.2,439.44Z"/>
    <path class="cls-6" d="M368.07,445a10.56,10.56,0,1,1,10.56,10.47A10.23,10.23,0,0,1,368.07,445Zm3.55,0c0,4.9,3.45,7.4,7,7.4s7-2.55,7-7.4-3.36-7.44-7-7.44S371.62,440.16,371.62,445Z"/>
    <path class="cls-6" d="M394.46,435h3.46v2.11a5.8,5.8,0,0,1,4.95-2.59,6,6,0,0,1,5.42,3.22,6.65,6.65,0,0,1,6-3.22c5.91,0,6.48,4.95,6.48,7.78v12.62h-3.45V442.8c0-2.26-.29-5.24-3.56-5.24-4,0-4.41,3.84-4.41,6.24v11.09h-3.46V443.08c0-1.39.05-5.52-3.6-5.52-3.94,0-4.37,4.08-4.37,6.48v10.85h-3.46Z"/>
    <path class="cls-6" d="M429.17,450.19l3.17,1.15-4.85,10.85-2.26-.91Z"/>
    <path class="cls-6" d="M455.23,438.14v16.75h-3.45V438.14h-1.92V435h1.92v-8.69c0-1.82.14-4.13,1.92-5.61a6.17,6.17,0,0,1,4-1.3,6.76,6.76,0,0,1,2.45.43v3.36a6.24,6.24,0,0,0-2.26-.43,2.42,2.42,0,0,0-2.21,1.06,6,6,0,0,0-.43,2.88V435h4.9v3.17Z"/>
    <path class="cls-6" d="M481,438.52a9.85,9.85,0,0,1,2.11,6.48,10.73,10.73,0,0,1-17,8.45l-2.93,2.88-2.21-2.16,2.93-2.88a10.69,10.69,0,0,1,8.64-16.8,10,10,0,0,1,6.24,1.92l2.93-2.88,2.11,2.16Zm-4.61.15a6.8,6.8,0,0,0-3.84-1.11c-3.65,0-7,2.55-7,7.44a8.49,8.49,0,0,0,.92,3.94Zm-7.82,12.48a6.55,6.55,0,0,0,4,1.25c3.6,0,7-2.5,7-7.4a8,8,0,0,0-1.06-4.12Z"/>
    <path class="cls-6" d="M488.35,435h3.46v2.16a5.51,5.51,0,0,1,4.51-2.64,7.29,7.29,0,0,1,3.07.82l-1.63,3.12a3.55,3.55,0,0,0-2-.67A3.34,3.34,0,0,0,493,439c-.58.77-1.15,2.12-1.15,5.38v10.51h-3.46Z"/>
    <path class="cls-6" d="M529,419.9h3.45v35H529v-2.78a8.42,8.42,0,0,1-6.82,3.36c-5,0-9.7-3.55-9.7-10.56s4.61-10.42,9.7-10.42A8.26,8.26,0,0,1,529,437.8Zm-13,25c0,4.27,2.4,7.49,6.52,7.49s6.63-3.51,6.63-7.44c0-5.14-3.55-7.4-6.63-7.4C519.17,437.56,516.05,440.06,516.05,444.91Z"/>
    <path class="cls-6" d="M542.45,446.59a6.78,6.78,0,0,0,1,4.27,4.75,4.75,0,0,0,7,0,6.78,6.78,0,0,0,1-4.27V435h3.46v12c0,2.45-.24,4.28-1.82,6a8.69,8.69,0,0,1-12.2,0c-1.58-1.72-1.82-3.55-1.82-6V435h3.46Z"/>
    <path class="cls-6" d="M587.8,419.9h3.46v35H587.8v-2.78a8.39,8.39,0,0,1-6.81,3.36c-5,0-9.7-3.55-9.7-10.56s4.61-10.42,9.7-10.42a8.22,8.22,0,0,1,6.81,3.31Zm-13,25c0,4.27,2.4,7.49,6.53,7.49S588,448.89,588,445c0-5.14-3.56-7.4-6.63-7.4C578,437.56,574.84,440.06,574.84,444.91Z"/>
    <path class="cls-6" d="M615.45,449.8A11.66,11.66,0,0,1,613,453a9.67,9.67,0,0,1-6.62,2.45c-4.8,0-9.84-3-9.84-10.42,0-5.95,3.65-10.56,9.65-10.56a8.89,8.89,0,0,1,7.53,3.65,13.42,13.42,0,0,1,1.88,7.49H600.09c0,4.13,2.88,6.77,6.34,6.77a6.06,6.06,0,0,0,4.08-1.44,8,8,0,0,0,2.06-2.74ZM612,442.75a6,6,0,0,0-5.85-5.19,6.06,6.06,0,0,0-5.86,5.19Z"/>
    <path class="cls-6" d="M624.33,419.9v35h-3.46v-35Z"/>
    <path class="cls-6" d="M648.52,449.8a11.82,11.82,0,0,1-2.44,3.22,9.7,9.7,0,0,1-6.63,2.45c-4.8,0-9.84-3-9.84-10.42,0-5.95,3.65-10.56,9.65-10.56a8.89,8.89,0,0,1,7.53,3.65,13.42,13.42,0,0,1,1.88,7.49H633.16c.05,4.13,2.88,6.77,6.34,6.77a6.06,6.06,0,0,0,4.08-1.44,8,8,0,0,0,2.06-2.74Zm-3.4-7.05a6,6,0,0,0-5.86-5.19,6.06,6.06,0,0,0-5.86,5.19Z"/>
    <path class="cls-6" d="M654,435h3.45v2.16a5.55,5.55,0,0,1,4.51-2.64,7.38,7.38,0,0,1,3.08.82l-1.64,3.12a3.5,3.5,0,0,0-2-.67,3.37,3.37,0,0,0-2.79,1.24c-.57.77-1.15,2.12-1.15,5.38v10.51H654Z"/>
    <path class="cls-6" d="M668.06,450.57a2.4,2.4,0,1,1-2.4,2.4A2.45,2.45,0,0,1,668.06,450.57Z"/>
  </g>
  <use width="300" height="300" transform="matrix(2.69, 0, 0, -2.69, 703.21, 900)" xlink:href="#front"/>
</svg>
