<svg xmlns="http://www.w3.org/2000/svg" xmlns:xlink="http://www.w3.org/1999/xlink" width="2400" height="600.23" viewBox="0 0 2400 600.23"><defs><style>.cls-1{fill:none;}.cls-2{fill:#fc9;}.cls-3{fill:#d8a356;}.cls-4{fill:#efbb60;}.cls-5{fill:#f7c394;}.cls-6{fill:#fff;}</style><symbol id="self01" data-name="self01" viewBox="0 0 300 300"><path class="cls-5" d="M177.16,222.39s3.18,14.69-3,21.21-18.17,8.33-22.87,7.11,19-39.53,19-39.53Z"/><path class="cls-2" d="M133.7,159.28s7.79,10.84-8.06,24.74-39.2,52.65-48.93,116h64.5s1.2-39.32,29-82.65a85.52,85.52,0,0,0,31.85,23.36s11,7,19.44-6.1,26.12-59.67,26.12-59.67a31.31,31.31,0,0,0,14.63-12.65L242,151.49s-6.58,12.09-2,18.32c0,0-11.6,28.63-23.84,48.15,0,0-4,8.88-12.57,4.44s-13.4-10.24-22.37-20.81-6.84-14.47-24.15-17.22c0,0-8-8.09-1.6-34.37Z"/><path d="M232.43,156l18-39.87a3,3,0,0,1,4-1.5l19.19,8.64a3,3,0,0,1,1.5,4l-18,39.87a3,3,0,0,1-4,1.5L233.94,160A3,3,0,0,1,232.43,156Z"/><polygon class="cls-6" points="256.48 164.25 235 154.57 251.01 119.03 272.49 128.7 256.48 164.25"/><path class="cls-2" d="M182.12,74S174,54.28,155.54,56.81,117.43,67.92,121,96.46s11.12,41.77,25.73,47.82,34.74-12.66,34.74-12.66,16.31-18.42,9.84-39.37l5.91-7.88s2.14-2.66-3.58-3.13C187.26,80.72,184.9,79,182.12,74Z"/><path d="M27.18,85.83s16.29,24.32,42,21.5c0,0-9.38,17.08-28,8.73,0,0,14.51,29.67,57.28,21.06,0,0-4,5.66-13.87,6.43,0,0,18.63,17.08,43.41,9.76,0,0-3.08,5.52-11.55,7.7,0,0,10.14,8.74,25.94,1s16.82-10,16.82-10,9.12-6.16,9.89-16.31,2.83-17-1.41-29.28-.26-26.2-.26-26.2a21.29,21.29,0,0,0-2.56-20.81c-7.58-10.28-27.1-26.07-55.36-2.57L86.88,74.7S59.7,101.06,27.18,85.83Z"/><rect class="cls-1" width="300" height="300"/><path class="cls-2" d="M262.3,162.29s4-4.09,2.45-7.67-1.87-7.46-1.18-9.14.51-4.68-.53-5-3.82-.25-4,7-.63,8.59.36,11.79S262.3,162.29,262.3,162.29Z"/></symbol><symbol id="self02" data-name="self02" viewBox="0 0 300 300"><path class="cls-5" d="M177.16,222.39s3.18,14.69-3,21.21-18.17,8.33-22.87,7.11,19-39.53,19-39.53Z"/><path class="cls-2" d="M249.14,142.64c-2.82,5.63-4.73,11.55-1.4,17.28-6.41,15.82-16.27,29-26.11,42.83-4.53,5.2-5.58,10.45-14.73,9.42s-17.5-5-26-13-10.2-13.33-24.6-14.47c-5.61-9.45-3.17-23.52-2.07-33.88-6.52,3.23-12.51,6.29-18,8.51-.58,12.07.7,14.79-13.94,28.61C99.1,209.78,81.76,263.82,76.9,300h64.2c2-30.17,16.22-57.84,30.7-83.61,10.26,9.34,25.65,11.52,38.56,14.15,10.23-1.68,11.65,1.26,18.26-12.37,6.83-14.13,20.08-36.54,26.7-52.89,6.5-2.2,10.53-6.43,14.14-11.77C262.66,149.94,255.93,146.22,249.14,142.64Z"/><path d="M237.64,148.67l12.29-42a3,3,0,0,1,3.72-2l20.2,5.92a3,3,0,0,1,2,3.72l-12.3,42a3,3,0,0,1-3.72,2l-20.2-5.92A3,3,0,0,1,237.64,148.67Z"/><polygon class="cls-6" points="262.59 153.51 239.98 146.89 250.94 109.47 273.55 116.09 262.59 153.51"/><path class="cls-2" d="M178.24,69.9s-9.3-19.18-27.54-15.56S113.31,67.68,118.51,96s13.57,41,28.51,46.21S181,127.49,181,127.49s15.2-19.35,7.5-39.89l5.43-8.21s2-2.78-3.75-2.91C183.77,76.34,181.32,74.71,178.24,69.9Z"/><path d="M27.28,83.7S42.53,110.82,68,106.48c0,0-8.35,17.6-27.44,10.37,0,0,16.24,28.76,58.43,17.64,0,0-4.19,6.8-14,8.15,0,0,20.14,15,44.45,6.26,0,0-4,7.9-12.34,10.58,0,0,11.91,5.92,27.22-2.71s16.2-11,16.2-11,8.74-6.69,8.91-16.86,1.82-17.09-3.14-29.15-1.8-26.14-1.8-26.14A21.3,21.3,0,0,0,160.69,53c-8.17-9.81-28.59-24.43-55.41.71L83.77,72.86S60.64,97,27.28,83.7Z"/><rect class="cls-1" width="300" height="300"/><path class="cls-2" d="M269,154s3.06-4.82.83-8-3.38-6.92-3.05-8.7-.47-4.68-1.55-4.77-3.78.55-2.51,7.68,1.16,8.54,2.79,11.47S269,154,269,154Z"/></symbol><symbol id="self04" data-name="self04" viewBox="0 0 308 300.06"><path class="cls-5" d="M185.92,220.76s3.18,14.69-3,21.21-18.18,8.33-22.87,7.11,19-39.53,19-39.53Z"/><path class="cls-2" d="M267.5,123.06c-2,5.6-2.92,10.73-1.32,16.55-9.17,20.12-20,39-30.77,58.32-5.73,5.24-6.09,8.37-15.39,8.43s-22.5-1.67-30.19-8.35c-11.57-10-13.51-12-25.11-13.36-6.72-10.94-3-21.64-2.76-33.85-6.05,2-18,10-18,10,.19,17.4-5.48,17.37-19,33-17.21,19.89-36.25,70.53-40.31,106.3L149.2,300c2.64-35.27,14.67-62,32.52-83.73,16.31,3.61,30.09,9.52,47.23,5,11.17-3,11.71-.86,17.59-15.64,6.06-15.24,21.61-40.92,27-59,9.62-1.92,9.45-8.48,10.87-16.65C277.94,129.67,273,126.27,267.5,123.06Z"/><path d="M254.83,129.7l4-43.54a3,3,0,0,1,3.26-2.71l21,1.92a3,3,0,0,1,2.71,3.26l-4,43.54a3,3,0,0,1-3.26,2.72l-21-1.93A3,3,0,0,1,254.83,129.7Z"/><polygon class="cls-6" points="280.25 129.65 256.79 127.5 260.35 88.68 283.81 90.83 280.25 129.65"/><path class="cls-2" d="M178.52,66.27s-10.87-18.34-28.75-13.22-36.15,16.4-28.62,44.16,16.94,39.77,32.26,43.68S186,123.44,186,123.44s13.53-20.55,4.16-40.37l4.73-8.64s1.75-2.93-4-2.59C184.56,72.22,182,70.81,178.52,66.27Z"/><path d="M29.71,93.53s16.69,28.22,41.72,21.78c0,0-5.21,11.15-24.83,5.53,0,0,16.93,34.4,58,19.81,0,0-1.2,4.55-10.88,6.72,0,0,18.92,15.88,42.42,5.11,0,0-2.23,4-10.31,7.33,0,0,11.24,9.15,25.79-.72s15.23-12.3,15.23-12.3,8.16-7.4,7.48-17.55.39-17.19-5.55-28.79-4-25.9-4-25.9a21.28,21.28,0,0,0-5.5-20.23c-8.95-9.1-30.52-22-55.16,5.31L84.35,80.5S64.06,104,29.71,93.53Z"/><polygon class="cls-1" points="8 0 308 0 300 300 0 300 8 0"/><path class="cls-2" d="M284.11,133.15s2.22-5.25-.5-8-4.45-6.27-4.42-8.09-1.23-4.54-2.3-4.45-3.65,1.16-1.23,8,2.54,8.23,4.62,10.85S284.11,133.15,284.11,133.15Z"/></symbol><symbol id="self05" data-name="self05" viewBox="0 0 300 300.05"><path class="cls-5" d="M180.74,218.28s3.18,14.7-3,21.21-18.17,8.33-22.87,7.12,19-39.53,19-39.53Z"/><path class="cls-2" d="M260.46,110.47c-2,6.76-2.2,12.45.59,19-6.27,19.14-15,34.47-26.11,51.6-4.13,6.35-5.61,9-15.49,10.9s-27.29,1.4-37.76-2.6-15.84-7.45-26.8-8c-2.84-10.27-1.58-20.05,1.56-29.72-7.28,1.76-15,4.72-22.09,5.44-3.88,19.56,4.2,14.49-13.18,31.63-20.88,20.59-40,80.72-44.47,111.34h64.44c3.75-33.08,20.8-62.31,34.29-91.18,18.68,5.75,36.84,1.6,55.54-1.18,10.19-6.09,11.74-2.46,16.21-17.36,4.34-14.45,15.71-39.46,22.06-55.69,11.08-8.54,9.89-5.08,13.13-18A142.14,142.14,0,0,1,260.46,110.47Z"/><path d="M252.94,120.64,250.27,77a3,3,0,0,1,2.81-3.17l21-1.29a3,3,0,0,1,3.18,2.81L279.94,119a3,3,0,0,1-2.81,3.18l-21,1.29A3,3,0,0,1,252.94,120.64Z"/><polygon class="cls-6" points="278.05 116.72 254.54 118.17 252.15 79.25 275.67 77.81 278.05 116.72"/><path class="cls-2" d="M169.92,73.2s-10.51-18.53-28.49-13.76S105,75.15,112,103.05s16.18,40.08,31.42,44.29,32.91-16.83,32.91-16.83,13.93-20.29,4.94-40.29l4.89-8.54s1.81-2.9-3.93-2.67C175.85,79.28,173.29,77.81,169.92,73.2Z"/><path d="M19.3,99.31s17.47,26.84,42.61,20.88c0,0-5.39,11.85-24.9,5.85,0,0,16.24,33.92,57.62,20.12,0,0-2,4.12-11.73,6.1,0,0,19.34,16.64,43,6.33,0,0-1.41,2.64-9.56,5.85,0,0,10.18,10.64,24.91,1.06s15.47-12,15.47-12,8.29-7.24,7.81-17.41.72-17.17-5-28.88-3.48-26-3.48-26A21.27,21.27,0,0,0,151,60.89c-8.78-9.27-30.1-22.55-55.25,4.25L75.5,85.63S53.44,110.43,19.3,99.31Z"/><rect class="cls-1" width="300" height="300"/><path class="cls-2" d="M282.3,116.79s.79-5.65-2.56-7.63-5.92-4.91-6.36-6.67S271,98.41,270,98.78s-3.22,2.06.88,8,4.58,7.29,7.27,9.29S282.3,116.79,282.3,116.79Z"/></symbol><symbol id="self06" data-name="self06" viewBox="0 0 300 300.05"><path class="cls-5" d="M180.74,218.28s3.25,14.54-3,21.21-18.17,8.33-22.87,7.12,19-39.53,19-39.53Z"/><path class="cls-2" d="M260.46,110.47c-2,6.76-2.2,12.45.59,19-6.27,19.14-15,34.47-26.11,51.6-4.13,6.35-5.61,9-15.49,10.9s-27.29,1.4-37.76-2.6-15.32-7.41-26.28-8c-4.76-11-2.1-20.09,1-29.76a143.62,143.62,0,0,1-20.34,3.3c-.61,19.46,1,16.9-14.25,32.74-19.08,19.86-41.5,71.15-45.15,112.37l64.2-.05c4.77-32,21-62.26,34.53-91.13,18.68,5.75,36.84,1.6,55.54-1.18,10.19-6.09,11.74-2.46,16.21-17.36,4.34-14.45,15.71-39.46,22.06-55.69,11.08-8.54,9.89-5.08,13.13-18A142.14,142.14,0,0,1,260.46,110.47Z"/><path d="M252.94,120.64,250.27,77a3,3,0,0,1,2.81-3.17l21-1.29a3,3,0,0,1,3.18,2.81L279.94,119a3,3,0,0,1-2.81,3.18l-21,1.29A3,3,0,0,1,252.94,120.64Z"/><polygon class="cls-6" points="278.05 116.72 254.54 118.17 252.15 79.25 275.67 77.81 278.05 116.72"/><path class="cls-2" d="M169.92,73.2s-10.51-18.53-28.49-13.76S105,75.15,112,103.05s16.18,40.08,31.42,44.29,32.91-16.83,32.91-16.83,13.93-20.29,4.94-40.29l4.89-8.54s1.81-2.9-3.93-2.67C175.85,79.28,173.29,77.81,169.92,73.2Z"/><path d="M17.61,104s19.16,22.15,44.3,16.19c0,0-7.2,18.1-26.71,12.1,0,0,18,27.67,59.43,13.87,0,0-3.25,6.1-13,8.08,0,0,20.58,14.66,44.28,4.35,0,0-2.38,5.86-10.53,9.07,0,0,11.15,7.42,25.88-2.16s15.47-12,15.47-12,8.29-7.24,7.81-17.41.72-17.17-5-28.88-3.48-26-3.48-26A21.27,21.27,0,0,0,151,60.89c-8.78-9.27-30.1-22.55-55.25,4.25L75.5,85.63S51.75,115.13,17.61,104Z"/><rect class="cls-1" width="300" height="300"/><path class="cls-2" d="M282.38,116.46s-.37-5.69-4.05-7-6.81-3.6-7.6-5.23-3.13-3.51-4.05-2.94-2.74,2.67,2.49,7.68,6,6.22,9,7.62S282.38,116.46,282.38,116.46Z"/><path class="cls-6" d="M258.78,72.89l2.85-5.53-4,4.08-1-7.54-.93,6.41L253.51,68l-.57,3-6.15-5.27,3.57,7.54-8.53.88,6.73,1.62-4.87,1.94,4.91.25-1.82,2.23,2.44-.7a22.15,22.15,0,0,1,.33-4c.29-.67,1.07-2,6.36-2.56A25,25,0,0,1,258.78,72.89Z"/></symbol><symbol id="self07" data-name="self07" viewBox="0 0 300 300.05"><path class="cls-5" d="M180.74,218.28s3.18,14.7-3,21.21-18.17,8.33-22.87,7.12,19-39.53,19-39.53Z"/><path class="cls-2" d="M260.46,110.47c-2,6.76-2.2,12.45.59,19-6.27,19.14-15,34.47-26.11,51.6-4.13,6.35-5.61,9-15.49,10.9s-27.29,1.4-37.76-2.6-15.11-7.39-26.06-8c-5-10.2-2.32-20.11.82-29.78-7.28,1.76-15,4.72-22.09,5.44-.32,19.55,5,13.31-12.25,30.53-20,19.95-41.43,75.22-45.3,112.39l64.39.05c.67-35.32,20.75-62.31,34.24-91.18,18.68,5.75,36.84,1.6,55.54-1.18,10.19-6.09,11.74-2.46,16.21-17.36,4.34-14.45,15.71-39.46,22.06-55.69,11.08-8.54,9.89-5.08,13.13-18A142.14,142.14,0,0,1,260.46,110.47Z"/><path d="M252.94,120.64,250.27,77a3,3,0,0,1,2.81-3.17l21-1.29a3,3,0,0,1,3.18,2.81L279.94,119a3,3,0,0,1-2.81,3.18l-21,1.29A3,3,0,0,1,252.94,120.64Z"/><polygon class="cls-6" points="278.05 116.72 254.54 118.17 252.15 79.25 275.67 77.81 278.05 116.72"/><path class="cls-2" d="M169.92,73.2s-10.51-18.53-28.49-13.76S105,75.15,112,103.05s16.18,40.08,31.42,44.29,32.91-16.83,32.91-16.83,13.93-20.29,4.94-40.29l4.89-8.54s1.81-2.9-3.93-2.67C175.85,79.28,173.29,77.81,169.92,73.2Z"/><path d="M17,108.31s19.78,17.84,44.92,11.88c0,0-7.58,21-27.09,15,0,0,18.43,24.75,59.81,10.95a20.51,20.51,0,0,1-13.69,10.23s21.3,12.51,45,2.2a19.6,19.6,0,0,1-10.75,11.13s11.37,5.36,26.1-4.22,15.47-12,15.47-12,8.29-7.24,7.81-17.41.72-17.17-5-28.88-3.48-26-3.48-26A21.27,21.27,0,0,0,151,60.89c-8.78-9.27-30.1-22.55-55.25,4.25L75.5,85.63S51.13,119.43,17,108.31Z"/><rect class="cls-1" width="300" height="300"/><path class="cls-2" d="M282.33,116.64s.66-5.67-2.73-7.58-6-4.77-6.52-6.52-2.45-4-3.46-3.62-3.17,2.13,1.06,8,4.75,7.19,7.49,9.13S282.33,116.64,282.33,116.64Z"/></symbol><symbol id="self08" data-name="self08" viewBox="0 0 300 300"><path class="cls-5" d="M180.74,218.28s3.18,14.7-3,21.21-18.17,8.33-22.87,7.12,19-39.53,19-39.53Z"/><path class="cls-2" d="M260.46,110.47c-2,6.76-2.2,12.45.59,19-6.27,19.14-15,34.47-26.11,51.6-4.13,6.35-5.61,9-15.49,10.9s-27.29,1.4-37.76-2.6-15.23-7.4-26.18-8c-4.86-9.72-2.2-20.1.94-29.77-7.28,1.76-15,4.72-22.09,5.44.77,11.63,5.83,13.6-12.12,30.14C101.52,206.31,80.57,262.91,76.81,300h64.1c4.77-32,21-62.26,34.53-91.13,18.68,5.75,36.84,1.6,55.54-1.18,10.19-6.09,11.74-2.46,16.21-17.36,4.34-14.45,15.71-39.46,22.06-55.69,11.08-8.54,9.89-5.08,13.13-18A142.14,142.14,0,0,1,260.46,110.47Z"/><path d="M252.94,120.64,250.27,77a3,3,0,0,1,2.81-3.17l21-1.29a3,3,0,0,1,3.18,2.81L279.94,119a3,3,0,0,1-2.81,3.18l-21,1.29A3,3,0,0,1,252.94,120.64Z"/><polygon class="cls-6" points="278.05 116.72 254.54 118.17 252.15 79.25 275.67 77.81 278.05 116.72"/><path class="cls-2" d="M169.92,73.2s-10.51-18.53-28.49-13.76S105,75.15,112,103.05s16.18,40.08,31.42,44.29,32.91-16.83,32.91-16.83,13.93-20.29,4.94-40.29l4.89-8.54s1.81-2.9-3.93-2.67C175.85,79.28,173.29,77.81,169.92,73.2Z"/><path d="M17.33,105.22s19.44,20.93,44.58,15c0,0-7.56,19.4-27.07,13.4,0,0,18.41,26.37,59.79,12.57,0,0-3.74,6.9-13.46,8.88,0,0,21.07,13.86,44.77,3.55a18.74,18.74,0,0,1-10.59,9.9s11.21,6.59,25.94-3,15.47-12,15.47-12,8.29-7.24,7.81-17.41.72-17.17-5-28.88-3.48-26-3.48-26A21.27,21.27,0,0,0,151,60.89c-8.78-9.27-30.1-22.55-55.25,4.25L75.5,85.63S51.47,116.34,17.33,105.22Z"/><rect class="cls-1" width="300" height="300"/><path class="cls-2" d="M282.3,116.79s.79-5.65-2.56-7.63-5.92-4.91-6.36-6.67S271,98.41,270,98.78s-3.22,2.06.88,8,4.58,7.29,7.27,9.29S282.3,116.79,282.3,116.79Z"/></symbol><symbol id="self03" data-name="self03" viewBox="0 0 300 300.23"><path class="cls-5" d="M177.91,220.76s3.19,14.69-3,21.21-18.18,8.33-22.87,7.11,19-39.53,19-39.53Z"/><path class="cls-2" d="M251.25,134.39a41.27,41.27,0,0,0-.59,18.72c-9.32,16.72-18.53,33.45-28.37,49.86-5.62,4.46-5.17,8.28-14.07,7.19a56.05,56.05,0,0,1-27.06-11.68c-7.78-6.33-10.16-13.23-24-13.73-6.79-11-3.68-22.23-2.77-34.7-5.6,2.39-17.32,5.62-17.32,5.62-2,22.33-1.48,17.31-18.53,36C96.1,216.3,82,258.47,76.71,300.05c20.81.49,43.38-.16,64.41-.05.13-29.68,19.4-57.13,31.84-83.69,13.91,6.05,24.74,11.54,40.86,10,10.5-1,12.18,1.09,18.19-12.86,6.2-14.38,16.7-39.61,26.44-54.55,8.58-5.71,13.35-9.93,12.59-20.5C263.67,139.32,258.05,137,251.25,134.39Z"/><path d="M241.27,140.3l8.36-42.92A3,3,0,0,1,253.14,95l20.66,4a3,3,0,0,1,2.37,3.51l-8.35,42.92a3,3,0,0,1-3.52,2.38l-20.66-4A3,3,0,0,1,241.27,140.3Z"/><polygon class="cls-6" points="266.56 142.81 243.44 138.31 250.88 100.03 274.01 104.54 266.56 142.81"/><path class="cls-2" d="M174,69.86S164.16,51,146,55.1s-37,14.4-31,42.53,14.73,40.63,29.81,45.37,33.5-15.64,33.5-15.64,14.64-19.78,6.36-40.09l5.19-8.36s1.91-2.84-3.83-2.8C179.72,76.14,177.21,74.59,174,69.86Z"/><path d="M27.64,84.14s13.75,28.35,39.09,23.29c0,0-7.85,17.83-27.13,11.15,0,0,17,28.28,58.91,16,0,0-3.47,6-13.26,7.61,0,0,20,15.38,44.1,5.92a20.84,20.84,0,0,1-11.42,9.62s11.45,6.88,26.51-2.18,15.89-11.45,15.89-11.45,8.54-6.94,8.42-17.11,1.33-17.14-4-29-2.54-26.08-2.54-26.08a21.3,21.3,0,0,0-4.38-20.5c-8.45-9.57-29.28-23.6-55.37,2.29l-21,19.76S61.37,96.47,27.64,84.14Z"/><rect class="cls-1" width="300" height="300"/><path class="cls-2" d="M269.71,143.62s2.79-5,.4-8-3.74-6.73-3.51-8.53-.71-4.65-1.8-4.68-3.74.75-2.1,7.81,1.62,8.46,3.4,11.3S269.71,143.62,269.71,143.62Z"/></symbol><symbol id="front" data-name="front" viewBox="0 0 300 300"><rect id="baggrund" class="cls-1" width="300" height="300"/><g id="hoved"><path class="cls-2" d="M153.14,98.82s29.94,7.3,39.44-13.65,29.48-46.72,5.91-58-41.72,11.69-41.72,11.69S148.16,49.69,145,55.49a33.13,33.13,0,0,0-3.48,12.3S140,79.38,140.31,81.51,138.43,90.82,153.14,98.82Z"/><path d="M237.5,62.5s-16,3-19-11c0,0-1.9-27-24.67-29.59s-31.09,8.33-37.06,16.93c0,0,10.27-12.91,25.68-8.74,0,0-4.86,14.16,1.8,23.87,0,0,7.64,8.75,7.64,17.08,0,0-2.22,15.27,4.62,20.68,7.55,6,16.62,9.58,28.7.84,0,0-4.45,1.11-11.11-1.67,0,0,7.36,1.81,16.38-8.47,0,0-8.88-2.08-10.55-9.16C219.93,73.27,229.8,79.08,237.5,62.5Z"/><path class="cls-3" d="M157.5,79.22s-5.24-5.89-5.95-7.72A3.43,3.43,0,0,1,148.49,70s-4.25,1.12-6.78.35c0,0-1.12,7.13,2.83,8.84S151.55,81.57,157.5,79.22Z"/><path d="M173.64,61.79a2.78,2.78,0,0,1,3.58,0c1.94,1.48,1.91,2.31,1.54,2.68a3.31,3.31,0,0,1-3.7-.15C173.61,63.21,173.27,62.78,173.64,61.79Z"/><path d="M152.93,48.17s1.15-.86,2.85.34.7,2.16.7,2.16-.91.75-2.67-.41S152.93,48.17,152.93,48.17Z"/><path class="cls-4" d="M160.76,51.48s-5.71,6.88-13.29,4.64c0,0-1-.6-1.44.92s7.13,4.35,8.22,6.66Z"/></g><path class="cls-2" d="M160.76,94.84s4.66,10.44-1.73,24.31h-7.71s-3.3-.43-6.8,2.76-27.19,22-32.14,24.22-11.68,5.15-16.2,2.94A30.49,30.49,0,0,1,84.92,139C83,135.71,65.35,99,65.35,99s.11-5.78-1.08-7.32a10.15,10.15,0,0,0-2.79-3c-1.7-1.13-3.19-6.74-1.8-10s-3.61-1.39-4.56.75,0,6.22,0,6.22L33.81,84.3a5.25,5.25,0,0,0-5.23.86c-2.26,2.07,2.49,3.74,2.49,3.74s12.49,4.68,15.49,8.66,5,5,5,5,4.72,3.27,7.84.11c0,0,18.74,46.72,22.7,50.14,4.52,3.9,11.31,10.15,23.73,8s36.61-19.52,36.61-19.52l-7,44.89s-2.14,18.52-8.33,28.11-10.06,27.25-10.06,27.25-5.11,30.13-5.26,58.46h57.79s11.24-16.21,12.17-31.22-2.63-25.08-9.13-33.28,7-42.26,7-42.26l8.21-19.81s3.87-9,6.81.46c0,0,8.2,14.25,12.85,36.38s13,24.15,28,51.08c0,0,1,1.36.68,4.54s2.79,8.35,2.79,8.35,3.42,4.14.39,16.34c0,0,.16,2.39,2.75-2.66s2.31-8.67,2.31-8.67-.68-1.71.47-2.35,3.22-.43,4.74,3.23a41.77,41.77,0,0,1,4.89,12c1.23,6.16,2.7,2.7,2.38.55,0,0,.27,3.21,1.39,2.78s.42-3.7.42-3.7.29,1.54,1.37,1.3.44-4.06.44-4.06.84,1,1.51.68-1.31-8.85-1.87-13.22-12.6-12.13-12.6-12.13-4.82-3.42-9-14.52-17-36.57-17-36.57-6.75-18.18-8-29.74-9.5-48.07-39.94-58.54A55.91,55.91,0,0,1,184,91.23S171.11,73.52,160.76,94.84Z"/><ellipse class="cls-5" cx="167.94" cy="167.63" rx="18.32" ry="21.16"/><ellipse class="cls-5" cx="147.44" cy="160.81" rx="17.75" ry="20.51"/><g id="phone"><path d="M48.84,104.27,30,81.1a3,3,0,0,1,.43-4.22l10.48-8.52a3,3,0,0,1,4.22.44L64,92a3,3,0,0,1-.43,4.22l-10.48,8.52A3,3,0,0,1,48.84,104.27Z"/><polygon class="cls-6" points="62.45 92.08 49.26 102.8 31.53 80.98 44.71 70.27 62.45 92.08"/></g></symbol></defs><title>pige_sprite</title><g id="Layer_2" data-name="Layer 2"><g id="selfie"><g id="sprite"><use width="300" height="300" transform="translate(0 0.23)" xlink:href="#self01"/><use width="300" height="300" transform="translate(300 0.23)" xlink:href="#self02"/><use width="308" height="300.06" transform="translate(896 0.18)" xlink:href="#self04"/><use width="300" height="300.05" transform="translate(1200 0.18)" xlink:href="#self05"/><use width="300" height="300.05" transform="translate(1500 0.18)" xlink:href="#self06"/><use width="300" height="300.05" transform="translate(1800 0.18)" xlink:href="#self07"/><use width="300" height="300" transform="translate(2100 0.23)" xlink:href="#self08"/><use width="300" height="300.23" transform="translate(600)" xlink:href="#self03"/><use width="300" height="300" transform="translate(0 300.23)" xlink:href="#front"/></g></g></g></svg>
