<svg xmlns="http://www.w3.org/2000/svg" width="361.44" height="177.84" viewBox="0 0 361.44 177.84">
  <defs>
    <style>
      .cls-1 {
        fill: #f3922f;
      }
    </style>
  </defs>
  <title>PrivatSnap</title>
  <g id="Layer_2" data-name="Layer 2">
    <g id="title">
      <g>
        <path class="cls-1" d="M28.32,0c9,0,15.24,1,21.12,6.12,6.48,5.76,8.16,13.56,8.16,19.32,0,3.12-.48,11.76-6.6,17.88-4.44,4.44-11,7.08-20.28,7.08H20.64V80H5V0ZM20.64,37H27c3,0,6.84,0,10.2-2.52a12,12,0,0,0,4.32-9.36A11,11,0,0,0,37.08,16c-3.24-2.28-7.32-2.52-11-2.52h-5.4Z"/>
        <path class="cls-1" d="M92.28,0c11,0,16.68,2.88,20.4,6,6.12,5.16,7.92,12,7.92,18,0,7.8-3.12,14.64-9.36,18.84a22.18,22.18,0,0,1-8.76,3.48l25,33.72H108L86.64,47.88H84.72V80H69.12V0ZM84.72,36.84h4.44c3,0,15.36-.36,15.36-12.12s-12.24-12-15.12-12H84.72Z"/>
        <path class="cls-1" d="M153.6,0V80H138V0Z"/>
        <path class="cls-1" d="M180,0l21.36,53.76L222.72,0h17L205.92,80h-9.36L163,0Z"/>
        <path class="cls-1" d="M289.08,63.24H256.8L249.72,80H232.8L267.24,0h12.24L313,80h-16.8Zm-4.56-12.72-11.4-28.8-11.4,28.8Z"/>
        <path class="cls-1" d="M343.44,13.44V80h-15.6V13.44h-18V0h51.6V13.44Z"/>
        <path class="cls-1" d="M44.4,114.24c-4.68-6.24-10.2-6.84-13.08-6.84-8.4,0-11,5.28-11,9.36a6.74,6.74,0,0,0,2.52,5.4c1.92,1.8,4.56,2.76,9.6,4.56,6.24,2.16,12.12,4.32,16.2,8,3.6,3.24,6.84,8.64,6.84,16.8,0,15.6-11.28,26.28-27.84,26.28-14.76,0-23.4-9-27.6-15.12L10.2,153A18.77,18.77,0,0,0,27,163.68c7.08,0,12.36-4.32,12.36-11a9.3,9.3,0,0,0-3.12-7.2c-3-2.76-7.8-4.32-12.36-5.88-4.2-1.44-9.24-3.36-13.32-7-2.64-2.28-6.36-6.72-6.36-14.88C4.2,106,12.12,94.2,29.88,94.2a30.78,30.78,0,0,1,22.68,9.36Z"/>
        <path class="cls-1" d="M69.12,176V96h10.8l48.72,53.4V96h15.6v80h-10.8L84.72,122.52V176Z"/>
        <path class="cls-1" d="M209.88,159.24H177.6L170.52,176H153.6L188,96h12.24l33.48,80H217Zm-4.56-12.72-11.4-28.8-11.4,28.8Z"/>
        <path class="cls-1" d="M266.4,96c9,0,15.24,1,21.12,6.12,6.48,5.76,8.16,13.56,8.16,19.32,0,3.12-.48,11.76-6.6,17.88-4.44,4.44-11,7.08-20.28,7.08H258.72V176h-15.6V96Zm-7.68,37h6.36c3,0,6.84,0,10.2-2.52a12,12,0,0,0,4.32-9.36,11,11,0,0,0-4.44-9.12c-3.24-2.28-7.32-2.52-11-2.52h-5.4Z"/>
        <path class="cls-1" d="M317.16,151.68V128.16a19.33,19.33,0,0,0,4.68.48c4.68,0,8.76-1.56,11.28-4.08a11.88,11.88,0,0,0,3.12-8,9.53,9.53,0,0,0-2.52-7,8.35,8.35,0,0,0-6.24-2.4,8.48,8.48,0,0,0-6.12,2.16c-1.32,1.2-2.64,3.6-2.64,7.8h-15.6c0-6.24,2.64-12.6,6-16.2,3.24-3.36,8.88-6.72,19-6.72,6.24,0,12.48,1.2,17.52,6.12,3.36,3.24,6.24,8.52,6.24,16.56,0,6.48-2,11.4-6.12,15.48A23.8,23.8,0,0,1,332,139.08v12.6Zm7.44,7.44a9.36,9.36,0,1,1-9.36,9.36A9.22,9.22,0,0,1,324.6,159.12Z"/>
      </g>
    </g>
  </g>
</svg>
