<svg xmlns="http://www.w3.org/2000/svg" width="663.86" height="326.26" viewBox="0 0 663.86 326.26">
  <defs>
    <style>
      .cls-1 {
        fill: #fff;
      }

      .cls-2 {
        fill: #f3922f;
      }
    </style>
  </defs>
  <title>privat_snap</title>
  <g id="Layer_2" data-name="Layer 2">
    <g id="Layer_1-2" data-name="Layer 1">
      <path class="cls-1" d="M96.36,296c-3.5,1.18-5.94,3.93-8.77,6.06-10,7.52-19.88,15.18-29.82,22.76-.79.6-1.51,1.76-2.64,1.31-1.41-.57-.85-2-.85-3.1,0-15.39-.15-30.77.07-46.15,0-3.61-1.1-4.31-4.42-4.23-9.77.21-19.55.13-29.33,0C8.73,272.6,0,263.6,0,251.74,0,195.56,1.31,79.43.91,23.25.8,8.9,11.09,0,24.21,0Q333.39.35,642.55.17c12.7,0,21.3,8.57,21.31,21.33,0,56.71-1,173.35-1,230.06,0,10.67-5.58,17.64-16.87,21-2.21,0-4.43.11-6.64.11H271.83q-70.77,0-141.53,0c-3,0-5.43.43-7.88,2.5-5,4.18-10.48,7.71-15.48,11.87C103.38,290,99,292,96.36,296Z"/>
      <g id="Layer_2-2" data-name="Layer 2">
        <g id="title">
          <g>
            <path class="cls-2" d="M186.26,47.87c9,0,15.24,1,21.12,6.12,6.48,5.76,8.16,13.56,8.16,19.32,0,3.12-.48,11.76-6.6,17.88-4.44,4.44-11,7.08-20.28,7.08H178.58v29.6H162.94v-80Zm-7.68,37h6.36c3,0,6.84,0,10.2-2.52A12,12,0,0,0,199.46,73,11,11,0,0,0,195,63.87c-3.24-2.28-7.32-2.52-11-2.52h-5.4Z"/>
            <path class="cls-2" d="M250.22,47.87c11,0,16.68,2.88,20.4,6,6.12,5.16,7.92,12,7.92,18,0,7.8-3.12,14.64-9.36,18.84a22,22,0,0,1-8.76,3.48l25,33.72H265.94L244.58,95.75h-1.92v32.12h-15.6v-80Zm-7.56,36.84h4.44c3,0,15.36-.36,15.36-12.12s-12.24-12-15.12-12h-4.68Z"/>
            <path class="cls-2" d="M311.54,47.87v80h-15.6v-80Z"/>
            <path class="cls-2" d="M337.94,47.87l21.36,53.76,21.36-53.76h17l-33.8,80H354.5l-33.56-80Z"/>
            <path class="cls-2" d="M447,111.11H414.74l-7.08,16.76H390.74l34.44-80h12.24l33.52,80h-16.8Zm-4.56-12.72-11.4-28.8-11.4,28.8Z"/>
            <path class="cls-2" d="M501.38,61.31v66.56h-15.6V61.31h-18V47.87h51.6V61.31Z"/>
            <path class="cls-2" d="M202.34,162.11c-4.68-6.24-10.2-6.84-13.08-6.84-8.4,0-11,5.28-11,9.36a6.75,6.75,0,0,0,2.52,5.4c1.92,1.8,4.56,2.76,9.6,4.56,6.24,2.16,12.12,4.32,16.2,8,3.6,3.24,6.84,8.64,6.84,16.8,0,15.6-11.28,26.28-27.84,26.28-14.76,0-23.4-9-27.6-15.12l10.16-9.68a18.76,18.76,0,0,0,16.8,10.68c7.08,0,12.36-4.32,12.36-11a9.33,9.33,0,0,0-3.12-7.2c-3-2.76-7.8-4.32-12.36-5.88-4.2-1.44-9.24-3.36-13.32-7-2.64-2.28-6.36-6.72-6.36-14.88,0-11.72,7.92-23.52,25.68-23.52a30.84,30.84,0,0,1,22.68,9.36Z"/>
            <path class="cls-2" d="M227.06,223.87v-80h10.8l48.72,53.4v-53.4h15.6v80h-10.8l-48.72-53.48v53.48Z"/>
            <path class="cls-2" d="M367.82,207.11H335.54l-7.08,16.76H311.54l34.4-80h12.24l33.48,80H374.94Zm-4.56-12.72-11.4-28.8-11.4,28.8Z"/>
            <path class="cls-2" d="M424.34,143.87c9,0,15.24,1,21.12,6.12,6.48,5.76,8.16,13.56,8.16,19.32,0,3.12-.48,11.76-6.6,17.88-4.44,4.44-11,7.08-20.28,7.08H416.66v29.6h-15.6v-80Zm-7.68,37H423c3,0,6.84,0,10.2-2.52a12,12,0,0,0,4.32-9.36,11,11,0,0,0-4.44-9.12c-3.24-2.28-7.32-2.52-11-2.52h-5.4Z"/>
            <path class="cls-2" d="M475.1,199.55V176a18.94,18.94,0,0,0,4.68.48c4.68,0,8.76-1.56,11.28-4.08a11.83,11.83,0,0,0,3.12-8,9.54,9.54,0,0,0-2.52-7,8.36,8.36,0,0,0-6.24-2.4,8.5,8.5,0,0,0-6.12,2.16c-1.32,1.2-2.64,3.6-2.64,7.8h-15.6c0-6.24,2.64-12.6,6-16.2,3.24-3.36,8.88-6.72,19-6.72,6.24,0,12.48,1.2,17.52,6.12,3.36,3.24,6.24,8.52,6.24,16.56,0,6.48-2,11.4-6.12,15.48A23.75,23.75,0,0,1,489.94,187v12.6Zm7.44,7.44a9.36,9.36,0,1,1-9.36,9.36h0a9.22,9.22,0,0,1,9.08-9.36Z"/>
          </g>
        </g>
      </g>
    </g>
  </g>
</svg>
