<svg xmlns="http://www.w3.org/2000/svg" xmlns:xlink="http://www.w3.org/1999/xlink" width="509.85" height="166.77" viewBox="0 0 509.85 166.77">
  <defs>
    <style>
      .cls-1 {
        fill: url(#linear-gradient);
      }
    </style>
    <linearGradient id="linear-gradient" x1="254.93" y1="166.77" x2="254.93" gradientUnits="userSpaceOnUse">
      <stop offset="0" stop-color="#ffda6a"/>
      <stop offset="0.14" stop-color="#ffc6ed"/>
      <stop offset="0.21" stop-color="#ffdaf3"/>
      <stop offset="0.3" stop-color="#ffebf9"/>
      <stop offset="0.41" stop-color="#fff6fc"/>
      <stop offset="0.56" stop-color="#fffdfe"/>
      <stop offset="1" stop-color="#fff"/>
    </linearGradient>
  </defs>
  <title>sky1</title>
  <g id="Layer_2" data-name="Layer 2">
    <g id="Layer_1-2" data-name="Layer 1">
      <path class="cls-1" d="M508.29,97.87c-4.7-34.48-39.71-59.82-74.5-59.82a62.7,62.7,0,0,0-31.44,8.4A77.71,77.71,0,0,0,259.57,47.6a46.16,46.16,0,0,0-64.51,18.54A63.34,63.34,0,0,0,84.55,74.82a37.25,37.25,0,0,0-20.64-6.21c-16.4,0-39.72,9.36-49.72,18-17.13,14.82-27.6,77.43,22.27,77.76,20.81.14,337.83,5.3,454.09,0C514,163.32,510.44,113.63,508.29,97.87Z"/>
    </g>
  </g>
</svg>
