<svg xmlns="http://www.w3.org/2000/svg" xmlns:xlink="http://www.w3.org/1999/xlink" width="364.24" height="114.24" viewBox="0 0 364.24 114.24">
  <defs>
    <style>
      .cls-1 {
        fill: url(#linear-gradient);
      }
    </style>
    <linearGradient id="linear-gradient" x1="182.12" y1="114.24" x2="182.12" gradientUnits="userSpaceOnUse">
      <stop offset="0" stop-color="#ffda6a"/>
      <stop offset="0.14" stop-color="#ffc6ed"/>
      <stop offset="0.21" stop-color="#ffdaf3"/>
      <stop offset="0.3" stop-color="#ffebf9"/>
      <stop offset="0.41" stop-color="#fff6fc"/>
      <stop offset="0.56" stop-color="#fffdfe"/>
      <stop offset="1" stop-color="#fff"/>
    </linearGradient>
  </defs>
  <title>sky2</title>
  <g id="Layer_2" data-name="Layer 2">
    <g id="Layer_1-2" data-name="Layer 1">
      <path class="cls-1" d="M363.14,67.49c-3.35-23.77-28.36-41.25-53.22-41.25A46.1,46.1,0,0,0,287.45,32c-8.59-18.86-28.11-32-50.82-32-23,0-42.79,13.54-51.19,32.83a33.62,33.62,0,0,0-16.79-4.44,33.11,33.11,0,0,0-29.29,17.22,46.06,46.06,0,0,0-79,6,27.29,27.29,0,0,0-14.74-4.28c-11.72,0-28.38,6.45-35.52,12.41C-2.1,70-9.58,113.13,26.05,113.37c14.87.09,240,1.92,324.42,0C367.09,113,364.68,78.36,363.14,67.49Z"/>
    </g>
  </g>
</svg>
