<svg xmlns="http://www.w3.org/2000/svg" width="1200" height="200" viewBox="0 0 1200 200"><defs><style>.cls-1{fill:none;}.cls-2{fill:#fc9;}.cls-3{fill:#f9f9f9;}.cls-4{fill:#d8a356;}.cls-5{fill:#efbb60;}.cls-6{fill:#f7c394;}.cls-7{fill:#ffe900;}.cls-8{fill:#f4dac3;}.cls-9{fill:#fff;}.cls-10{fill:#0d0a05;}</style></defs><title>sprite_hand</title><g id="Layer_2" data-name="Layer 2"><g id="sprite"><rect class="cls-1" x="1000" width="200" height="200" transform="translate(2200 200) rotate(180)"/><path class="cls-2" d="M1198,120.16S1143,88,1138,77c0,0-1.87-21.46-4.5-22.5-1.73-.69-9.66-7.22-14.84-11.53l-4.16-3.47c-3.27-2.68-3,2.15,0,7,2.63,4.19,7.9,8,10,11,2.68,3.86-42.32-15.28-45-16-3.88-1,8.19,10.76,13,13,1.81.85-14.67-3.34-12,1,1.38,2.24,19.08,1.38,16,7,0,0-14-5-14-3s13,8,15,11-9.1-5.09-10-4c-3.8,4.57,30.94,21.35,39,22,7.26.58,60.76,59.81,60.76,59.81Z"/><rect x="1089" y="31" width="27" height="51" rx="4.2" ry="4.2" transform="translate(2170.13 -224.31) rotate(162.33)"/><rect class="cls-3" x="1092.21" y="33.97" width="20.94" height="44.27" transform="translate(2170.37 -225.15) rotate(162.33)"/><path class="cls-2" d="M1099.35,53.66c2.6-.49,4.18-1.36,4.91-4.11s1.31-8.06-1.85-8.75-4.59,2.09-5.36,3.65a10.44,10.44,0,0,0-.91,3.2c-.26,1.05.43,3.19.74,4.17A2.9,2.9,0,0,0,1099.35,53.66Z"/><path d="M1109.48,43.88c-1.43.25-2.14,1.16-3.3-.88-.76-1.32-2.36-3.69-4.85-2.85a5.59,5.59,0,0,0-4.27,4.43,3.91,3.91,0,0,1,3-2.63c.17,1.47.2,2.38,1.53,3.52a4.16,4.16,0,0,1,1.87,2.17c.21.78.34,2.3,1.73,2.76a3.28,3.28,0,0,0,4-1.42,2.92,2.92,0,0,1-1.63.35c1-.2,1.51-1.31,1.89-2.14a2.12,2.12,0,0,1-1.94-.8C1109,46.57,1109.27,44.86,1109.48,43.88Z"/><path class="cls-4" d="M1100.35,51a4.65,4.65,0,0,0-1.19-.81c-.32-.09-.27.11-.53-.08a2.17,2.17,0,0,1-.94.42c.17.48.22,1.05.87,1.15A2.25,2.25,0,0,0,1100.35,51Z"/><path d="M1100.87,47.41c0-.23.33-.25.49-.19s.42.14.35.32-.35.22-.51.17S1100.83,47.63,1100.87,47.41Z"/><path d="M1097,46.84c.07-.14.28-.13.4-.1s.28.15.21.28-.28.11-.39.09S1096.88,47,1097,46.84Z"/><path class="cls-5" d="M1099.35,46.93c-.19.77-.56,1.21-1.27,1.26,0,0-.22,0-.08.23s.94.39,1.22.59C1099.28,48.33,1099.31,47.62,1099.35,46.93Z"/><path class="cls-2" d="M1100.39,52.65a5.59,5.59,0,0,1,1,3.71,8.2,8.2,0,0,0-2.48,2.17c-.47.81-3.51,8.94-3.41,9.51,0,0,.43,1.48.68,2,0,0,2.81-8.06,3.95-9.48.39,2,.69,4.78.89,6.65a12,12,0,0,1-.24,4.39,20.75,20.75,0,0,0,.28,8.19c2.76-.76,6.55-2.15,9.29-3,.27-2-1.49-3.83-2.77-5.11s-.58-4.55-.34-5.85.37-2.27.6-3.09.2-1.11,1-.32a12.44,12.44,0,0,1,2.28,3.66,9.11,9.11,0,0,0,3.23,3.53s0,.2.06.45.19.46.46.84a10.81,10.81,0,0,1,.57,2.16,1,1,0,0,0,.24-.63,11,11,0,0,0-.08-1.31c-.06-.28-.15-.17,0-.37s.41-.15.73.18a8,8,0,0,1,1.19,1.45c.27.49.57.52.36,0,0,.09.18.43.31.31s0-.42-.11-.54c.06,0,.14.2.25.09s0-.48-.12-.59.23.3.21-.07a6,6,0,0,0-.89-1.79c-.34-.53-1.2-.57-1.82-.74s-.69-.23-1.11-1-1.19-1.61-1.89-2.74a11.07,11.07,0,0,1-1.39-3.21c-.74-2.15-4.2-5.92-7.58-5.58a9.93,9.93,0,0,1-.23-5.63C1101.68,49.71,1100.81,50.86,1100.39,52.65Z"/><path class="cls-6" d="M1107.23,62.11a3.32,3.32,0,0,1-1.86,3.79,2.36,2.36,0,0,1-3.2-1.85,3.29,3.29,0,0,1,1.66-3.94A2.59,2.59,0,0,1,1107.23,62.11Z"/><path class="cls-6" d="M1104,62.3a3.18,3.18,0,0,1-1.74,3.72c-1.48.62-2.78-.43-3.22-1.9a3.07,3.07,0,0,1,1.57-3.84A2.63,2.63,0,0,1,1104,62.3Z"/><rect class="cls-1" x="800" width="200" height="200" transform="translate(1800 200) rotate(180)"/><path class="cls-2" d="M909.85,49.15a3.13,3.13,0,0,1-.53.65l-.49-.37A2.11,2.11,0,0,0,909.85,49.15Z"/><path class="cls-2" d="M880.21,48.52c.78,2.53,8.24,7.88,10.66,10.43,1.31,1.38,3.38,2.13,2.91,4.25-.09.43-1,.56-1.28.34-.76-.68-9.41-9.08-9.21-5.42.27,4.62,7.31,9.75,10.49,12.94a4.88,4.88,0,0,1,.33.47c.27.22.22.72,0,.6-.73-.48-7.63-5.89-7.38-3.31.37,3.79,5.78,6.51,9,9.71,1.38,1.39,5.83,3.45,8.15,4.1,4.81-1.27,10.06-2,14.64-3.51,2.82-.91,3.61-2.21,3.22-5.13-.57-4.33-2.24-9-2.94-13.43-1.45-.46-1.7-.18-3.27-1C906.18,55,898,46.92,889,41.72a39.78,39.78,0,0,0-5.3-2.67c-1.44-.55-4.82-3.28-5.16-2.72-2.14,3.5,8.39,10.19,10.54,13.17,1,1.45,2,2.46,1.93,3.53s-.87-.57-1.06-.76C889.06,51.39,878.3,42.29,880.21,48.52Z"/><path d="M883.17,40.31l.68,2.15,3,9.52.71,2.25,1.57,4.93,1.13,3.54,2.82,8.83.32,1,2,6.17.69,2.18a4.21,4.21,0,0,0,5.28,2.73l3.34-1.06L919.1,78a4.22,4.22,0,0,0,2.73-5.29l-4.2-13.18-1.94-6.09c-1.13-.53-2.29-1.07-3.35-1.5-1.69-.68-3.46-1.79-3.34-1.92-2.72-1.36-4.87-6.81-1.47-7,.55,0,1,.2,2.27,1,.8.47,1.67.69,2.53,1.18l.86.46L908.9,32.11a4.21,4.21,0,0,0-5.28-2.73L885.9,35A4.22,4.22,0,0,0,883.17,40.31Z"/><path class="cls-3" d="M886,38.19l2.25,7.06,11.19,35.12,20-6.36-4.77-15-2.27-7.11A15.87,15.87,0,0,1,909,50c-5.11-4.46-2.66-8.41.8-6.07l-3.86-12.1Z"/><path class="cls-2" d="M899.83,53.46c2.62-.4,4.23-1.21,5.06-3.92s1.61-8-1.52-8.82-4.67,1.92-5.5,3.45a10.66,10.66,0,0,0-1,3.17c-.3,1,.31,3.2.58,4.19A2.91,2.91,0,0,0,899.83,53.46Z"/><path class="cls-2" d="M999.46,118c0,5.65-7.87,24.19-11.08,30.37C974.85,133,941.83,93,927.11,88.59c-7.06-2.12-15.05-3.19-22.8-5.9l13.79-5.61a4.22,4.22,0,0,0,2.73-5.29l-3.6-13.54c1,0,.64-1.61-1.23-4.15-1.09-1.47-3.74-2.24-5-3.1-.22-.15-1-.69-1.68-1.2a3.13,3.13,0,0,0,.53-.65,2.11,2.11,0,0,1-1,.28l-.19-.13-.42-.33c-2.64-2.1-7.91-8-1.78-6.92h.09a9.24,9.24,0,0,1,2.27,1c.82.44,1.7,1,2.56,1.45l.93.52h0c5,3.33,14.09,6.94,15.7,10.1,3.52,6.93,6,14.73,8.94,20.84C949.06,92.51,981,107.85,999.46,118Z"/><path d="M909.85,49.15a3.13,3.13,0,0,1-.53.65,3.32,3.32,0,0,1-3.49.62c-1.36-.51-1.44-2-1.62-2.82a4.17,4.17,0,0,0-1.79-2.24c-1.29-1.18-1.28-2.1-1.4-3.57a3.9,3.9,0,0,0-3.15,2.52A5.61,5.61,0,0,1,902.31,40c2-.58,3.31.76,4.13,2-6.13-1-.86,4.82,1.78,6.92l.42.33a1.53,1.53,0,0,1-.43.13h.62A2.11,2.11,0,0,0,909.85,49.15Z"/><path class="cls-4" d="M900.93,50.82a4.54,4.54,0,0,0-1.16-.85c-.32-.11-.27.09-.53-.1a2.34,2.34,0,0,1-1,.39c.15.48.18,1.05.82,1.17A2.24,2.24,0,0,0,900.93,50.82Z"/><path d="M901.58,47.27c0-.22.34-.23.5-.17s.41.15.34.33-.36.21-.52.15S901.54,47.49,901.58,47.27Z"/><path d="M897.68,46.56c.08-.14.29-.12.41-.08s.27.15.2.28-.28.1-.39.07S897.61,46.7,897.68,46.56Z"/><path class="cls-5" d="M900.08,46.73c-.22.77-.6,1.2-1.32,1.22,0,0-.22,0-.09.22s.93.43,1.21.65C900,48.13,900,47.43,900.08,46.73Z"/><path class="cls-2" d="M900.91,52.49a5.58,5.58,0,0,1,.82,3.74,8.11,8.11,0,0,0-2.55,2.08c-.51.79-3.84,8.81-3.76,9.38a20.34,20.34,0,0,0,.6,2s3.11-8,4.3-9.32c.32,2,.52,4.79.64,6.68a11.87,11.87,0,0,1-.4,4.37,22.66,22.66,0,0,0,0,8.54c2.78-.65,6.57-2.25,9.35-3,.33-2-1.36-3.88-2.59-5.21s-.41-4.57-.12-5.86.45-2.25.71-3.07.25-1.1,1-.28a12.09,12.09,0,0,1,2.14,3.75,9.15,9.15,0,0,0,3.1,3.64c.05,0,0,.21,0,.45s.18.47.44.86a10.78,10.78,0,0,1,.48,2.18c0,.05.26-.3.27-.62a11.42,11.42,0,0,0,0-1.32c0-.28-.14-.17,0-.37s.41-.12.72.22a8.61,8.61,0,0,1,1.15,1.49c.25.49.54.53.35,0,0,.09.17.44.3.32s0-.42-.09-.55c0,.07.13.22.25.11s0-.49-.11-.6.23.32.22-.06a5.86,5.86,0,0,0-.82-1.82c-.33-.54-1.18-.61-1.8-.8s-.67-.26-1.06-1.07-1.13-1.65-1.79-2.8a10.68,10.68,0,0,1-1.28-3.27c-.66-2.17-4-6.06-7.37-5.85a9.93,9.93,0,0,1,0-5.64C902.31,49.61,901.4,50.72,900.91,52.49Z"/><path class="cls-6" d="M907.4,62.2a3.33,3.33,0,0,1-2,3.72,2.36,2.36,0,0,1-3.12-2,3.3,3.3,0,0,1,1.8-3.88A2.6,2.6,0,0,1,907.4,62.2Z"/><path class="cls-6" d="M904.18,62.27a3.18,3.18,0,0,1-1.87,3.65c-1.5.57-2.77-.53-3.16-2a3.08,3.08,0,0,1,1.72-3.78A2.62,2.62,0,0,1,904.18,62.27Z"/><rect class="cls-1" x="600" width="200" height="200" transform="translate(1400 200) rotate(180)"/><path d="M699.25,82.48a1.5,1.5,0,0,1-.29.06c-.74.07-4,.28-4.51-1.29-.89-2.53-11.26-43.78-11.19-44.55a4.31,4.31,0,0,1,2.88-3.27c2.17-.88,16.62-4.54,17.6-4.65A3.11,3.11,0,0,1,707,31c.57,1.87,13.87,42.09,13.87,42.09a2.24,2.24,0,0,1-1.45,2.82C716.44,77.09,700.84,82,699.25,82.48Z"/><polygon class="cls-7" points="704.66 32.54 686.85 37.37 697.1 76.88 717.1 71.15 704.66 32.54"/><path class="cls-2" d="M788.67,147.78c-.89,0-48.8-52.95-53.44-55.7s-16.7-2.32-20.63-9.47S700,65.08,699.32,64.24s5.84-3.33,11.33,4.7,10.42,7.72,11.26,7.51-3.17-9.94-5.07-11.84c-.83-.83-3.89-2.94-7.46-5.55h0l-.18-.13-.21-.14c-1.3-1-2.66-2-4-3v-.51l-.48.14c-1.12-.87-2.22-1.77-3.25-2.65-.63-.53-1.23-1.07-1.79-1.59a29.32,29.32,0,0,1-2.78-2.93c-.29-.37-.55-.72-.78-1,0-.06-.07-.12-.11-.17l-.11-.17c-3-4.58,1-4.92,1-4.92s2,1.48,4.57,3.26l.54.38,1.87,1.33.51.35c3.44,2.42,6.66,4.6,6.08,3.93-1.18-1.38,6.1-.15,6.1-.15-2.14-4.43,9.86,1.56,9.26.47-1-1.73,10.41,2.45,11.44,3.6,1.56,1.75,13.33,26.89,13.12,28.38s6.84,4.67,7.87,6c.69.9,1.24,2.44,2.93,6.46s37.64,25.75,37.64,25.75C799.51,121.61,790.07,147.51,788.67,147.78Z"/><path class="cls-2" d="M705,55.26v.51c-.16-.12-.32-.24-.47-.37Z"/><path class="cls-8" d="M701.44,45.32S700.1,47,699,46.19a51.26,51.26,0,0,1-3.88-3.55s.89-1.15,1.7-.76S701.44,45.32,701.44,45.32Z"/><path class="cls-8" d="M704.23,69.57s1.33-1.14.92-1.67-3.94-4.19-4.42-4.26c-.22,0-1.79.25-1.16,1S704.23,69.57,704.23,69.57Z"/><path class="cls-8" d="M724.4,62.15s-12.89-10.47-14.62-10.47"/><path class="cls-8" d="M728.3,59c-.21-.82-10.75-7.76-11.87-7.76"/><path class="cls-8" d="M735.19,57.48s-7.89-5.4-9.8-5.8"/><path class="cls-9" d="M703.68,46.9l-1.87-1.33A4.75,4.75,0,0,1,703.68,46.9Z"/><path class="cls-9" d="M709.2,58.92a.25.25,0,0,1-.19.24h0a2.28,2.28,0,0,1-.4.07,4.87,4.87,0,0,0-1.06.19,4.28,4.28,0,0,0-.72.28,3.64,3.64,0,0,0-1.19,1.13,4.1,4.1,0,0,1-2.16,1.67l-.13,0-.09,0a4.16,4.16,0,0,1-2.72-.25,3.61,3.61,0,0,0-1.62-.3,4.53,4.53,0,0,0-.75.15,5.21,5.21,0,0,0-1,.42,3.53,3.53,0,0,1-.37.17.25.25,0,0,1-.32-.12,4,4,0,0,1-.23-.39c-.18-.32-.29-.52-.45-.5-1.78.24-2.37,0-2.55-.2a.37.37,0,0,1-.06-.1.2.2,0,0,1,.1-.25c2.49-1.2,2.88-4.23,2.9-4.35h0A1.08,1.08,0,0,0,696,56a1.87,1.87,0,0,0-1.37-.4h-.28c-.87-.08-1-.37-1-.54s.28-.59.57-.67a.46.46,0,0,1,.23,0,2.33,2.33,0,0,0,1,0,.81.81,0,0,0,.51-.34c-.06-.18-.13-.36-.2-.55a9.42,9.42,0,0,1-.85-3.72A4.78,4.78,0,0,1,695.81,47s.07.11.11.17c.23.32.49.67.78,1a29.32,29.32,0,0,0,2.78,2.93c.56.52,1.16,1.06,1.79,1.59,1,.88,2.13,1.78,3.25,2.65l.48-.14v.51c1.34,1,2.7,2,4,3Z"/><path class="cls-10" d="M703.93,46.87a5,5,0,0,0-2.66-1.68l.54.38,1.87,1.33.51.35A2.12,2.12,0,0,0,703.93,46.87Zm5.27,12.05-.21-.14a.49.49,0,0,1,0,.12c0,.05,0,.05,0,.06h0l-.36.06a4.72,4.72,0,0,0-1.09.2,4.3,4.3,0,0,0-.75.29,3.85,3.85,0,0,0-1.27,1.18,4,4,0,0,1-2.05,1.61l-.13,0h0l-.07,0a4,4,0,0,1-2.59-.25,4,4,0,0,0-1.71-.31,5,5,0,0,0-.79.16,5.32,5.32,0,0,0-1,.43,1.74,1.74,0,0,1-.33.15c-.06,0-.06,0-.09,0l-.22-.38c-.19-.35-.36-.65-.65-.61-1.9.25-2.3,0-2.38-.13l0,0c2.57-1.24,3-4.31,3-4.51a1.24,1.24,0,0,0-.2-1,2,2,0,0,0-1.52-.47h-.27c-.61,0-.84-.22-.85-.36s.2-.39.43-.46a.23.23,0,0,1,.14,0,2.58,2.58,0,0,0,1.09,0,1,1,0,0,0,.63-.45l0-.07,0-.08-.2-.54a9.54,9.54,0,0,1-.84-3.63,4.68,4.68,0,0,1,1.12-2.53c0-.06-.07-.12-.11-.17l-.11-.17a5,5,0,0,0-1.3,2.82,9.66,9.66,0,0,0,.87,3.81c.05.15.1.3.16.44a.84.84,0,0,1-.34.19,2.13,2.13,0,0,1-.92,0,.56.56,0,0,0-.31,0,1,1,0,0,0-.72.88c0,.28.26.64,1.22.72h.29c.39,0,1,0,1.22.33a.81.81,0,0,1,.11.7v0a5.7,5.7,0,0,1-2.79,4.2.4.4,0,0,0-.2.49.51.51,0,0,0,.09.16c.32.39,1.21.48,2.73.28a2.13,2.13,0,0,1,.26.4c.07.13.14.26.23.4a.45.45,0,0,0,.55.2,3.17,3.17,0,0,0,.4-.18,5.67,5.67,0,0,1,1-.41,5.55,5.55,0,0,1,.73-.14,3.51,3.51,0,0,1,1.53.29,4.32,4.32,0,0,0,2.83.25l.09,0,.14,0A4.31,4.31,0,0,0,705.77,61a3.45,3.45,0,0,1,1.13-1.07,4.92,4.92,0,0,1,.69-.27,4.39,4.39,0,0,1,1-.18,2.57,2.57,0,0,0,.43-.08h0a.47.47,0,0,0,.32-.29h0Z"/><path d="M698.87,59.22l-.58-2,.51-.15,1.32,1-.36-1.23.52-.15.59,2-.52.15L699,57.85l.36,1.22Z"/><path d="M702,56.62l-.61.19.09.33L702,57l.13.44-.59.17.1.34.62-.18.13.44-1.14.34-.58-2,1.13-.34Z"/><path d="M704.52,55.4l-.06,0v1.4l-.78-1.18-.41.12,0,1.42L702.5,56l-.54.16L703.14,58l.53-.15,0-1.27.71,1.05.53-.16,0-1.67v-.51Z"/><path d="M701.27,52.75c-.63-.53-1.23-1.07-1.79-1.59l.71,2.42,1.22-.35Z"/><rect class="cls-1" x="400" width="200" height="200" transform="translate(1000 200) rotate(180)"/><path d="M496,82.48a1.27,1.27,0,0,1-.28.06c-.74.07-4,.28-4.51-1.29C490.34,78.72,480,37.47,480,36.7a4.32,4.32,0,0,1,2.89-3.27c2.17-.88,16.62-4.54,17.59-4.65A3.12,3.12,0,0,1,503.79,31c.56,1.87,13.87,42.09,13.87,42.09a2.24,2.24,0,0,1-1.45,2.82C513.23,77.09,497.63,82,496,82.48Z"/><polygon class="cls-7" points="501.44 32.54 483.64 37.37 493.88 76.88 513.89 71.15 501.44 32.54"/><path class="cls-2" d="M598.61,121.8c.2,12.39-9.54,25.24-9.54,25.24s-36.49-41.85-51.66-52.78-15.55-2.58-21.87-10.81-12.3-10.37-15-15.84S511,70,511.18,71.26s8.8,7.63,10.32,5.14-1.73-8.42-5-11c-2.17-1.7-8-4.43-12.58-6.94l-.22-.12-.22-.12c-1.15-.64-2.21-1.25-3.09-1.84-.48-.31-.91-.61-1.28-.9-.17-.14-.34-.27-.48-.41l-.06-.21-.13,0c-2.64-2.52-3.95-4.19-2.37-5.79a3.92,3.92,0,0,1,.47-.4.86.86,0,0,1,.69-.16.68.68,0,0,1,.3.11c1.12.74,3,1.9,5,3l.18.1.19.1c3.24,1.74,6.71,3.26,7.85,2.67,2-1,3.78-1.83,6.13-1.59-1.15-4.34,7.45.07,8.83-.34,2.18-.65,9.35,1.81,11.93,5.21,3.94,5.2,10,19.33,12.4,25.1,2.31,5.59,4.72,2.93,8.12,6.8,1.22,1.38-.76,1.52,4.09,7.21C567.55,103.14,588.58,116.51,598.61,121.8Z"/><path class="cls-2" d="M498.62,55.08a1.07,1.07,0,0,1-.16-.14l0,0,.13,0Z"/><path class="cls-8" d="M502.48,51.49c-.65.72-1.06,1.7-2.35,1.12a36.35,36.35,0,0,1-4.33-2.9c.64-.43.3-1.56,1.56-1.15A43.72,43.72,0,0,1,502.48,51.49Z"/><path class="cls-8" d="M504.42,72.42c.29-.47,1.38-.77.77-1.65s-3.32-3.62-4.18-3.9-1.95-.07-1.14.94S503.17,71.25,504.42,72.42Z"/><path class="cls-8" d="M524.45,62.42c-3.69-3-8.72-6.65-13.57-7.16"/><path class="cls-8" d="M528.45,59.93a24,24,0,0,0-11.6-6.82"/><path class="cls-8" d="M535.51,59.59c-3.14-2.44-6.21-5.2-9.9-6.75"/><path class="cls-9" d="M503.9,50.56l-.23.16c-.36.23-.88.58-.95,1.05l-.18-.1c-2-1.1-3.9-2.26-5-3a.68.68,0,0,0-.3-.11.86.86,0,0,0-.69.16,3.92,3.92,0,0,0-.47.4c-1.58,1.6-.27,3.27,2.37,5.79l.13,0,.06.21c.14.14.31.27.48.41.37.29.8.59,1.28.9.88.59,1.94,1.2,3.09,1.84l.22.12-.2.08a3.77,3.77,0,0,0-1.21,1.12,4.14,4.14,0,0,1-2.17,1.65l-.14,0-.09,0a4.12,4.12,0,0,1-2.71-.28,3.62,3.62,0,0,0-1.61-.32,4.49,4.49,0,0,0-1.76.55,2.58,2.58,0,0,1-.37.16.25.25,0,0,1-.32-.11l-.22-.4c-.17-.33-.29-.53-.44-.51-1.78.22-2.38,0-2.56-.23a.31.31,0,0,1-.05-.1.2.2,0,0,1,.1-.25c2.51-1.17,2.93-4.19,2.95-4.32h0a1,1,0,0,0-.14-.86c-.3-.38-.94-.4-1.37-.41l-.28,0c-.86-.09-1-.38-1-.55s.29-.59.58-.67a.62.62,0,0,1,.23,0,2.37,2.37,0,0,0,1,0,.77.77,0,0,0,.51-.34c-.06-.17-.12-.36-.19-.55a9.39,9.39,0,0,1-.81-3.73A5,5,0,0,1,495,44.2l.33-.09h0a5,5,0,0,1,5.23,1.6,9.77,9.77,0,0,1,1.25,3.61v.06c0,.17.07.34.11.51a.82.82,0,0,0,.56,0,2.37,2.37,0,0,0,.81-.49.79.79,0,0,1,.26-.13.63.63,0,0,1,.33,0h0a.58.58,0,0,1,.57.35C504.57,49.79,504.51,50.1,503.9,50.56Z"/><path class="cls-10" d="M504.71,49.55a.78.78,0,0,0-.75-.49h-.14a.84.84,0,0,0-.27,0,1.08,1.08,0,0,0-.34.17,2.35,2.35,0,0,1-.73.46,1,1,0,0,1-.34,0l-.09-.41v0a9.62,9.62,0,0,0-1.29-3.7,5.17,5.17,0,0,0-5.43-1.67h0l0,0L495,44a5.14,5.14,0,0,0-3.76,4.26,9.75,9.75,0,0,0,.82,3.82c.05.15.11.3.16.44a.74.74,0,0,1-.34.18,2.13,2.13,0,0,1-.92,0,.66.66,0,0,0-.31,0,1,1,0,0,0-.73.87c0,.29.25.64,1.21.74l.3,0c.38,0,1,0,1.21.33a.85.85,0,0,1,.1.71v0c0,.12-.42,3-2.83,4.16a.4.4,0,0,0-.21.5.65.65,0,0,0,.09.16c.31.39,1.2.49,2.72.3a1.82,1.82,0,0,1,.26.41c.07.13.14.26.23.4a.43.43,0,0,0,.54.2,2.5,2.5,0,0,0,.4-.17,4.6,4.6,0,0,1,1-.39,3.49,3.49,0,0,1,.73-.14,3.34,3.34,0,0,1,1.52.31,4.4,4.4,0,0,0,2.84.28l.09,0,.14,0a4.36,4.36,0,0,0,2.27-1.71,3.44,3.44,0,0,1,1.14-1.06l.33-.15-.22-.12-.22-.12-.06,0a3.69,3.69,0,0,0-1.28,1.18A4.08,4.08,0,0,1,500.06,61l-.13,0h0l-.07,0a3.91,3.91,0,0,1-2.59-.27,3.84,3.84,0,0,0-1.71-.33,5.24,5.24,0,0,0-.79.15,6.14,6.14,0,0,0-1,.42,1.74,1.74,0,0,1-.33.15c-.07,0-.07,0-.1,0s-.14-.26-.21-.38c-.19-.35-.35-.65-.64-.62-1.91.24-2.3-.06-2.38-.15l0,0a6.09,6.09,0,0,0,3.06-4.48,1.2,1.2,0,0,0-.19-1,1.93,1.93,0,0,0-1.51-.48l-.27,0c-.61-.06-.84-.23-.85-.37s.21-.39.44-.46a.31.31,0,0,1,.13,0,2.66,2.66,0,0,0,1.1,0,.94.94,0,0,0,.63-.44l0-.08,0-.07c-.06-.18-.12-.36-.19-.55a9.43,9.43,0,0,1-.8-3.64,4.73,4.73,0,0,1,3.47-3.92l.32-.1h0a4.74,4.74,0,0,1,5,1.54,9.52,9.52,0,0,1,1.21,3.52l.12.57,0,.08.07,0a1,1,0,0,0,.72.07h0a2.61,2.61,0,0,0,.88-.53.48.48,0,0,1,.19-.09.53.53,0,0,1,.25,0h0c.21,0,.37.09.4.2s0,.3-.54.74l-.22.15c-.37.25-.91.6-1,1.12l.18.1.19.1s0,0,0-.06c0-.39.53-.71.86-.92l.24-.17Q504.86,50.08,504.71,49.55Z"/><path d="M495.56,57.87l-.57-2,.52-.15,1.31,1-.35-1.23.52-.15.57,2-.52.15-1.31-1,.35,1.23Z"/><path d="M499,56.43l-.62.18-.1-.35.59-.17-.13-.44-.58.17-.1-.34.62-.17-.06-.23-.06-.21-.13,0-1,.28.56,2,1.14-.32Z"/><path d="M499.1,55.49l.74,1.18.53-.15v-.13C499.9,56.08,499.47,55.78,499.1,55.49Z"/><path d="M496.83,47.18l-1.89.53.29,1,.67-.19.16.56a3.92,3.92,0,0,1,.47-.4.86.86,0,0,1,.69-.16Z"/><rect class="cls-1" x="200" width="200" height="200"/><path d="M295,82.48a1.5,1.5,0,0,1-.29.06c-.74.07-4,.28-4.51-1.29C289.33,78.72,279,37.47,279,36.7a4.31,4.31,0,0,1,2.88-3.27c2.17-.88,16.62-4.54,17.6-4.65A3.11,3.11,0,0,1,302.77,31c.57,1.87,13.87,42.09,13.87,42.09a2.24,2.24,0,0,1-1.45,2.82C312.21,77.09,296.61,82,295,82.48Z"/><polygon class="cls-7" points="300.5 32.67 282.69 37.5 292.94 77.01 312.94 71.28 300.5 32.67"/><path class="cls-2" d="M296.93,54h0Z"/><path class="cls-2" d="M294.54,53.35a1.58,1.58,0,0,0-.46,0A1.16,1.16,0,0,1,294.54,53.35Z"/><path class="cls-2" d="M388.88,146.47s-34.51-39.07-50.24-50.08-16.73-5.34-23.7-12.53c-5.37-5.55-8.47-9.21-10.34-13.78,0,0,0,0,0,0a26.65,26.65,0,0,1-1.37-4.37c-.8-3.45,7.93,4.43,8.15,5.38.29,1.27,7.2,8.93,8.72,5.56s-1.12-7.39-4.64-11c-3.23-3.29-11.76-4.82-16.46-6.08a4.33,4.33,0,0,0,2.16-1.65,3.41,3.41,0,0,1,1.15-1.05,5,5,0,0,1,.7-.26,5.57,5.57,0,0,1,1-.16,2.12,2.12,0,0,0,.44-.06h0a.43.43,0,0,0,.34-.44c0-.13,0-.25,0-.37a15.51,15.51,0,0,0,4.91,0c3.4-.8,4-1.14,6.81-.68l.23,0h0l.21,0c.24-3.85,5.41-.22,8-.09a14.63,14.63,0,0,1,10.95,5.39c4.82,5.65,9.49,16.52,12.55,22.68s4,2.26,8.59,7.35c1.64,1.82-.54,2.31,5.08,7.59,6.13,5.75,25.47,18.69,35.93,23.18C398.68,133.32,388.88,146.47,388.88,146.47Z"/><path class="cls-8" d="M294.08,53.38a.45.45,0,0,0-.35.34,8.81,8.81,0,0,0-.21,1.21l-.2-.07C293.86,54.26,293.27,53.53,294.08,53.38Z"/><path class="cls-8" d="M300.24,54.59l-.1.18c-.34-.06-.68-.14-1-.21l-.88-.22-.66-.16-.66-.17h0l-.61-.16-.48-.13-.42-.12-.69-.2-.17,0h0a7.58,7.58,0,0,1,1.15.15h0l.48.09.59.14.6.14.08,0,.55.15,1.08.28.7.17.11,0Z"/><path class="cls-8" d="M305.4,71.23a1.08,1.08,0,0,0,1.19-1.2c0-1-1.68-3.57-2.31-4.47-.35-.5-1-.44-1.06.13A9.88,9.88,0,0,0,305.4,71.23Z"/><path class="cls-8" d="M323.1,64.24c-4.09-3.46-7.42-6.85-12.84-8Z"/><path class="cls-8" d="M327.14,61.84a29.84,29.84,0,0,0-10.85-7.16Z"/><path class="cls-8" d="M333.76,61.74c-2.9-2.39-5.6-4.88-8.94-6.66Z"/><path class="cls-9" d="M298.81,59.42l-.14,0h0l-.09,0a4.18,4.18,0,0,1-2.71-.3,3.49,3.49,0,0,0-1.61-.34,4.64,4.64,0,0,0-.76.13,5.13,5.13,0,0,0-1,.4,2.58,2.58,0,0,1-.37.16.25.25,0,0,1-.32-.12c-.08-.13-.15-.27-.21-.39-.18-.33-.29-.54-.44-.52-1.79.2-2.38,0-2.56-.25a.54.54,0,0,1-.05-.11.2.2,0,0,1,.1-.24c2.52-1.15,3-4.16,3-4.29h0a1.05,1.05,0,0,0-.14-.87c-.29-.38-.93-.41-1.36-.43h-.28c-.86-.1-1-.4-1-.57s.3-.58.59-.66a.46.46,0,0,1,.23,0,2.42,2.42,0,0,0,1,0,.81.81,0,0,0,.51-.33c-.06-.18-.12-.36-.19-.55a9.55,9.55,0,0,1-.77-3.74,4.92,4.92,0,0,1,3.65-4.05l.33-.09,0,0a5,5,0,0,1,5.21,1.66,9.53,9.53,0,0,1,1.21,3.62v.06c0,.17.08.35.11.51a.81.81,0,0,0,.56,0h0a2.34,2.34,0,0,0,.82-.49.55.55,0,0,1,.26-.12,1,1,0,0,1,.33,0h0a.61.61,0,0,1,.57.35c.05.19,0,.5-.62,1l-.24.16c-.36.23-.89.58-1,1.05a1,1,0,0,0,.32.82h0a5.92,5.92,0,0,0,4.75,2.2.18.18,0,0,1,.21.15.24.24,0,0,1,0,.12c0,.28-.43.78-2.07,1.51-.14.06-.14.25-.12.66,0,.15,0,.29,0,.45a.25.25,0,0,1-.2.25h0a1.61,1.61,0,0,1-.4.06,5.46,5.46,0,0,0-1.06.17,4.16,4.16,0,0,0-.72.26A3.77,3.77,0,0,0,301,57.79a4.26,4.26,0,0,1-2.19,1.63Z"/><path class="cls-10" d="M306.57,52.85c-2.65.27-4.49-2-4.57-2.12l0,0a.84.84,0,0,1-.27-.66c.05-.38.55-.7.87-.91l.25-.16c.56-.43.8-.82.69-1.17a.77.77,0,0,0-.74-.5h-.1a1.63,1.63,0,0,0-.31,0,1.08,1.08,0,0,0-.34.17,2.41,2.41,0,0,1-.74.45.7.7,0,0,1-.33,0l-.09-.4V47.5a9.67,9.67,0,0,0-1.25-3.7,5.15,5.15,0,0,0-5.42-1.73l-.05,0-.32.09a5.11,5.11,0,0,0-3.8,4.21,9.55,9.55,0,0,0,.79,3.83c0,.15.1.3.15.45a.84.84,0,0,1-.35.18,2.3,2.3,0,0,1-.91,0,.7.7,0,0,0-.32,0,1,1,0,0,0-.73.87c0,.28.24.64,1.2.75l.29,0c.39,0,1,0,1.22.34a.89.89,0,0,1,.09.71v0a5.72,5.72,0,0,1-2.88,4.14.4.4,0,0,0-.21.49.65.65,0,0,0,.09.16c.31.39,1.2.5,2.72.33a1.83,1.83,0,0,1,.25.41c.07.13.14.27.23.41a.45.45,0,0,0,.54.2,1.83,1.83,0,0,0,.4-.17,5.3,5.3,0,0,1,1-.38,4.46,4.46,0,0,1,.73-.13,3.47,3.47,0,0,1,1.52.32,4.36,4.36,0,0,0,2.83.31l.1,0,.14,0,.12,0-.77-.21h0a4.33,4.33,0,0,1-2.27-.37,3.79,3.79,0,0,0-1.7-.35,5,5,0,0,0-.79.14,6.41,6.41,0,0,0-1,.41,1.74,1.74,0,0,1-.33.15c-.06,0-.07,0-.09,0a3.72,3.72,0,0,1-.21-.39c-.19-.35-.34-.65-.64-.62-1.91.22-2.3-.08-2.38-.18a.08.08,0,0,1,0,0,6.08,6.08,0,0,0,3.11-4.44,1.24,1.24,0,0,0-.18-1,2,2,0,0,0-1.51-.5l-.27,0c-.61-.07-.83-.24-.84-.38s.21-.39.44-.45a.36.36,0,0,1,.14,0,2.33,2.33,0,0,0,1.09,0,1,1,0,0,0,.64-.43l0-.07,0-.08-.18-.55a9.43,9.43,0,0,1-.77-3.65,4.73,4.73,0,0,1,3.51-3.89l.32-.09h0a4.75,4.75,0,0,1,5,1.59,9.46,9.46,0,0,1,1.17,3.53l.12.58v.07l.07.05a1,1,0,0,0,.72.07h0a2.6,2.6,0,0,0,.89-.52.51.51,0,0,1,.18-.09.78.78,0,0,1,.26,0h0c.2,0,.37.1.4.21s0,.3-.55.73l-.22.15c-.39.25-1,.63-1.06,1.2a1.23,1.23,0,0,0,.37,1,6.1,6.1,0,0,0,4.93,2.28v0c0,.12-.21.58-2,1.36-.28.12-.26.46-.24.85v0l.4,0v-.09a1.76,1.76,0,0,1,0-.47c1.4-.63,2.11-1.17,2.18-1.66a.61.61,0,0,0,0-.19A.4.4,0,0,0,306.57,52.85Z"/><path class="cls-2" d="M304.82,55.94a.43.43,0,0,1-.34.44h0a2.12,2.12,0,0,1-.44.06,5.57,5.57,0,0,0-1,.16,5,5,0,0,0-.7.26,3.41,3.41,0,0,0-1.15,1.05A4.33,4.33,0,0,1,299,59.57l-.77-.21.31-.07.08,0h0l.13,0a3.93,3.93,0,0,0,2.08-1.56,3.88,3.88,0,0,1,1.3-1.16,5.63,5.63,0,0,1,.75-.27,5.23,5.23,0,0,1,1.1-.18,2.21,2.21,0,0,0,.36,0h0c.05,0,.05,0,.05-.06s0-.29,0-.42l.4,0C304.82,55.69,304.82,55.81,304.82,55.94Z"/><path class="cls-2" d="M304.42,55.94s0,0-.05.06h0a2.21,2.21,0,0,1-.36,0,5.23,5.23,0,0,0-1.1.18,5.63,5.63,0,0,0-.75.27,3.88,3.88,0,0,0-1.3,1.16,3.93,3.93,0,0,1-2.08,1.56l-.13,0h0l-.08,0-.31.07h0l-.41-.13c-3.63-1.14-4.5-2.24-4.28-4.3l.53.18.25.93.52-.14-.15-.55a14.35,14.35,0,0,0,3.53,1c1.4.13,1.48-.71,1.94-1.61,1.42.31,2.88.58,4.27.75C304.42,55.65,304.42,55.79,304.42,55.94Z"/><path class="cls-8" d="M300.14,54.77c-.46.9-.54,1.74-1.94,1.61a14.35,14.35,0,0,1-3.53-1l-.62-.24-.53-.18a8.81,8.81,0,0,1,.21-1.21.45.45,0,0,1,.35-.34,1.58,1.58,0,0,1,.46,0l.17,0,.69.2.42.12.37.1.11,0,.42,1.55,1.14-.31-.12-.44-.62.16-.09-.34.59-.16,0-.12.66.16.33.54.54-.14v-.18C299.46,54.63,299.8,54.71,300.14,54.77Z"/><path d="M295.76,53.5h0l-.33.09.42.12Z"/><path class="cls-2" d="M294.82,55.9l-.52.14-.25-.93.62.24Z"/><path d="M297.51,53.89v0l-.07,0-.5.14.66.17Zm-.69-.21.62-.17-.12-.44-1.14.31.06.21.06.25.61.16-.08-.27Z"/><path class="cls-2" d="M297.86,55.08l-1.14.31-.42-1.55.61.16h0l.66.17,0,.12-.59.16.09.34.62-.16Z"/><path d="M300,52.36l0,1.4-.74-1.2-.42.12-.07,1.41-.7-1.2-.55.14.62,1,.19.3.88.22v-.24l.05-.85.65,1,0,0,.08,0,.45-.13.1-2.18Z"/><path class="cls-2" d="M299.13,54.56v.18l-.54.14-.33-.54Z"/><path d="M294.73,46.74l-.68.18-.28-1,1.9-.52L297,50.1l-1.23.33Z"/><polygon class="cls-8" points="299.24 54.61 298.81 55.31 296.74 55.57 296.04 54.23 295.98 53.75 299.24 54.61"/><path d="M95,82.48a1.5,1.5,0,0,1-.29.06c-.74.07-4,.28-4.51-1.29C89.33,78.72,79,37.47,79,36.7a4.31,4.31,0,0,1,2.88-3.27c2.17-.88,16.62-4.54,17.6-4.65A3.11,3.11,0,0,1,102.77,31c.57,1.87,13.87,42.09,13.87,42.09a2.24,2.24,0,0,1-1.45,2.82C112.21,77.09,96.61,82,95,82.48Z"/><rect class="cls-1" width="200" height="200"/><g id="_Group_" data-name="&lt;Group&gt;"><polygon class="cls-3" points="100.5 32.67 82.69 37.5 92.94 77.01 112.94 71.28 100.5 32.67"/><polygon class="cls-7" points="100.42 32.67 82.62 37.5 92.86 77.01 112.87 71.28 100.42 32.67"/><path class="cls-9" d="M98.73,59.42l-.14,0h0l-.09,0a4.15,4.15,0,0,1-2.7-.3,3.56,3.56,0,0,0-1.62-.34,4.83,4.83,0,0,0-.76.13,5.41,5.41,0,0,0-1,.4,2.53,2.53,0,0,1-.36.16.24.24,0,0,1-.32-.12c-.08-.13-.15-.27-.22-.39-.17-.33-.29-.54-.44-.52-1.79.2-2.37,0-2.55-.25a.3.3,0,0,1-.06-.11.2.2,0,0,1,.11-.24c2.52-1.15,3-4.16,3-4.29h0a1.06,1.06,0,0,0-.13-.87,1.87,1.87,0,0,0-1.37-.43h-.28c-.86-.1-1-.4-1-.57s.29-.58.59-.66a.42.42,0,0,1,.22,0,2.41,2.41,0,0,0,1,0,.74.74,0,0,0,.51-.33l-.18-.55a9.4,9.4,0,0,1-.78-3.74,4.93,4.93,0,0,1,3.66-4.05l.32-.09,0,0a5,5,0,0,1,5.21,1.66,9.53,9.53,0,0,1,1.22,3.62v.06c0,.17.07.35.1.51a.81.81,0,0,0,.56,0h0a2.25,2.25,0,0,0,.82-.49.59.59,0,0,1,.26-.12,1,1,0,0,1,.34,0h0a.59.59,0,0,1,.57.35c.06.19,0,.5-.62,1l-.23.16c-.36.23-.9.58-1,1.05a1.07,1.07,0,0,0,.33.82h0a5.92,5.92,0,0,0,4.75,2.2.18.18,0,0,1,.21.15.49.49,0,0,1,0,.12c0,.28-.44.78-2.08,1.51-.13.06-.14.25-.12.66a3.34,3.34,0,0,1,0,.45.24.24,0,0,1-.19.25h0a1.6,1.6,0,0,1-.39.06,5.24,5.24,0,0,0-1.06.17,4.26,4.26,0,0,0-.73.26,3.87,3.87,0,0,0-1.22,1.11,4.18,4.18,0,0,1-2.19,1.63Z"/><path class="cls-10" d="M106.49,52.85c-2.65.27-4.49-2-4.57-2.12l0,0a.84.84,0,0,1-.27-.66c.05-.38.55-.7.87-.91l.25-.16c.56-.43.8-.82.69-1.17a.77.77,0,0,0-.74-.5h-.1a1.63,1.63,0,0,0-.31,0,1.08,1.08,0,0,0-.34.17,2.41,2.41,0,0,1-.74.45.7.7,0,0,1-.33,0l-.09-.4V47.5a9.67,9.67,0,0,0-1.25-3.7,5.15,5.15,0,0,0-5.42-1.73l0,0-.32.09a5.11,5.11,0,0,0-3.8,4.21,9.55,9.55,0,0,0,.79,3.83c0,.15.1.3.15.45a.84.84,0,0,1-.35.18,2.3,2.3,0,0,1-.91,0,.7.7,0,0,0-.32,0,1,1,0,0,0-.73.87c0,.28.24.64,1.2.75l.29,0c.39,0,1,0,1.22.34a.89.89,0,0,1,.09.71v0a5.72,5.72,0,0,1-2.88,4.14.4.4,0,0,0-.21.49.65.65,0,0,0,.09.16c.31.39,1.2.5,2.72.33a1.83,1.83,0,0,1,.25.41c.07.13.14.27.23.41a.45.45,0,0,0,.54.2,1.83,1.83,0,0,0,.4-.17,5.3,5.3,0,0,1,1-.38A4.46,4.46,0,0,1,94.2,59a3.47,3.47,0,0,1,1.52.32,4.36,4.36,0,0,0,2.83.31l.1,0,.14,0,.12,0-.77-.21h0A4.33,4.33,0,0,1,95.86,59a3.79,3.79,0,0,0-1.7-.35,5,5,0,0,0-.79.14,6.41,6.41,0,0,0-1,.41,1.74,1.74,0,0,1-.33.15c-.06,0-.07,0-.09,0a3.72,3.72,0,0,1-.21-.39c-.19-.35-.34-.65-.64-.62-1.91.22-2.3-.08-2.38-.18a.08.08,0,0,1,0,0,6.08,6.08,0,0,0,3.11-4.44,1.24,1.24,0,0,0-.18-1,2,2,0,0,0-1.51-.5l-.27,0c-.61-.07-.83-.24-.84-.38s.21-.39.44-.45a.36.36,0,0,1,.14,0,2.33,2.33,0,0,0,1.09,0,1,1,0,0,0,.64-.43l0-.07,0-.08-.18-.55a9.43,9.43,0,0,1-.77-3.65,4.73,4.73,0,0,1,3.51-3.89l.32-.09h0a4.75,4.75,0,0,1,5,1.59,9.46,9.46,0,0,1,1.17,3.53l.12.58v.07l.07.05a1,1,0,0,0,.72.07h0a2.6,2.6,0,0,0,.89-.52.51.51,0,0,1,.18-.09.78.78,0,0,1,.26,0h0c.2,0,.37.1.4.21s0,.3-.55.73l-.22.15c-.39.25-1,.63-1.06,1.2a1.23,1.23,0,0,0,.37,1,6.1,6.1,0,0,0,4.93,2.28v0c0,.12-.21.58-2,1.36-.28.12-.26.46-.24.85v0l.4,0v-.09a1.76,1.76,0,0,1,0-.47c1.4-.63,2.11-1.17,2.18-1.66a.61.61,0,0,0,0-.19A.4.4,0,0,0,106.49,52.85Z"/><path d="M104.74,55.94a.43.43,0,0,1-.34.44h0a2.12,2.12,0,0,1-.44.06,5.57,5.57,0,0,0-1,.16,5,5,0,0,0-.7.26,3.41,3.41,0,0,0-1.15,1.05,4.33,4.33,0,0,1-2.16,1.65l-.77-.21.31-.07.08,0h0l.13,0a3.93,3.93,0,0,0,2.08-1.56,3.88,3.88,0,0,1,1.3-1.16,5.63,5.63,0,0,1,.75-.27,5.23,5.23,0,0,1,1.1-.18,2.21,2.21,0,0,0,.36,0h0s0,0,0-.06,0-.29,0-.42l.4,0C104.74,55.69,104.74,55.81,104.74,55.94Z"/><path class="cls-2" d="M188.67,146.87s-29.72-34.8-44.13-45.75-18.69-8.51-27.12-15.44c-6.22-5.12-10.25-6.73-13.75-10A.9.9,0,0,0,104,74.2l-.27-.27c-1-1-3.12-2.54-4-3.58-.17-.21-.28-.36-.4-.33-.17-.86.84-1,2.34-.78,3.4.51,9.32,3,9.83,3.87,1.07,1.77,6.81,7.34,8.36,3.15S119,68.83,115.07,66c-1.91-1.36-4.83-2.08-7.83-2.44q-1.15-.14-2.31-.21c-1.41-.09-2.78-.11-4-.09-.91,0-1.75,0-2.48.07a6.16,6.16,0,0,1-3.09-.43,1.63,1.63,0,0,1-.72-.73,2.22,2.22,0,0,1-.11-1.45,7.44,7.44,0,0,1,.76-1.95,3.5,3.5,0,0,1,1-.2l1.52-.18,3.08-.33,3.73-.38c2.36-.25,4.46-.49,5.34-.67a27.48,27.48,0,0,1,8.34-.54c2.19-2.66,5-1.18,7.81-.63,4.41.87,6.93,1.14,10.08,4.86,4.81,5.67,8.49,15.2,12.08,21.13s5.19,4.3,10.13,9.92c1.76,2,1,4,6.89,8.55,6.43,4.91,22.6,16.94,32.58,20.48C198.9,133,188.67,146.87,188.67,146.87Z"/><path class="cls-8" d="M101.39,58.24c-.29,1,.16,1.89-1,2.42-.82.39-5.86.92-5.66,0,.27-1.27.66-1.76,1.41-1.95A39.56,39.56,0,0,1,101.39,58.24Z"/><path class="cls-8" d="M103.67,75.72c-.1,0-.18.08-.2.06a8.62,8.62,0,0,1-1.54-1.37,28.59,28.59,0,0,1-2.92-4c.12-.27.22-.38.3-.39s.23.12.4.33c.88,1,3,2.6,4,3.58l.27.27A.9.9,0,0,1,103.67,75.72Z"/><path class="cls-8" d="M123.33,64.45a38.53,38.53,0,0,0-12.42-6.76"/><path class="cls-8" d="M127.54,62.19a39.9,39.9,0,0,0-10.09-6"/><path class="cls-8" d="M133.8,61.76a49.59,49.59,0,0,0-7.89-5.59"/></g><path d="M94.73,47.41l-.68.19-.28-1.05,1.9-.51L97,50.78l-1.23.33Z"/></g></g></svg>
