<svg xmlns="http://www.w3.org/2000/svg" width="104.8" height="45.56" viewBox="0 0 104.8 45.56">
  <title>start</title>
  <g id="Layer_2" data-name="Layer 2">
    <g id="title">
      <g>
        <path d="M12.93,21.48a4.72,4.72,0,0,0-1.6-1.61A4.66,4.66,0,0,0,8,19.34c-2.69.44-3.82,2.27-3.51,4.14.14.87.69,2.34,3.7,3l3.1.69c5.69,1.3,7.67,4.1,8.21,7.4A9,9,0,0,1,11.71,45.4a8.58,8.58,0,0,1-7.3-1.79,9.51,9.51,0,0,1-3.35-5.25l4.23-1.67a6.28,6.28,0,0,0,1.82,3.49,4.62,4.62,0,0,0,4.06,1.12,4.71,4.71,0,0,0,4-5.64c-.48-3-2.94-3.81-5-4.28l-3-.71c-2.55-.61-6.39-2-7.1-6.38-.64-3.91,1.79-8.14,7.22-9a8.61,8.61,0,0,1,6.14,1,9.83,9.83,0,0,1,2.69,2.55Z"/>
        <path d="M29.63,16.44l4,24.8L29.24,42l-4-24.8-6.65,1.09-.68-4.17,17.72-2.9.68,4.17Z"/>
        <path d="M58.37,30,46,32.05l-2,7.51-4.77.78,9.41-33L67.33,35.74l-4.78.78Zm-2.46-3.88L50,17,47.14,27.58Z"/>
        <path d="M71.41,5.34c3.52-.58,5.85-.51,7.92.44A8.21,8.21,0,0,1,83.88,12a8.06,8.06,0,0,1-5.11,9.13l11,10.9L84.48,33,74.25,22.44l-.78.13L75.4,34.43,71,35.15l-4.72-29Zm1.44,13.41,1.39-.23c1.21-.2,6.14-1.14,5.39-5.74C79,8.7,75,8.94,72.86,9.29l-1.52.25Z"/>
        <path d="M98.15,5.25l4,24.8-4.43.73L93.72,6,87.08,7.06,86.4,2.89,104.12,0l.68,4.17Z"/>
      </g>
    </g>
  </g>
</svg>
