<svg xmlns="http://www.w3.org/2000/svg" viewBox="0 0 1600 900"><defs><style>.cls-1{fill:#202532;}.cls-2{fill:#e9eced;}.cls-3{fill:#050505;}.cls-4{fill:#e3e4e5;}</style></defs><title>title</title><g id="Layer_2" data-name="Layer 2"><g id="title"><rect class="cls-1" width="1600" height="521.74"/><polygon class="cls-2" points="0 363.81 1054.69 191.9 1600 488.59 1600 900 0 900 0 363.81"/><path class="cls-3" d="M1068.48,394.74l-136.28,25a9.77,9.77,0,0,0-7.28,7.28l-8.38,46.07c-2.81,15.39,6.5,27.09,21.1,24.41l152.66-28c14.6-2.67,19.15-16.91,11.07-30.3l-24.57-40.71A8.65,8.65,0,0,0,1068.48,394.74Z"/><polygon class="cls-4" points="1094.53 453.58 926.4 485.23 937.98 426.05 1062.23 402.65 1094.53 453.58"/></g></g></svg>
